<svg xmlns="http://www.w3.org/2000/svg" width="71.904" height="53.976" viewBox="0 0 71.904 53.976">
  <g id="binocular" transform="translate(-2 -7.97)">
    <path id="Path_330" data-name="Path 330" d="M11.6,11.124a17.367,17.367,0,0,1,12.42,1.144A7.21,7.21,0,0,0,14.7,8.509a8.08,8.08,0,0,0-3.1,2.615Z" transform="translate(6.088 0)" fill="#306177"/>
    <path id="Path_331" data-name="Path 331" d="M28.8,12.249a16.976,16.976,0,0,1,7.517-1.8,25.229,25.229,0,0,1,4.9.654A7.435,7.435,0,0,0,35.173,8,6.759,6.759,0,0,0,28.8,12.249Z" transform="translate(16.996 0.019)" fill="#306177"/>
    <path id="Path_332" data-name="Path 332" d="M43.2,25.328A20.179,20.179,0,0,1,64.767,25L59.7,14.869a1.276,1.276,0,0,0-.654-.654S56.433,11.6,50.55,11.6c-3.759,0-6.046.981-8.007,2.778-.327.163-.49.654-.654.981l-.817,5.066h-1.8a5.733,5.733,0,0,0-1.307-.817,6.789,6.789,0,0,0-5.066,0,3.558,3.558,0,0,0-1.307.817H29.8L28.815,15.2a1.646,1.646,0,0,0-.163-.49,12.466,12.466,0,0,0-8.5-3.1c-2.778,0-4.249-.163-8.5,2.615a1.276,1.276,0,0,0-.654.654L6.1,25a20.234,20.234,0,0,1,21.408.327c1.144.817,7.844,8.988,7.844,8.988S41.888,26.145,43.2,25.328Z" transform="translate(2.6 2.301)" fill="#306177"/>
    <path id="Path_333" data-name="Path 333" d="M19.159,20A17.159,17.159,0,1,0,36.318,37.159,17.157,17.157,0,0,0,19.159,20Zm0,28.435A11.439,11.439,0,1,1,30.6,37,11.473,11.473,0,0,1,19.159,48.435Z" transform="translate(0 7.629)" fill="#306177"/>
    <path id="Path_334" data-name="Path 334" d="M42.159,20A17.159,17.159,0,1,0,59.318,37.159,17.157,17.157,0,0,0,42.159,20Zm0,28.435A11.439,11.439,0,1,1,53.6,37,11.473,11.473,0,0,1,42.159,48.435Z" transform="translate(14.586 7.629)" fill="#306177"/>
  </g>
</svg>
