<svg xmlns="http://www.w3.org/2000/svg" width="117.678" height="73.205" viewBox="0 0 117.678 73.205">
  <g id="biodynamic-badge" transform="translate(-11 -23.238)">
    <path id="Path_19908" data-name="Path 19908" d="M56.654,54.335l-2.467,6.116.151,4.016-.887.034-.164-4.011-2.945-5.9.95-.036,2.4,4.908L55.7,54.379Zm-7.122,5.344a14.248,14.248,0,0,1,.087,2.166,3.988,3.988,0,0,1-.375,1.626,2.6,2.6,0,0,1-1,1.085,4.321,4.321,0,0,1-1.746.523l-2.407.28L42.937,55.4l2.4-.277a4.319,4.319,0,0,1,1.823.113,2.644,2.644,0,0,1,1.227.82,4.11,4.11,0,0,1,.746,1.5A14.707,14.707,0,0,1,49.532,59.679Zm-.893.116a10.816,10.816,0,0,0-.4-2.022,3.591,3.591,0,0,0-.645-1.244,1.9,1.9,0,0,0-.946-.589,3.435,3.435,0,0,0-1.28-.06l-1.454.172.985,8.455,1.444-.172a3.459,3.459,0,0,0,1.233-.352,1.741,1.741,0,0,0,.78-.795,3.463,3.463,0,0,0,.351-1.352A10.175,10.175,0,0,0,48.639,59.795Zm14.269,3.451-.034-.007L59.35,54.385l-1.207-.046-.351,10.025.9.027.3-8.726h.027l3.533,8.86,1.2.045.352-10.021-.9-.031ZM41.731,60.658a7.17,7.17,0,0,1-.021,4.017,2.885,2.885,0,0,1-4.639.965,7.27,7.27,0,0,1-1.608-3.689,7.371,7.371,0,0,1,.007-4.028,2.883,2.883,0,0,1,4.646-.96A7.327,7.327,0,0,1,41.731,60.658ZM41.1,62.882a10.5,10.5,0,0,0-.26-2.054,11.182,11.182,0,0,0-.575-1.982,4.451,4.451,0,0,0-.726-1.251A1.84,1.84,0,0,0,38.683,57a2.112,2.112,0,0,0-1.882.388,1.865,1.865,0,0,0-.554.89,4.628,4.628,0,0,0-.171,1.434,13.027,13.027,0,0,0,.84,4.036,4.534,4.534,0,0,0,.719,1.242,1.865,1.865,0,0,0,.862.6,2.047,2.047,0,0,0,.993.031,1.944,1.944,0,0,0,.9-.418,1.983,1.983,0,0,0,.554-.893A4.372,4.372,0,0,0,41.1,62.882ZM31.422,57.9l2.7,9.658.866-.24-2.7-9.659Zm38.267-2.785,1.772,10.3-.948-.105-.469-3-3.48-.4-1.149,2.8-.949-.108,4.114-9.609Zm.257,6.42-.876-5.782-.031-.007-2.2,5.422Zm10.735-4.4-4.306,8.155-.027-.007-.41-9.21-1.526-.341-2.184,9.781.876.2,2.006-8.959.027,0,.526,9.531.822.188,4.537-8.393.027.01-2,8.957.876.195,2.19-9.784ZM81.458,67.8l.859.274,3.025-9.56-.862-.274Zm-49.534-2.59a2.7,2.7,0,0,1-.057,2.21,3.146,3.146,0,0,1-1.86,1.448l-2.594.913-3.347-9.445,2.6-.922a3.88,3.88,0,0,1,1.233-.241,2.191,2.191,0,0,1,.957.205,1.964,1.964,0,0,1,.712.589,3.17,3.17,0,0,1,.479.921,2.4,2.4,0,0,1,.081,1.413,1.832,1.832,0,0,1-.806,1.153l.009.027a2.158,2.158,0,0,1,1.6.335A2.736,2.736,0,0,1,31.924,65.213ZM26.376,64.2l1.334-.479a2.55,2.55,0,0,0,1.465-1.014,1.7,1.7,0,0,0,.049-1.454,1.682,1.682,0,0,0-.963-1.164,2.546,2.546,0,0,0-1.615.14l-1.487.519Zm4.7,1.31c-.449-1.283-1.408-1.67-2.859-1.152l-1.583.551,1.376,3.863,1.574-.548C31.031,67.705,31.532,66.8,31.072,65.51Zm78.451,12.735,1.663,10.8-14.38-9.369L97.914,77.7c-2.874-1.2-5.766-2.269-8.774-3.244a1.886,1.886,0,0,0-.15.739l.191,2.413a6.471,6.471,0,0,1-6.3,7.005l-2.422.068a2.409,2.409,0,0,0-1.828,1.328l-.8,2.275a6.735,6.735,0,0,1-8.6,3.836l-2.249-.934a1.343,1.343,0,0,0-.517-.079,2.693,2.693,0,0,0-1.68.555l-1.674,1.759a6.485,6.485,0,0,1-9.416,0l-1.672-1.763a2.712,2.712,0,0,0-1.682-.544,1.58,1.58,0,0,0-.539.075l-2.226.931a6.6,6.6,0,0,1-8.608-3.836L38.162,86a2.463,2.463,0,0,0-1.822-1.321L33.9,84.611a6.46,6.46,0,0,1-6.3-7.009l.178-2.413a2.151,2.151,0,0,0-.3-.992,54.338,54.338,0,0,0-7.323,3.139l1.083,1.526L7.972,89.74l.48-10.917L0,76.575l12.079-9.534L8.939,61.5l1.514-.862a65.476,65.476,0,0,1,8.932-4l.07-.438a6.484,6.484,0,0,1,2.437-4.112l1.93-1.479a2.512,2.512,0,0,0,.691-2.147l-.685-2.327a6.458,6.458,0,0,1,4.7-8.155l2.361-.56A2.49,2.49,0,0,0,32.4,35.74l.322-2.411A6.41,6.41,0,0,1,40.355,27.8l2.368.445a2.333,2.333,0,0,0,2.074-.933l1.252-2.053a6.774,6.774,0,0,1,9.212-1.966l2,1.374a3.686,3.686,0,0,0,2.257-.007l1.993-1.377a6.779,6.779,0,0,1,9.219,1.962l1.26,2.067a2.463,2.463,0,0,0,1.834.939l2.614-.462a6.432,6.432,0,0,1,7.618,5.532l.314,2.411a2.5,2.5,0,0,0,1.513,1.68l2.354.56a6.461,6.461,0,0,1,4.716,8.159l-.681,2.317a2.468,2.468,0,0,0,.694,2.157l1.916,1.475A6.39,6.39,0,0,1,97.4,56.632l.021.221h.007v0c2.868,1,5.739,2.091,8.532,3.267l1.615.679-2.663,6.308,12.765,7.977ZM23.805,55.114A110.9,110.9,0,0,1,44.42,50.758c-4.495-4.729-6.945-9.563-5.48-11.028,1.545-1.542,6.831,1.227,11.8,6.206a34.931,34.931,0,0,1,3.482,4.089c.365-.014.754-.007,1.129-.014a34.4,34.4,0,0,1-.519-5.9c0-7.029,1.779-12.727,3.949-12.727,2.19,0,3.963,5.7,3.963,12.727a34.609,34.609,0,0,1-.525,5.947c.348.014.676.021,1.02.038a33.86,33.86,0,0,1,3.6-4.293c4.97-4.966,10.264-7.745,11.793-6.2,1.5,1.495-1.074,6.488-5.763,11.326a115.316,115.316,0,0,1,20.451,4.575,3.084,3.084,0,0,0-.562-.645l-1.923-1.481a5.892,5.892,0,0,1-1.924-5.933l.678-2.313a2.957,2.957,0,0,0-.26-2.354,2.926,2.926,0,0,0-1.91-1.4l-2.348-.561a5.919,5.919,0,0,1-4.161-4.625l-.321-2.411a2.922,2.922,0,0,0-3.5-2.548l-2.4.442A5.941,5.941,0,0,1,69,29.141l-1.252-2.063a3.162,3.162,0,0,0-4.244-.9l-1.991,1.373a6.244,6.244,0,0,1-6.234,0l-2-1.373a3.162,3.162,0,0,0-4.237.9l-1.259,2.06A5.961,5.961,0,0,1,42.1,31.683l-2.4-.449a2.893,2.893,0,0,0-3.5,2.551l-.323,2.408a5.907,5.907,0,0,1-4.167,4.628l-2.361.561A2.941,2.941,0,0,0,27.2,45.131l.685,2.327a5.931,5.931,0,0,1-1.918,5.922l-1.937,1.481C23.938,54.929,23.888,55.037,23.805,55.114Zm47.8-8.9-4.141,4.152c.24.021.493.046.746.067l3.8-3.812ZM58.5,41.023v8.944c.193,0,.375-.012.575-.009V41.023ZM45.965,46.336l-.409.4L49.117,50.3c.248-.021.515-.028.763-.05ZM16.5,78.217l-4.647-6.536-4.18,3.295,4.408,1.174-.258,5.9Zm69-2.752a5.18,5.18,0,0,1,.431-2.262c-3.538-.849-6.98-1.488-10.349-1.971,2.875,3.695,4.217,7.015,3.046,8.186-1.533,1.547-6.823-1.239-11.793-6.2a38.435,38.435,0,0,1-2.755-3.083c.079,0,.165-.007.236,0-.623-.037-1.242-.058-1.859-.071a35.241,35.241,0,0,1,.287,4.339c0,7.029-1.772,12.728-3.963,12.728-2.17,0-3.949-5.7-3.949-12.728a36.045,36.045,0,0,1,.281-4.373c-.589.021-1.15.048-1.725.071A38.023,38.023,0,0,1,50.74,73.09c-4.969,4.959-10.254,7.738-11.8,6.2-1.164-1.171.144-4.442,2.979-8.11-4.167.6-7.884,1.338-11.045,2.114a5,5,0,0,1,.416,2.17L31.1,77.874a3,3,0,0,0,.753,2.249A2.961,2.961,0,0,0,34,81.1l2.423.068a5.913,5.913,0,0,1,5.042,3.655l.8,2.286a3,3,0,0,0,3.962,1.759l2.233-.928a4.876,4.876,0,0,1,1.874-.349,6.084,6.084,0,0,1,4.223,1.636l1.671,1.766a3.017,3.017,0,0,0,4.331,0l1.672-1.759a6.182,6.182,0,0,1,6.092-1.294l2.238.931a3.122,3.122,0,0,0,3.959-1.762l.805-2.279A5.914,5.914,0,0,1,80.38,81.17l2.406-.068a2.963,2.963,0,0,0,2.152-.979,3.025,3.025,0,0,0,.757-2.245ZM45.968,72.687,48.2,70.449c-.308.024-.6.062-.91.086l-1.732,1.738Zm13.107,4.805v-7.5c-.2,0-.381,0-.575.007v7.5h.575Zm12.53-4.7.418-.4L70.2,70.565c-.3-.027-.6-.055-.9-.078Zm26.964.335,4.407-10.444c-2.512-1.02-5.075-1.969-7.638-2.832-35.22-12.409-65.066-3.473-73.423-.407a.807.807,0,0,1-.081.019l-.287.1a76.195,76.195,0,0,0-7.8,3.294l5.958,10.5-.144-.465c1.987-.726,5.066-1.739,8.968-2.748L28.963,70l.021.031a121.364,121.364,0,0,1,57.146-.545,2.583,2.583,0,0,1-1.212-1.677,7.207,7.207,0,0,1,.719-3.959,7.212,7.212,0,0,1,2.245-3.34,2.694,2.694,0,0,1,2.673-.256,3.129,3.129,0,0,1,1.111.722,2.524,2.524,0,0,1,.575.955,2.635,2.635,0,0,1,.1,1.1,4.114,4.114,0,0,1-.294,1.156l-.835-.339a2.644,2.644,0,0,0,.171-1.745,1.75,1.75,0,0,0-1.119-1.16,1.946,1.946,0,0,0-.976-.144,1.8,1.8,0,0,0-.958.428,4.729,4.729,0,0,0-.938,1.092,11.719,11.719,0,0,0-.927,1.852,11.347,11.347,0,0,0-.634,1.971,4.712,4.712,0,0,0-.092,1.438,1.86,1.86,0,0,0,.387.972,1.891,1.891,0,0,0,.808.579,1.724,1.724,0,0,0,1.656-.131,3.8,3.8,0,0,0,1.32-1.687l.835.342a4.449,4.449,0,0,1-1.8,2.136,2.227,2.227,0,0,1-.8.215C91.567,70.874,95.034,71.889,98.569,73.131Zm7.956,8.7-.9-5.835,4.25-1.643-4.51-2.83-3.9,7Z" transform="translate(11 1)" fill="#306177"/>
  </g>
</svg>
