<svg xmlns="http://www.w3.org/2000/svg" xmlns:xlink="http://www.w3.org/1999/xlink" width="188.713" height="195.846" viewBox="0 0 188.713 195.846">
  <defs>
    <clipPath id="clip-path">
      <rect id="Rectangle_3604" data-name="Rectangle 3604" width="188.713" height="195.846" transform="translate(0 0)" fill="#fff"/>
    </clipPath>
  </defs>
  <g id="Group_12615" data-name="Group 12615" transform="translate(0 0.002)">
    <g id="Group_12471" data-name="Group 12471" transform="translate(0 -0.002)" clip-path="url(#clip-path)">
      <path id="Path_19809" data-name="Path 19809" d="M63.868,79.67c-.011-.14.027-.312-.039-.416-.736-1.16-1.358-2.393-2.132-3.522a15.35,15.35,0,0,1-1.162-1.786c-.637-1.283-1.666-2.3-2.341-3.551a15.46,15.46,0,0,1-1.551-2.53,3.268,3.268,0,0,1-.734-.849c-.277-.432-.645-.805-.939-1.228a14.762,14.762,0,0,0-.9-1.28c-.431-.5-.707-1.114-1.091-1.659-1.014-1.438-2.232-2.7-3.322-4.075-.472-.594-.955-1.18-1.43-1.772a9.15,9.15,0,0,1-1.381-1.629c-.039-.081-.133-.134-.2-.2-1.5-1.578-2.776-3.346-4.25-4.95-.673-.732-1.375-1.448-2-2.226-.3-.37-.6-.738-.912-1.12l-1.1-.438c-.785-.164-1.417.489-1.831.332-.515-.181-.642-.312-.712-.5.046-.635.623-.619,1.015-.824a.893.893,0,0,0,.022-.82c-.356.039-.715.066-1.069.121-.323.049-.641.128-.959.193a1.293,1.293,0,0,1-.638-.534c-.048-.245.131-.339.3-.491l.8-.14c.323-.269.2-.588.157-.909-.371.065-.684.121-1,.173s-.652.1-1.011.161c-.309-.2-.8-.08-1.091-.411.031-.14.022-.254.075-.307.265-.271.56-.514.818-.791a.469.469,0,0,0,.129-.538,2.927,2.927,0,0,0-1.049-.048,3.27,3.27,0,0,1-1.1-.038,3.986,3.986,0,0,0-1.05-.109c-.279-.181-.462-.328-.376-.63.392-.395.93-.25,1.416-.345a.981.981,0,0,0,.214-1.17c-.423-.216-.674.279-1.064.221a1.2,1.2,0,0,0-1.079.255,4.828,4.828,0,0,0-.565-.205c-.231-.052-.472-.059-.705-.105a.609.609,0,0,1-.436-.355c.038-.368.342-.519.658-.728a3.337,3.337,0,0,0,1.44.075,1.117,1.117,0,0,0,.017-.876c-.307-.051-.429.274-.661.358a2.562,2.562,0,0,1-1.107-.033c-.342-.031-.731.175-1.107.1-.415-.08-.82-.215-1.221-.324-.032-.376.282-.463.532-.7l1.17-.1c.1-.361-.105-.566-.247-.8l-.614.5c-1.171.248-2.124-.471-3.205-.894l.267-.67c.535-.3,1.014.11,1.519.1.048-.363.048-.363-.4-1.078a.771.771,0,0,1,.383-.831c.119.025.231.016.3.067a3.33,3.33,0,0,1,1.051,1.151,2.353,2.353,0,0,0,.377.446l.346-.517h.439L28.7,36.25a.979.979,0,0,0,.846.151l.4-.5c.2.009.215.026.866.891a5.6,5.6,0,0,0,.575,1.513,2.277,2.277,0,0,1,.762-1.2,1.455,1.455,0,0,1,.489,1.214,2.217,2.217,0,0,0,.435,1.458c.242-.288.047-.81.605-.961a4.028,4.028,0,0,1,.751,2.559c.051.069.076.136.109.141.18.026.362.037.444.045.578-.239.388-.824.76-1.136.441.1.365.586.581.849a3.47,3.47,0,0,0,.519,2c.511.008.3-.528.566-.745a.41.41,0,0,1,.5-.052c.037.06.125.137.13.219.032.523.048,1.047.065,1.571a.878.878,0,0,0,.282.644c.118.09.253.071.445-.008l.5-.922.316-.078c.057.068.154.131.164.206a12.78,12.78,0,0,0,.014,2.081,5.11,5.11,0,0,1,1.291,1.369,1.828,1.828,0,0,0,.376.429,14.67,14.67,0,0,1,2.4,2.592c.984.622,1.447,1.736,2.323,2.466a8,8,0,0,1,.824.978c.28.324.56.652.866.951A9.585,9.585,0,0,1,49.5,56.791a9.857,9.857,0,0,0,1.332,1.638,25.937,25.937,0,0,1,3.159,4.031c.819.748,1.145,1.838,1.861,2.668.648.751,1.2,1.589,1.788,2.386.2-.057.147-.2.1-.306a23.4,23.4,0,0,1-1.091-2.918,17.955,17.955,0,0,1-.49-1.917,5.013,5.013,0,0,0-.55-1.545,8.68,8.68,0,0,0-.414-2.579,15.3,15.3,0,0,1-.246-2.648,43.928,43.928,0,0,0-2.653-5.075,1.222,1.222,0,0,1-.143-.246,9.9,9.9,0,0,0-1.1-2.306,14.634,14.634,0,0,1-1.1-2.295c-.38-.8-.629-1.68-.975-2.51a9.594,9.594,0,0,0-.707-1.7,3.291,3.291,0,0,1-.26-.981l-.6-.15c-.366-.414-.448-1.081-.982-1.465-.144-.1-.142-.41-.208-.624l.688-.266-.036-.3-.92-.483a.562.562,0,0,1-.058-.63l.443-.308c0-.147-.027-.293-.174-.35-.353-.137-.723-.234-1.067-.39a1.51,1.51,0,0,1-.373-.337.644.644,0,0,1,.182-.575c.207-.253.546-.151.845-.3l-.412-.6-1.1-.49a.65.65,0,0,1-.117-.628l.445-.337a.876.876,0,0,0-.024-.708c-.093-.078-.188-.217-.31-.247a1.4,1.4,0,0,1-.862-.692c-.006-.45.409-.455.667-.576v-.371c-.675-.281-1.469-.407-1.876-1.145a.61.61,0,0,1,.3-.6c.221-.193.587.039.77-.266.055-.32-.219-.509-.342-.848a2.032,2.032,0,0,1-1.333-.88.783.783,0,0,1,.142-.736l.67-.389-1.337-1.337.222-.621c.16-.239.534-.12.546-.409,0-.095.02-.16,0-.184-.426-.449-.858-.893-1.33-1.381l.214-.643c.206-.247.539-.123.783-.217,0-.14.037-.277-.006-.311a5.184,5.184,0,0,1-1.095-1.277v-.452l.5-.286c.144-.408-.366-.786-.078-1.208.139-.194.325-.143.549-.088l.308.433c.475-.114.59-.576.843-.893.22.027.336.16.441.4a10.764,10.764,0,0,1-.544,2c.175.506.592.177.772.43.021.088.085.194.056.259a2.477,2.477,0,0,0-.239,1.382c-.109.017-.3-.03-.152.19l.113-.231c.312-.074.563-.383,1.007-.209.118.048.017.184,0,.315a1.22,1.22,0,0,0,.069.333,8.916,8.916,0,0,0-.877,2.507c.49-.4.577-.919,1.072-.863.051.074.14.145.145.221.017.284.007.571.007.845-.113.548-.683.948-.5,1.586.287.051.216-.258.355-.295.233-.139.445-.219.647,0,.025.092.088.194.065.269-.163.54-.345,1.075-.518,1.612-.058.18-.039.292.1.8.343-.137.38-.532.639-.757h.3l.269.969a6.53,6.53,0,0,0-.721,1.624l.292.359c.208.046.023.177.128.025.241-.35.418-.751.9-.953a4.883,4.883,0,0,1-.365,2.725l.265.549.564-.935c.159-.033.253.054.329.185.1.835-.636,1.57-.333,2.519l.575-.746.356.021a1.514,1.514,0,0,1-.021,1.358,2.151,2.151,0,0,0-.039,1.673c.724-1.042.724-1.042,1.281-.986a7.4,7.4,0,0,1-.809,2.176c.233.453.524.045.762.139a.893.893,0,0,1-.022.944,1.183,1.183,0,0,0-.111,1.1c.331.639.394,1.354.658,1.995a80.5,80.5,0,0,0,3.859,8.687c.363.651.684,1.325,1.031,1.986.013.025.09.016.137.022.038.078-.039.306.184.139l-.212-.111c.01-.761.013-1.521.032-2.282a4.792,4.792,0,0,1,.229-2.043l-.2-.5c.545-1.07-.051-2.335.491-3.446a11.045,11.045,0,0,1,.379-2.663,24.528,24.528,0,0,1,.924-3.7c.612-2.085,1.479-4.072,2.259-6.09a20.138,20.138,0,0,1,1.3-2.356,20.789,20.789,0,0,1,2.1-3.044l-.251-.675a.755.755,0,0,1,.682-.429,1.111,1.111,0,0,0,.909-.845l-.12-.506a2.344,2.344,0,0,1,.821-1.119c.359.122.08.542.357.7h.252c.316-.34-.231-.669-.028-.925.261-.331-.263-.643.084-.951l.4-.059c.374.316.613.857,1.29.78.4-.34-.052-.722-.071-1.113a.539.539,0,0,1,.431-.492c.444.026.305.716.793.7.393-.418-.032-.922.287-1.6l.16-.184c.382-.017.461.365.821.424l.2-.032c.22-.376-.073-.85.205-1.221.2-.148.341-.084.443.114.064.124.105.262.286.254.071-.046.194-.08.211-.143a2.022,2.022,0,0,1,.522-1.114c.337-.011.394.594.854.361l-.116-.629a.808.808,0,0,1,.364-.6c.43,0,.4.458.626.669l.392-.292.094-.827a.46.46,0,0,1,.472-.234c.308,0,.278.354.493.465.492-.277.505-.895.881-1.265H74.9c.3.379.033.851.267,1.293l.845.194a.607.607,0,0,1,.08.611c-.346.306-.912.185-1.238.569l.1.329a3.139,3.139,0,0,1-1.575.268c-.1.2.038.355.112.54l-.227.29c-.336.211-.562-.094-.833-.108s-.57-.009-.855-.012a.729.729,0,0,0-.437-.495c-.157.087-.329.158-.319.426a1.314,1.314,0,0,0,.8.023c-.01.313.365.252.455.469l-.037.3-1.439.471c-.011.251.27.2.34.384l-.268.364-1.665.056c-.091-.275-.245-.345-.487-.156.143.18.331.138.512.127-.078.367.364.4.434.7-.134.256-.39.124-.591.153a6.048,6.048,0,0,1-.714.036c-.233.005-.466,0-.741,0,.037.346.336.275.477.4a4.6,4.6,0,0,0,.457.315l-.024.343a4.368,4.368,0,0,1-1.393.062,2.553,2.553,0,0,1-1.247-.189c-.037.449-.037.449.633.944-.154.415-.7.3-.9.669l-.663-.146-.123.847a2.991,2.991,0,0,1-1.227.54c-.563.282-.694.841-1.03,1.237a17.067,17.067,0,0,0-1.366,1.822A24.656,24.656,0,0,0,58.4,34.29c-.107.312-.237.616-.361.922a36.653,36.653,0,0,0-1.368,4.915,36.426,36.426,0,0,1-.718,3.613,2.847,2.847,0,0,0-.071.846,16.319,16.319,0,0,1-.118,2.854,18.7,18.7,0,0,0-.182,3.4,8.287,8.287,0,0,0,.168,2.122,13.4,13.4,0,0,1,.112,2.453c.614.883.915,1.95,1.537,2.863a6.79,6.79,0,0,1,.683,1.711,3.119,3.119,0,0,0,.808,1.348c.029-.218.1-.377.056-.491A6.289,6.289,0,0,1,58.7,58.3a8.2,8.2,0,0,1,.209-2.549c.216-.619.011-1.334.349-1.945a27.733,27.733,0,0,1,1.8-6.1c.489-1.175.911-2.378,1.357-3.572a7.933,7.933,0,0,1,.927-1.91,1.156,1.156,0,0,0,.226-.515,7.765,7.765,0,0,1,.816-2.262,9.4,9.4,0,0,0,.934-3.256,4.829,4.829,0,0,0,.276-1.821,7.779,7.779,0,0,1,.631-2.4.6.6,0,0,1,.582-.113c.468.509.437,1.23.767,1.731v2.2a4.65,4.65,0,0,0-.607,1.912,2.9,2.9,0,0,1-.266.8,39.624,39.624,0,0,0-1.4,5.344,6.357,6.357,0,0,0-.32,1.814,1.9,1.9,0,0,1-.135.545c-.476,1.973-1.176,3.886-1.573,5.881a1.337,1.337,0,0,1-.133.4,7.368,7.368,0,0,0-.622,2.27,42.716,42.716,0,0,0-.787,4.888c-.041.451.166.924-.134,1.352a4.96,4.96,0,0,1,.25,2.045c.211.754.393,1.44.6,2.118a2.654,2.654,0,0,0,.366.91c.527.647.581,1.495,1.007,2.176a3.638,3.638,0,0,0,.5,1.469c.712,1.8,1.454,3.593,2.109,5.418a20.007,20.007,0,0,0,1.185,3.033c.461.825.828,1.695,1.3,2.515.778,1.348,1.427,2.774,2.072,4.194a23.642,23.642,0,0,0,1.692,3.291,4.814,4.814,0,0,1,.343.625,19.667,19.667,0,0,0,1.484,2.751,7.514,7.514,0,0,1,.519,1.011c.138.293.309.562.437.835.163-.052.3-.058.322-.109q.567-1.528,1.1-3.066a7.5,7.5,0,0,0,.176-.756c-.54-.857-.645-1.92-1.113-2.862s-.773-1.934-1.2-2.883a11.525,11.525,0,0,0-.789-1.963,9.7,9.7,0,0,1-.846-1.939c-.26-.66-.486-1.333-.738-2a16.285,16.285,0,0,0-.951-2.221,7.308,7.308,0,0,1-.461-1.186c-.357-1.026-.828-2.012-1.223-3.027-.549-1.412-1.057-2.839-1.605-4.251a37.65,37.65,0,0,1-1.058-4.1,1.13,1.13,0,0,1,0-.568c.317-1.125.13-2.382.89-3.39a6.771,6.771,0,0,1,.736-2.41,10.639,10.639,0,0,0,.907-1.4,17.5,17.5,0,0,1,1.676-2.295c.323-.412.7-.783,1.064-1.189a6.69,6.69,0,0,1,1.12-2.1A11.851,11.851,0,0,0,75.1,45.922c.139-.634.315-1.259.433-1.9a13.182,13.182,0,0,0,.09-1.838c.114-.318.171-.654.488-.837.089.026.223.026.253.082a2.361,2.361,0,0,1,.341.77,25.227,25.227,0,0,1,.371,4.524c-.05.855-.009,1.714-.009,2.479-.2.579-.416,1.059-.541,1.561a11.3,11.3,0,0,1-1.218,2.871,12.52,12.52,0,0,1-1.564,2.011,6.492,6.492,0,0,0-1.258,1.716,8.554,8.554,0,0,0-.624,2.893c-.015.284,0,.571-.025.853a1.5,1.5,0,0,1-.153.389,1.554,1.554,0,0,1-.047,1.515,6.986,6.986,0,0,1,.2.812c.037.282.009.572.022.857a10.374,10.374,0,0,0,.152,2.269,11.207,11.207,0,0,0,.36,2.091c.194.4-.006.944.251,1.292l-.127.552c.009.133,0,.19.018.226a15.161,15.161,0,0,1,.869,2.99c.34.978.606,1.981.9,2.974.107.36.187.729.315,1.081a5.59,5.59,0,0,0,.464,1.04c.241.391.161.844.306,1.235.461,1.247.541,2.593,1.062,3.825.312.736.505,1.522.773,2.279.04.112.194.183.3.279.051-.106.134-.195.125-.273a5.29,5.29,0,0,1,.567-2.612,9.44,9.44,0,0,1,1.181-2.258A12.57,12.57,0,0,0,80.494,79.4c.349-.726.741-1.433,1.056-2.174a6.261,6.261,0,0,1,.828-1.323,8.077,8.077,0,0,1,.923-2.2c.361-.492.557-1.1.888-1.62a12.7,12.7,0,0,1,3.753-4.046c.516-.331.972-.756,1.481-1.159a6.144,6.144,0,0,0,2.384-.811,9.883,9.883,0,0,1,1.842-.707c.316-.095.629-.2.945-.3s.631-.2.953-.266c.277-.056.548-.115.822-.2,1.492-.445,3-.843,4.5-1.26.272-.075.547-.144.811-.242,1.816-.678,3.721-1.095,5.5-1.889.044-.019.084-.061.127-.064,1.54-.108,2.843-1.021,4.348-1.274a7.544,7.544,0,0,0,1.622-.7,12.632,12.632,0,0,0,.752-2.077,4.612,4.612,0,0,1,.847-2.077,5.386,5.386,0,0,1,2.511-2.137,11.732,11.732,0,0,0,.383-3.258c-.568-.989-1.087-1.95-1.665-2.873a7.132,7.132,0,0,1-.693-1.391c-.287-.8-.662-1.573-.963-2.37a5.01,5.01,0,0,1-.471-2.06l-1.555-1.057c-.2-.63-.856-1.03-.8-1.7l-.934-.887a1.168,1.168,0,0,1-.1-.218c-.1-.8-.236-1.594-.292-2.4a14.97,14.97,0,0,1,.012-2c.039-.61.159-1.215.23-1.823a7.064,7.064,0,0,1,.264-1.823,1.018,1.018,0,0,0-.088-1.078c-.327.079-.445.321-.543.607a4.683,4.683,0,0,1-.333.641c-.122-.1-.272-.166-.332-.28a5.4,5.4,0,0,1-.708-2.863,24.715,24.715,0,0,1,.611-3.7,4.405,4.405,0,0,1-.621-1.814,3,3,0,0,0-.3-.941,8.48,8.48,0,0,1-.853-3.276c0-.13-.113-.259-.18-.4.077-.306.178-.619.233-.94A9.919,9.919,0,0,1,109,10.829a5.417,5.417,0,0,1,1.831-2.654c.455-.487.939-.948,1.423-1.407a7.371,7.371,0,0,1,.775-.631,14.813,14.813,0,0,0,1.282-.882A12.454,12.454,0,0,1,118.713,3c.755-.262,1.534-.455,2.3-.675a9.3,9.3,0,0,1,1.53-.309c.7-.079,1.4-.223,2.094-.359.567-.112,1.126-.133,1.69-.187a5.457,5.457,0,0,0,1.547-.193,1.679,1.679,0,0,1,1.247.116,2.825,2.825,0,0,1,1.68-.107,6.919,6.919,0,0,0,2.4.176c.037.082-.012.293.191.126l-.215-.1c.128-.445-.427-.771-.188-1.267a.522.522,0,0,1,.458-.2,13.674,13.674,0,0,1,4.22.565L138.35,0a13.438,13.438,0,0,1,2.589,1.018,8.042,8.042,0,0,1,2.22,1.6c.56-.1.18-.552.392-.646.181-.249.376-.218.623-.21a5.8,5.8,0,0,1,1.468,1.627.576.576,0,0,0,.373-.441L145.9,2.4l.321-.294,1.067.743c.091.15.2.307.287.475.35.674.694,1.351,1.023,1.993l.132,1.18c.1,0,.189.019.242-.016a2.171,2.171,0,0,0,.6-.785c.117-.2.219-.428.49-.493.472-.008.543.465.844.647a7.136,7.136,0,0,1-.165,3.01,9.576,9.576,0,0,0-.229,1.784,21.287,21.287,0,0,1,2.465,5.6l-.69,1.631a15.773,15.773,0,0,1,2.619,5.785,12.544,12.544,0,0,1-1.118,3.139,19.968,19.968,0,0,1-1.446,2.919c-.591.929-.879,2-1.412,3.04a12.12,12.12,0,0,1,.359,3.023,7.524,7.524,0,0,1-.469,3.168l-.913,1.074-1.366.62a8.611,8.611,0,0,1-1.248,2.824A1.616,1.616,0,0,0,147,44.1a3.54,3.54,0,0,1-.834,1.613c-.061.218.065.374.145.538-.227.273-.7.263-.766.718.033.417.68.325.684.784a.511.511,0,0,1-.534.042c-.128-.041-.25-.1-.356-.146l-.471.254-1.576,2.16a31.971,31.971,0,0,1-.226,3.432,2.6,2.6,0,0,0,1.079,1.3,18.153,18.153,0,0,1,2.329,4.781c1.056.29,2.021.887,3.093,1.259.981.341,1.907.839,2.856,1.27.216.1.425.285.643.293a5.705,5.705,0,0,1,2.108.793,6.368,6.368,0,0,1,1.915.91c.755.119,1.369.62,2.141.747a7.836,7.836,0,0,1,1.567.664c1.308.538,2.63,1.044,3.929,1.6a9.066,9.066,0,0,1,1.92.879,1.357,1.357,0,0,0,.383.18,12.346,12.346,0,0,1,2.375.895,21.122,21.122,0,0,0,2.2.982,5.761,5.761,0,0,1,1.245.665c1.017.772,2.045,1.53,3.093,2.26a6.559,6.559,0,0,1,1.275,1.314,8.444,8.444,0,0,1,1.822,4.361,9.887,9.887,0,0,0,.275,1.24,9.913,9.913,0,0,1,.287,3.107,8.056,8.056,0,0,0,.37,2.511,19.463,19.463,0,0,0,.5,2.644c-.113.543.227,1.012.253,1.528.024.478.168.932.235,1.393a17.221,17.221,0,0,0,.58,2.918.851.851,0,0,1-.123.681,5.772,5.772,0,0,1,.472,2.208c.431.978.074,2.082.5,3.072a2.884,2.884,0,0,1,.055.994,3.219,3.219,0,0,0,.193,1.4.364.364,0,0,1,.047.135,18.829,18.829,0,0,0,.507,3.943c.05.183-.173.432-.1.676.134.453.278.9.4,1.29-.173.725.216,1.347.127,2.009s.494,1.242.31,1.926a8.417,8.417,0,0,1,1.085,2.027c.124,2.257.077,2.5-.732,3.891.066.693.145,1.333.183,1.975a17.376,17.376,0,0,0,.266,2.1,11.154,11.154,0,0,1,.025,1.982l.534,1.173a2.755,2.755,0,0,1-.213,1.754,4.2,4.2,0,0,0,.606,1.514,8.156,8.156,0,0,1,.687,1.712c.4,1.656,1.1,3.208,1.654,4.809a11.746,11.746,0,0,1,.645,2.563,3.5,3.5,0,0,1-.075,1.544c-.209.628-.044,1.333-.374,1.949-.132.247-.181.538-.312.784-.355.664-.743,1.311-1.1,1.974a2.012,2.012,0,0,0-.338,1.074,1.8,1.8,0,0,1-.138.688,10.821,10.821,0,0,0-.484,2.064,8.018,8.018,0,0,1-1.491,3.647,9.408,9.408,0,0,1-2.276,2.327,61.127,61.127,0,0,1-5.829,4.575c-.812.647-1.763,1.116-2.624,1.7a24.282,24.282,0,0,1-3.571,2.066,1.419,1.419,0,0,0-.708.7,3.171,3.171,0,0,1,.181.813c-.052,1.241.3,2.447.292,3.681a.918.918,0,0,1-.107.281,4.958,4.958,0,0,1,.336,1.875c-.06.673.188,1.3.124,1.954a2.758,2.758,0,0,0,.171,1.4,1.985,1.985,0,0,1,.062.706c.018.572.033,1.145.039,1.717,0,.429-.026.859,0,1.287.021.4.391.772.13,1.21.371.852-.029,1.815.38,2.662a8.565,8.565,0,0,0,.064,1.953,10.1,10.1,0,0,0,.143,2.1,14.944,14.944,0,0,1,.136,1.689,7.781,7.781,0,0,0,.248,2.541c-.067.8.119,1.61-.015,2.365a1.09,1.09,0,0,1-.912.227l-.33-.288c-.049-.114-.086-.159-.083-.2.052-.911-.253-1.783-.283-2.684-.023-.715.017-1.435-.057-2.144a29.739,29.739,0,0,1-.292-3.971,11.489,11.489,0,0,1-.294-3.107,2.08,2.08,0,0,0-.086-.7,3.582,3.582,0,0,1-.153-1.409,7.445,7.445,0,0,0-.211-2.262,2.993,2.993,0,0,1-.072-.849,19.657,19.657,0,0,0-.232-3.121,19,19,0,0,1-.1-2.709,7.548,7.548,0,0,0-.177-1.693,6.475,6.475,0,0,1-.07-1.707,1.709,1.709,0,0,0-.131-.842.478.478,0,0,0-.637.009,10.032,10.032,0,0,1-2.157,1.085c-.523.21-.978.582-1.488.832-1.193.585-2.339,1.259-3.546,1.818-1.164.539-2.3,1.135-3.454,1.7a3.505,3.505,0,0,1-.375.138c-2.026-.581-4.495-1.968-5.366-3.355a2.34,2.34,0,0,0-.691.01c-1,.317-2.045.371-3.06.6-.435.1-.894.058-1.345.176a10.238,10.238,0,0,1-1.282.063c-.7.087-1.405.193-2.1.343-1.2.26-2.36.654-3.561.911-.47.1-.946.1-1.4.209A23.74,23.74,0,0,0,131.894,170a12.521,12.521,0,0,0-1.939,1.188,25.955,25.955,0,0,1-2.406,1.518c-.283.171-.608.277-.881.462a6.894,6.894,0,0,1-3.184,1.091.782.782,0,0,0-.244.129c-.007.047-.038.108-.019.14,1.563,2.612,3.523,4.945,5.25,7.442,1.21,1.749,2.561,3.4,3.863,5.086.079.1.232.151.275.413-.138.528-.65.455-1.01.525a1.65,1.65,0,0,1-.929-.773,13.051,13.051,0,0,1-.886-1.464,2.654,2.654,0,0,0-.577-.8,7.554,7.554,0,0,1-1.163-1.614c-.253-.4-.494-.8-.772-1.187-1.691-2.343-3.248-4.775-4.758-7.238a2.54,2.54,0,0,0-.276-.32,1.723,1.723,0,0,0-1.4.055c.546.906,1.024,1.713,1.516,2.512q1.083,1.761,2.183,3.511c.553.882,1.194,1.706,1.671,2.642.277.545.885.875,1.132,1.46a5.725,5.725,0,0,0,.6.941c.451.672.99,1.266,1.5,1.88l-.03.434a1.406,1.406,0,0,1-1.16.225,4.132,4.132,0,0,1-.688-.629c-.853-1.2-1.648-2.434-2.521-3.614a14.7,14.7,0,0,0-1-1.707,8.463,8.463,0,0,1-1.077-1.673c-.331-.577-.608-1.185-.934-1.765-.673-1.2-1.352-2.393-2.052-3.576a4.919,4.919,0,0,0-.593-.7.682.682,0,0,0-.709.2.655.655,0,0,0-.116.519c.915,2.051,2.224,3.866,3.164,5.828a.862.862,0,0,1-1,.453,14.922,14.922,0,0,1-1.66-3.007c-.548-1.04-1.034-2.113-1.549-3.175a1.7,1.7,0,0,0-.889.363.682.682,0,0,0,.116.667,21.81,21.81,0,0,1,2.027,3.578c.933,1.875,2.222,3.53,3.151,5.4a1.764,1.764,0,0,0,.263.338c.931,1.086,1.452,2.444,2.372,3.461-.076.573-.466.76-.725.99a.908.908,0,0,1-.234-.037c-.08-.05-.191-.1-.22-.175-.289-.772-1.021-1.22-1.379-1.965-.47-.978-1.106-1.874-1.658-2.813-.336-.572-.648-1.158-.975-1.735a15.964,15.964,0,0,1-.909-1.611c-.7-1.662-1.708-3.162-2.45-4.8a.79.79,0,0,0-.46-.512.885.885,0,0,0-.005.944,69.559,69.559,0,0,0,3,6.6c.477.869.952,1.739,1.449,2.646a.7.7,0,0,1-.876.651c-1.058-.786-1.22-2.189-2.074-3.137-.249.294.013.482.046.7a.816.816,0,0,1-.863.363c-.078-.052-.2-.086-.229-.159-.317-.735-.721-1.426-1.058-2.152-.641-1.381-1.036-2.852-1.661-4.234-.116-.257-.033-.582-.283-.786l-.309.05c-.032.116-.119.257-.1.377a8.572,8.572,0,0,0,.306,1.24,31,31,0,0,1,1.122,3.952,1.691,1.691,0,0,0,.1.258c.676,1.714,1.108,3.507,1.693,5.248a46.663,46.663,0,0,0,1.855,5.094,3.823,3.823,0,0,1,.054,1.252c-.287.276-.689.219-1.021.376a6.869,6.869,0,0,1-.85-2.26c-.352-1.18-.805-2.319-1.2-3.482-.227-.672-.391-1.365-.612-2.04-.382-1.167-.619-2.375-.968-3.545-.269-.9-.542-1.811-.853-2.7-.161-.462-.155-.94-.3-1.388a3.271,3.271,0,0,1-.371-1.317c.006-.066-.111-.143-.217-.269a17.517,17.517,0,0,0-1.6.8c-.563.254-1.117.53-1.694.806h-1.205c-.671-.276-1.494-.439-1.943-1.338a3.648,3.648,0,0,1,1.572-3.172c-.067-.481-.435-.551-.711-.777l-.592-1.173a5.8,5.8,0,0,1,.275-2.205,3.941,3.941,0,0,0-.763-.647,2.56,2.56,0,0,1-1.194-1.365c-.236-.516-.419-1.057-.553-1.4-.15-.632.368-.967.152-1.416-.132-.161-.253,0-.386,0a3.366,3.366,0,0,1-1.354-1.021c-1.291.022-2.189-.838-3.246-1.44a4.344,4.344,0,0,1-.97-1.51A2.537,2.537,0,0,1,98,160.526a7.748,7.748,0,0,1,2.255-.022l1,.442c.113-.074.226-.108.266-.18a7.035,7.035,0,0,1,1.769-2.17c-.075-.361-.479-.455-.631-.794a6.161,6.161,0,0,0-1.021-2.107,2.393,2.393,0,0,1-.28-.638c-.393-.858-.716-1.745-1.187-2.573a5.252,5.252,0,0,1-.851-2.221l-.626-.713a33.669,33.669,0,0,1-4.108-.013l-2.516-1.014c-.429,1.621-.847,3.254-1.3,4.878a17.939,17.939,0,0,1-.729,2.148c-.313.743-.685,1.075-1.8,1.873-.113.907-.223,1.878-.359,2.845a12.778,12.778,0,0,1-.334,1.8,4.542,4.542,0,0,0-.169.974,16.086,16.086,0,0,1-.28,2.244,8.548,8.548,0,0,1-.294,2.1,22.693,22.693,0,0,1-.462,3.636c-.065.5.149,1.009-.114,1.484.106,1.247-.463,2.433-.335,3.682-.27.767-.22,1.591-.414,2.371a1.28,1.28,0,0,0-.087.268,34.182,34.182,0,0,1-.592,4.363,26,26,0,0,0-.373,4.116.73.73,0,0,1-.1.255c-.081.043-.163.123-.244.123-.281,0-.561-.033-.86-.055a20.853,20.853,0,0,1,.339-3.093,2.381,2.381,0,0,1-.15-.84c.112-.537-.106-1.124.249-1.618.207-1.063.411-2.126.624-3.187a2.194,2.194,0,0,1,.149-.379l-.176-.687a16.832,16.832,0,0,0,.534-3.372,1.829,1.829,0,0,1,.1-.7,3.542,3.542,0,0,0,.184-1.407,1.415,1.415,0,0,1,.028-.567,6.406,6.406,0,0,0,.263-2.538A9.558,9.558,0,0,1,85.719,167a5.135,5.135,0,0,0,.219-1.532,2.963,2.963,0,0,1,.274-1.8c.05-1.363.543-2.659.611-4.019a3.721,3.721,0,0,1,.166-.83,2.009,2.009,0,0,0,.07-1.08c-.332-.52-.91-.29-1.421-.577a5.156,5.156,0,0,0-1.279-1.547c-.54-.385-1.044-.825-1.6-1.176a4.084,4.084,0,0,1-.779-.8l-.425-.1a1.24,1.24,0,0,1-.228-.166c-.657-.749-1.571-1.258-2.041-2.18a13.114,13.114,0,0,1-1.619-1.392,10.166,10.166,0,0,1-1.776-2c-.511-.675-1.035-1.341-1.555-2.01a14.376,14.376,0,0,1-2.413-3.723c-.018-.55-.065-1.17-.051-1.788a5.906,5.906,0,0,0-.82-3.1c-.745-1.32-1.47-2.653-2.1-4.036a6,6,0,0,0-.465-.73,2.367,2.367,0,0,1,.011-.712,8.1,8.1,0,0,0,.251-2.4,3.057,3.057,0,0,1,.075-.993,5.747,5.747,0,0,0,.186-2.114c.014-1.24,0-2.48,0-3.72,0-.282.051-.563.075-.809l.264-.2c.124-.037.107-.109.114-.2.036-.509.1-1.016.163-1.6l1.325-1.668c.22-1.4.413-2.855.7-4.291a5.219,5.219,0,0,0,.217-1.1,11.51,11.51,0,0,0-.053-2.47,11.526,11.526,0,0,1-2.521.242c-.8.348-1.611.64-2.362,1.038-.594.315-1.3.252-1.861.673a14.639,14.639,0,0,1-1.7.951,2.845,2.845,0,0,1-1.157,1.3c-.861.528-1.435,1.386-2.307,1.885a1.67,1.67,0,0,1-1,.746c-.283.6-.921.792-1.364,1.207a18.548,18.548,0,0,1-2.014,1.33,1.277,1.277,0,0,1-1.206.185c-.192-.145-.167-.336-.14-.593a5.041,5.041,0,0,1,.526-.594,16.517,16.517,0,0,0,2.041-2.155,3.934,3.934,0,0,1,.407-.378c.246-.225.506-.436.736-.677a30.929,30.929,0,0,1,5.035-4.526c.339-.259.631-.58,1-.929a12.157,12.157,0,0,0,2.019-1.181,4.167,4.167,0,0,1,1.687-.708,7.124,7.124,0,0,0,1.395-.495,12.013,12.013,0,0,0,1.647-.016c.587-.079,1.068.437,1.636.249.063-.105.157-.189.148-.258-.119-.921.417-1.753.357-2.663a6.666,6.666,0,0,0,.276-1.748,10.692,10.692,0,0,0-2.062-3.153c-1.09-1.257-2.007-2.641-3.039-3.939a2.362,2.362,0,0,1-.208-.438,8.237,8.237,0,0,1-1.3-1.219,35.719,35.719,0,0,0-2.585-2.665,16.88,16.88,0,0,0-1.917-1.7c-1-.72-1.92-1.556-2.9-2.3a13.519,13.519,0,0,0-4.054-2.325,8.491,8.491,0,0,0-3.086-.42,4.2,4.2,0,0,0-2.973,1.71,21.326,21.326,0,0,0-2.552,5.045c-.27.755-.657,1.47-.9,2.232-.456,1.439-1.081,2.816-1.431,4.3-.3,1.285-.816,2.521-1.235,3.779-.21.63-.441,1.254-.625,1.891a15.553,15.553,0,0,1-1.852,4.121,5.788,5.788,0,0,0-.3.638,1.841,1.841,0,0,1-.812.865c-.239-.08-.283-.205-.262-.351a14.393,14.393,0,0,1,.425-2.6,2.813,2.813,0,0,0,.084-.556,25.629,25.629,0,0,1,1.045-5.417,1.074,1.074,0,0,0,.093-.413,13.628,13.628,0,0,1,.271-2.537,15.139,15.139,0,0,1,.574-2.775,3.967,3.967,0,0,0,.326-1.377,1.812,1.812,0,0,1,.218-.668,6.464,6.464,0,0,0,.368-.925c.127-.585.333-1.146.443-1.741a5.8,5.8,0,0,1,.856-1.625c.306-.535.625-1.062.935-1.595.048-.082.076-.174.118-.259a7.777,7.777,0,0,1,3.169-3.373,5.488,5.488,0,0,0,.76-.629c.548-.117,1.153.017,1.659-.333a8.486,8.486,0,0,1,3.106.2,8.371,8.371,0,0,1,2.97,1.634A6.507,6.507,0,0,0,57.689,85a26.235,26.235,0,0,1,4.2,3.178c.98.822,1.87,1.743,2.835,2.584a48.642,48.642,0,0,1,3.967,4.3c1.242,1.377,2.256,2.928,3.4,4.376a14.354,14.354,0,0,1,1.069,1.62.421.421,0,0,0,.582.009c.134-.124.1-.321.109-.546a36.365,36.365,0,0,0-2.665-4c-.446-.553-.706-1.224-1.16-1.789a28.138,28.138,0,0,1-1.56-2.38,3.786,3.786,0,0,0-.579-.809,20.113,20.113,0,0,1-1.635-1.981c-.878-1-1.7-2.047-2.557-3.059a18.466,18.466,0,0,0-3.061-3.168.749.749,0,0,1-.174-.22,18.282,18.282,0,0,0-3.649-3.751c-.959-.454-1.457-1.481-2.422-1.942a1.635,1.635,0,0,1-.6-.606,5.172,5.172,0,0,0-1.471-1.314c-.54-.39-1.026-.842-1.536-1.224A6.859,6.859,0,0,0,48,74.726a4.954,4.954,0,0,1-1.856.672,37.188,37.188,0,0,0-10.685,7.945c-.165.01-.3.025-.443.024-.156,0-.26-.086-.326-.287a2.32,2.32,0,0,1,.615-1.047,6.654,6.654,0,0,0,1.514-1.694c.713-.374.967-1.161,1.52-1.686.575-.547,1.063-1.185,1.624-1.748a7.186,7.186,0,0,1,1.731-1.651A17.856,17.856,0,0,1,45.836,72.1c.448-.249,1.031-.225,1.37-.684-.009-.092.016-.223-.033-.264-.329-.273-.445-.712-.818-.965a4.039,4.039,0,0,1-.928-.876,4.068,4.068,0,0,0-.691-.677c-1.432-1.177-2.836-2.387-4.261-3.573a7.569,7.569,0,0,0-.811-.525,7.232,7.232,0,0,0-5.037,1.192c-.971.591-1.95,1.166-2.915,1.767a8.9,8.9,0,0,0-1.14,1.038c-.379.333-.356.855-.534,1.279a17.343,17.343,0,0,1-.992,2.489,11.9,11.9,0,0,0-.9,2.056,8.241,8.241,0,0,1-.982,2.046,5.226,5.226,0,0,0-.476.874,13.025,13.025,0,0,1-1.136,1.973c-.409.581-.729,1.224-1.088,1.839-.167.287-.317.587-.506.86a10.927,10.927,0,0,0-1.124,1.818,1.452,1.452,0,0,1-.646.726.437.437,0,0,1-.581-.29c-.007-.039-.031-.088-.018-.125.242-.72.853-1.258,1-2.029a8.776,8.776,0,0,1,.829-1.959c.136-.3.231-.62.345-.931a15.472,15.472,0,0,1,.995-2.652,4.187,4.187,0,0,0,.254-1.1c.279-.939.656-1.845.923-2.777a.315.315,0,0,0-.411.019c-.844.685-1.685,1.371-2.57,2.007a11.853,11.853,0,0,1-5.66,2.435,2.788,2.788,0,0,1-1.37.183.4.4,0,0,1-.186-.467,61.3,61.3,0,0,1,4.828-3.961c1.3-1.1,2.667-2.126,4.016-3.17a1.905,1.905,0,0,0,.382-.4,1.852,1.852,0,0,1,.581-.616,5.382,5.382,0,0,0,1.309-1.141c.057-.194.117-.42.193-.641.046-.133.132-.253.18-.387a4.718,4.718,0,0,0,.4-1.212c.073-1.195.778-2.237.779-3.443l.471-.66a8,8,0,0,1,1.667-4.127,3.51,3.51,0,0,1,2.945-.868,5.224,5.224,0,0,1,2.366,1.8c.04.072.147.108.225.158a16.879,16.879,0,0,1,3.158,2.813,2.629,2.629,0,0,0,.559.239,13.517,13.517,0,0,1,4.134,1.854c.579.31,1.077.764,1.69,1.031a2.351,2.351,0,0,1,.478.31q1.864,1.437,3.723,2.88c.569.944,1.73,1.341,2.2,2.381a14.426,14.426,0,0,1,1.774,1.841c.921.9,1.621,2,2.618,2.828a.929.929,0,0,1,.252.341,8.194,8.194,0,0,0,1.713,2.255c2.082,2.276,4.1,4.6,5.995,7.042.672.864,1.36,1.713,1.967,2.624.682,1.024,1.319,2.072,1.906,3.157.4.741.933,1.425,1.375,2.155A23.661,23.661,0,0,0,71.5,94.565a12.146,12.146,0,0,1,.957,1.415c.539.9,1.22,1.681,1.815,2.551a.909.909,0,0,0,.2-.8c-.544-.975-1.116-2.012-1.7-3.043-.257-.454-.583-.874-.8-1.346a29.706,29.706,0,0,0-1.576-2.7,24.726,24.726,0,0,1-1.694-2.953,2.628,2.628,0,0,0-.314-.471c-.219-.311-.449-.615-.66-.93a42.429,42.429,0,0,0-3.2-4.173c-1.049-1.209-2.046-2.466-3.011-3.744-.321-.426-.8-.659-1.1-1.083-.277-.386-.554-.773-.854-1.139a4.416,4.416,0,0,0-.528-.474c-.176-.155-.425-.277-.515-.472a3.492,3.492,0,0,0-.818-.977,11.294,11.294,0,0,1-.725-.877,2.391,2.391,0,0,0-.365-.434c-1-.745-1.633-1.845-2.575-2.643-.5-.427-.778-1.043-1.311-1.47a49.792,49.792,0,0,1-3.9-3.741,6.114,6.114,0,0,0-1.081-.921,4.228,4.228,0,0,1-1.465-1.571,2.554,2.554,0,0,1-1-.742A21.974,21.974,0,0,0,42.3,59.183c-.435-.359-.714-.86-1.243-1.144A4.828,4.828,0,0,1,39.9,56.982a7.154,7.154,0,0,0-.915-.67c-1.11-.894-2.161-1.868-3.318-2.694-1.388-.991-2.622-2.166-4.019-3.149-1.436-1.01-2.864-2.03-4.329-3a11.879,11.879,0,0,0-2.329-1.6,24.937,24.937,0,0,0-2.306-1.39c-.859-.506-1.708-1.031-2.584-1.507-.58-.315-1.2-.558-1.709-.791-.739-.223-1.337.573-2.022.049l.2-.75a.307.307,0,0,0-.408-.115c-.3.133-.591.307-.9.434a.48.48,0,0,1-.533-.064c-.22-.289.185-.526-.006-.933-.073-.123-.316-.1-.634-.094l-.855.533-.748.043-.321-.306c-.05-.334.311-.455.333-.734a.528.528,0,0,0-.428-.345c-.556.2-.949.755-1.565.823-.518-.444.106-.785.052-1.173.219.031.306-.073.29-.283l.219-.072-.1-.114-.086.222a.265.265,0,0,0-.292.281.954.954,0,0,0-.649.235,4.23,4.23,0,0,1-1.579.566.558.558,0,0,1-.534-.087c.223-.635.864-.823,1.31-1.209L9.1,38.8c-.214-.14-.307.111-.538.159H7.732l-1.555.822a.729.729,0,0,1-.465-.413l.146-.525c-.054-.132-.193-.141-.322-.112-.6.135-.975.8-1.843.592-.223-.166.128-.584-.007-.918a.607.607,0,0,0,.5-.132c-.23-.153-.4-.135-.47.161a.634.634,0,0,0-.543.06,1.181,1.181,0,0,1-.936.213.39.39,0,0,1-.244-.315c-.014-.082-.093-.153-.151-.242a3.263,3.263,0,0,0-1.192.488.693.693,0,0,1-.635-.405C-.078,37.9.335,37.772.3,37.5c.281-.3.767-.294.847-.787l-.485-.936a.57.57,0,0,1,.333-.455.841.841,0,0,1,.27.055c.506.3.847.877,1.513.922.193-.169-.034-.485.307-.674.6.065.8.812,1.357,1.042l.608-.49c.389.4.784.8,1.176,1.206.1.1.195.2.356.167.006.171-.107.359.072.505.179.011.209-.092.175-.234a.29.29,0,0,0-.269-.251c.1-.207.239-.385.131-.657-.081-.206.1-.334.321-.413l1.3,1.085.5-.3c.591.076.961.563,1.438.8.38.046.446-.349.736-.453A5.79,5.79,0,0,1,13,39.267l.359-.105-.386-.571a.58.58,0,0,1,.544-.458c.622.458,1.119,1.2,1.9,1.437.36-.07.276-.421.539-.553.275-.064.471.189.76.339l.56.939c.331.035.4-.369.77-.43.576.322.85,1,1.361,1.547a44.611,44.611,0,0,1,5.006,2.871c1.4.894,2.8,1.782,4.155,2.733,1.435,1,2.873,2,4.239,3.11.879.712,1.832,1.342,2.719,2.052.666.533,1.324,1.074,1.979,1.619,1.133.942,2.27,1.879,3.39,2.836.9.771,1.784,1.567,2.672,2.354a13.532,13.532,0,0,0,1.929,1.692,3.756,3.756,0,0,1,.318.287c.6.463.867,1.218,1.574,1.625a9.082,9.082,0,0,1,1.577,1.434,14.078,14.078,0,0,0,1.265,1.147,6.8,6.8,0,0,1,1.5,1.492c.336.481.788.821,1.145,1.257.51.624,1.179,1.079,1.694,1.7.483.584,1.147,1.025,1.6,1.627.742.989,1.843,1.637,2.48,2.711a6.631,6.631,0,0,1,1.642,1.94c.27.456.9.562,1.067,1.115.834.784,1.467,1.744,2.252,2.57.055.058.166.061.251.09a.767.767,0,0,0,.594.835c.021.1-.016.247.167.22a.154.154,0,0,0,.013-.093,2.238,2.238,0,0,0-.219-.088.736.736,0,0,0-.547-.882m-3.745,1.174c-.054-.049.031-.259-.165-.142l.209.1a.317.317,0,0,0,.282.291c.033.094-.041.331.2.149l-.239-.107a.312.312,0,0,0-.285-.289m1.145,1.431c-.041-.084.045-.327-.2-.157l.24.115c.046.068-.033.307.187.136l-.229-.093m27.252,39.772a.689.689,0,0,0,.1.229c.067.065.128.01.071-.068-.044-.06-.141-.082-.214-.121a.7.7,0,0,0-.1-.239c-.058-.057-.128.007-.076.079s.144.081.22.119M61.594,113.5c-.153.037-.278.1-.288.285-.209-.026-.3.075-.294.276a1.163,1.163,0,0,0-1.145.857c-.213-.02-.275.11-.288.289-1.148.608-1.248.707-1.344,1.327.32-.023.445-.3.59-.507.193-.272.651-.186.719-.538v-.318c.2.019.311-.065.3-.278.643.061.9-.393,1.14-.862.2.013.283-.1.284-.284a.351.351,0,0,0,.282-.291c.169-.021.3-.08.3-.282a.738.738,0,0,0,.642-.232.626.626,0,0,0,.2-.641c.252.031.491.036.57-.283.17-.021.3-.083.3-.284.094,0,.2.039.28,0,.553-.261,1.138-.454,1.687-.7a13.779,13.779,0,0,0,2.053-.951,4.654,4.654,0,0,1,2.162-.594c.8-.079,1.6-.174,2.39-.316.072-.013.13-.1.209-.171l-.245-.32c-.513-.17-1.036-.12-1.547-.266a3.524,3.524,0,0,0-2.5.25,19.173,19.173,0,0,0-4.167,2.65c-.137.119-.313.226-.287.453-.193,0-.268.122-.289.294-.218.041-.5-.055-.58.278a1.134,1.134,0,0,0-.851.861c-.212-.012-.263.128-.283.3m34.053,5.679c.174-.012.3-.08.291-.279a1.2,1.2,0,0,0,1.14-.859c.1-.021.251.02.221-.168a.157.157,0,0,0-.1-.014,2.129,2.129,0,0,0-.086.22,1.112,1.112,0,0,0-1.146.853.255.255,0,0,0-.282.289c-.073.044-.309-.047-.155.186l.113-.228m2.291-1.719c.082-.036.316.054.156-.186l-.114.225c-.083.038-.189.057-.244.12-.07.081-.007.143.082.074.063-.049.082-.154.12-.234M86.484,120.65c.013-.209-.068-.32-.293-.282a1.081,1.081,0,0,0-.071-.83c-.533-.892-.966-1.837-1.449-2.755a12.071,12.071,0,0,0-1.258-1.889c-.5-.626-.568-1.5-1.224-2.024a37.768,37.768,0,0,0-2.855-4.227c-.52-.681-.882-1.466-1.431-2.113a32.393,32.393,0,0,1-2.037-2.907c-.383-.567-.643-1.277-1.308-1.619l-.313.143a8.777,8.777,0,0,0,.565,1.126,26.763,26.763,0,0,1,2.532,3.945.881.881,0,0,0,.16.235,17.817,17.817,0,0,1,2.048,2.895c.577.919,1.234,1.788,1.834,2.694.706,1.065,1.375,2.156,2.087,3.218.792,1.182,1.542,2.389,2.239,3.629.113.2.238.419.515.445,0,.185.071.311.285.291-.01.245-.1.53.293.568,0,.176-.033.358.124.5.155-.231.146-.4-.162-.467.006-.241.108-.529-.28-.578m30.115,62.7a.509.509,0,0,0,.139.512c.171-.247.156-.42-.177-.476-.023-.227.091-.524-.289-.571-.007-.234.139-.542-.279-.578.021-.25.064-.511-.29-.571a2.533,2.533,0,0,0-.2-1.369c-.423-.883-.752-1.81-1.134-2.713-.041-.1-.15-.25-.308-.095-.014.044-.048.094-.036.126q.7,1.9,1.415,3.794a.291.291,0,0,0,.3.225c0,.239-.082.518.284.576,0,.241-.061.508.291.567.02.229-.062.51.288.573m-53-112c.024.175-.1.4.169.51.118-.257.085-.425-.208-.474,0-.236.095-.523-.283-.576,0-.169.007-.339,0-.507a.314.314,0,0,0-.294-.34c0-.172.012-.345.008-.517a.311.311,0,0,0-.291-.348c0-.168.012-.337,0-.5a.337.337,0,0,0-.292-.349c-.022-.228.1-.524-.282-.577-.035-.22.1-.523-.284-.573-.05-.058.047-.283-.171-.152l.211.112c.007.235-.045.5.286.574,0,.236-.079.515.283.575,0,.216-.008.434.016.647a.246.246,0,0,0,.268.213c0,.17-.016.34,0,.509a.332.332,0,0,0,.294.35c0,.168,0,.336.007.5a.315.315,0,0,0,.283.346c0,.237-.065.509.283.576m14.318,32.662c0,.195.081.313.3.277.006.234-.1.523.279.574.039.076-.051.305.181.153l-.22-.115c.009-.241.033-.489-.281-.57-.018-.172-.062-.319-.285-.294.043-.26.106-.53-.285-.575a1.071,1.071,0,0,0-.168-.67c-.577-1.011-1.146-2.026-1.709-3.024-.393.1-.393.1-.378.607a18.887,18.887,0,0,1,1.752,2.669c.117.193.245.409.529.394-.041.258-.1.524.283.573m-18.9-24.356c.028.072.053.146.088.215a.144.144,0,0,0,.089-.014c.029-.184-.112-.149-.216-.162-.055-.531-.055-.531-.557-.587a7.628,7.628,0,0,0-1.441-1.9,2.822,2.822,0,0,1-.55-.644,3.806,3.806,0,0,0-1.794-1.574A2.429,2.429,0,0,0,52.8,74.55a.318.318,0,0,0,.037.444l.666.208a7.916,7.916,0,0,0,2.425,1.956c.251.325.38.632.608.759a16.5,16.5,0,0,0,1.75,1.192c.039.016.094-.008.141-.013a.72.72,0,0,0,.586.557m46.948,70.8c-.007-.188-.066-.324-.293-.286a1.5,1.5,0,0,0-.563-1.436c-.029-.071-.057-.143-.092-.21,0-.007-.08.01-.082.02-.018.173.1.156.213.149a1.61,1.61,0,0,0,.564,1.434c.024.169.084.3.289.292.013.26-.1.544.129.759.036-.032.1-.061.1-.095.023-.253.156-.56-.266-.626m-31.195-41c.243.282.243.282.529.067l-.561-.032c-.185-.46-.609-.423-.948-.5a.268.268,0,0,0-.081.4,1.723,1.723,0,0,0,1.06.074m2.872-8.6c.052.149-.05.355.162.452.1-.229.007-.349-.207-.409a1.78,1.78,0,0,0-.072-.693c-.473-.814-.825-1.685-1.241-2.525-.035-.071-.148-.1-.224-.155-.178.125-.16.311-.15.52.272.518.55,1.061.841,1.6a3.279,3.279,0,0,0,.891,1.212m28.933,56.193a1.9,1.9,0,0,1-.845-.893c-.3-.626-.594-1.256-.891-1.884a3.607,3.607,0,0,0-.426-.862c-.268-.305-.3-.782-.729-.959a.773.773,0,0,0,0-.277,31.072,31.072,0,0,1-1.588-3.97,1.294,1.294,0,0,0-.33-.068.958.958,0,0,0-.259.106,1.094,1.094,0,0,0,.033.242,8.214,8.214,0,0,0,.691,1.529c.318.51.537,1.081.808,1.621a7.021,7.021,0,0,0,.418.728c.036.055.162.05.246.073a2.325,2.325,0,0,0,.41,1.583c.477.956.9,1.938,1.367,2.9a2,2,0,0,0,.319.388c.333,0,.635.083.738-.294.227-.028.5.045.582-.285a.771.771,0,0,0,.785-.162l.1-.338a3.6,3.6,0,0,1-.65-1.35l-.842-.908c-.875-1.666-1.677-3.2-2.493-4.729-.055-.1-.218-.148-.331-.22a2.147,2.147,0,0,0-.018-.562c-.115-.387-.276-.76-.408-1.115-.2-.021-.318.021-.388.227.128.353.259.751.419,1.138.069.168.18.334.416.292a1.873,1.873,0,0,0,.048.688,29.2,29.2,0,0,0,1.842,3.481l-.078.259c.262.38.55.746.781,1.145.257.444.444.928.7,1.374a2.569,2.569,0,0,1,.16.817c-.216.05-.51-.056-.578.289M25.743,76.787c.335-.032.431-.319.585-.546.506-.746.678-1.645,1.145-2.419a17.521,17.521,0,0,0,1-2.176,1.1,1.1,0,0,0,.055-1.081,7.514,7.514,0,0,0-1.609,1.246c-.08.271-.16.591-.267.9a16.33,16.33,0,0,1-.757,2.715,2.066,2.066,0,0,0-.112,1.4c-.073.044-.288-.006-.126.192l.088-.229M44.114,66.478c-.065-.282-.19-.486-.533-.416,0,.1.008.18.012.263a.56.56,0,0,0,.486.189,2.751,2.751,0,0,0,1.087,1.072,6.462,6.462,0,0,1,1.365,1.239c.684.861,1.595,1.469,2.4,2.346a7.8,7.8,0,0,1,1.8-.153c-.725-.761-1.739-.991-2.205-1.88a7.866,7.866,0,0,1-2.426-1.66,5.538,5.538,0,0,0-1.985-1m33.215,42.987c.1.553.1.553.51.425-.112-.212-.233-.411-.509-.426.075-.424-.211-.735-.4-1.034-.811-1.274-1.672-2.516-2.523-3.764a.526.526,0,0,0-.526-.279c.14.377-.255.7-.112,1.065.181.462-.195.809-.16,1.242a4.211,4.211,0,0,1-.144,1.007.936.936,0,0,0,.63.426,16.307,16.307,0,0,1,2.45,1.089c.248.125.467.342.785.25M42.653,75.936a5.065,5.065,0,0,0,1.8-.7,15.369,15.369,0,0,1,2.406-1.2c.782-.317,1.671-.289,2.448-.66a11.834,11.834,0,0,1,3.667.209.6.6,0,0,0,.763-.155,9.664,9.664,0,0,0-2.092-1.436,14.057,14.057,0,0,0-3.3.012,6.3,6.3,0,0,1-.842.466A12.189,12.189,0,0,0,44.434,74.2a4.785,4.785,0,0,0-1.753,1.768.675.675,0,0,0-.712.284c-.115.132-.231.287-.028.452.293-.206.651-.348.713-.766M28.61,65.9a5.6,5.6,0,0,0,2.338-2.394,8.148,8.148,0,0,0,.545-1.458,4.7,4.7,0,0,1,1.891-2.637l1.187-.249a2.7,2.7,0,0,0,1.128.184c.081,0,.166-.066.25-.1A15.845,15.845,0,0,0,33.8,57.508a2.311,2.311,0,0,0-1.464-.419c-.262.271-.821.1-1.275.547a2.4,2.4,0,0,0-.35.641c-.21.882-.67,1.664-.958,2.512-.137.4-.289.8-.435,1.2.272.489-.135.885-.194,1.329a5.468,5.468,0,0,1-.339,1.368,2.654,2.654,0,0,0-.139,1.256c-.092.025-.287-.039-.155.179l.114-.221m13.175,35.234c.045-.015.125-.021.131-.046a12.39,12.39,0,0,0,.6-1.832A3.627,3.627,0,0,1,43,97.675c.295-.506.207-1.105.549-1.605.21-.307.256-.739.449-1.1a6.857,6.857,0,0,0,.387-1.351,1.392,1.392,0,0,1,.2-.521,6.2,6.2,0,0,0,.881-1.924,17.343,17.343,0,0,1,2.4-4.777,7.928,7.928,0,0,1,1.147-1.433,5.168,5.168,0,0,1,3.069-1.427,5.961,5.961,0,0,0-4.057.641,21.979,21.979,0,0,0-1.943,2.179,17.425,17.425,0,0,0-1.616,2.661,21.8,21.8,0,0,0-1.027,2.632,13.979,13.979,0,0,0-.72,2.42c-.264,1.716-.7,3.4-.8,5.151a13.2,13.2,0,0,0-.1,1.954c-.468.212-.23.721-.489,1.024.087.032.136.068.162.056a2.724,2.724,0,0,0,.285-.181Zm43.008,12.033c.052.057-.031.292.182.138l-.222-.1V112.3a9.475,9.475,0,0,1-1.061-2.268c-.566-1.4-1.047-2.843-1.587-4.259-.219-.573-.349-1.171-.6-1.741a38.023,38.023,0,0,1-1.9-5.768c-.428-1.687-.794-3.387-1.191-5.081a3.933,3.933,0,0,0-.676-1.738c-.718,1.212-.752,2.614-1.177,3.857.358.865.685,1.7,1.048,2.522s.775,1.614,1.137,2.432c.575,1.3,1.116,2.612,1.688,3.912.723,1.643,1.395,3.307,2.148,4.939.614,1.331,1.279,2.632,1.978,3.917.037.069.151.1.23.141M17.724,75.929a4.794,4.794,0,0,0,1.413-.029,13.09,13.09,0,0,0,3.533-2.094c1.12-.872,2.322-1.638,3.465-2.483.724-.535,1.408-1.125,2.1-1.7.47-.389.953-.768,1.383-1.2.669-.671,1.629-.986,2.145-1.821a4.925,4.925,0,0,0,1.959-1.339c.715-.364,1.4-.692,2.065-1.057a13.729,13.729,0,0,1,2.119-.858H39.86a9.619,9.619,0,0,0,2.011.754c.66.256,1.3.577,1.957.832.641.248,1.076.932,1.862.881-.013-.049-.01-.1-.034-.12a9.9,9.9,0,0,0-3.131-1.876,2.257,2.257,0,0,1-.629-.329A7.472,7.472,0,0,0,36.916,62.2a6.872,6.872,0,0,0-1.519.2c-.1.033-.252-.075-.387-.12-.41.264-.814.511-1.2.777-.7.479-1.407.961-2.1,1.462-.143.1-.19.342-.335.44-1.331.905-2.364,2.155-3.637,3.127-.566.432-1.122.878-1.659,1.345a10.617,10.617,0,0,1-1.093.908,8.084,8.084,0,0,0-.957.853,10.5,10.5,0,0,1-1.373,1.239c-.606.384-1.147.84-1.72,1.259-.608.444-1.286.793-1.924,1.2-.36.228-.7.481-1.053.727a.365.365,0,0,0-.2.344l-.526.058c.2.123.422.246.491-.1M142.637,48.463l.576-.133c.523-1.128,1.489-1.943,1.989-3.09.471-1.079,1.064-2.1,1.6-3.154a.619.619,0,0,0,.1-.257c-.018-.744.529-1.305.629-2.024a19.675,19.675,0,0,1,.529-2.12,5.47,5.47,0,0,1-.264-2.345,14.79,14.79,0,0,0-.456-3.223,2.822,2.822,0,0,0-.247-1.1,9.522,9.522,0,0,1-.746-2,17.833,17.833,0,0,0-1.213-3.028c-.862-1.468-1.823-2.874-2.622-4.388a22.362,22.362,0,0,0-2.035-2.907,4.986,4.986,0,0,0-.937-.87,10.361,10.361,0,0,0-.908-.584c-.722,0-1.388-.007-2.055,0a12.4,12.4,0,0,0-2.12.2c-.741.137-1.5.124-2.254.292-.775.173-1.588.1-2.381.327-.764.222-1.6.18-2.375.377s-1.58.349-2.342.579a18.052,18.052,0,0,0-4.674,2.063,13.915,13.915,0,0,0-4.144,3.624c-.246.748-1.022,1.494-1.481,2.43-.621.325-.7.934-.871,1.531a5.246,5.246,0,0,0-.219,1.542,12.052,12.052,0,0,0,.237,3.541c-.056,1.146.407,2.242.331,3.391a1.466,1.466,0,0,0,.041.427,33.156,33.156,0,0,0,1.843,6.229c.507-.059.99-.385,1.532-.083l.211.39c-.3.01-.53.015-.762.027s-.465.031-.706.048c.089.557.118,1.075.62,1.376.286.066.478-.356.806-.141.015.4-.349.624-.459.964a.837.837,0,0,0,.449.8l.42-.133a.166.166,0,0,1,.229.109c.122.315-.227.513-.177.942.693.872,1.408,1.883,2.242,2.784a16.774,16.774,0,0,0,1.926,1.575l.628-.192.065.661c.4,0,.455.493.839.643l.385.036c.383-.174.557-.615.976-.736.154.457-.434.683-.192,1.193a2.942,2.942,0,0,0,1.224.44c.333.083.51-.5.9-.205,0,.21-.24.419.067.7a3.723,3.723,0,0,1,1.252.286l.593-.259a1.075,1.075,0,0,0,.9.277c.213-.068.351-.338.619-.238l.408.3,2.728-.416.6-.315.24-.4.534.209a7.208,7.208,0,0,0,1.563-.711l.094-.413-.016.017c.361-.039.763.155,1.11-.223l.133-.776.831.159,2.7-2.434-.089-.346a2.383,2.383,0,0,0,1.038-.854l.022-.418Zm-61.52,40.3a3.124,3.124,0,0,0,.231,1.7c.364.827.6,1.7.935,2.531.427,1.049.786,2.12,1.156,3.188a12.463,12.463,0,0,1,.778,2.724,26.679,26.679,0,0,1,1.3,4.929,10.05,10.05,0,0,1,.394,2.522,7.829,7.829,0,0,0,.166,1.124c.094.9.455,1.74.482,2.649a3.017,3.017,0,0,0,.2.674c.366,1.3.657,2.626.958,3.946.091.4.223.791.405,1.43a13.2,13.2,0,0,0,.394-2.033,5.91,5.91,0,0,1,.241-1.682c.19-.582.378-1.172.539-1.765.562-2.06,2.075-3.311,3.722-4.453a1.058,1.058,0,0,1,.523-.194c.861-.037,1.638-.447,2.485-.536a1.54,1.54,0,0,0,.541.155,9.142,9.142,0,0,1,2.664.381,5.922,5.922,0,0,1,1.844.718,25.461,25.461,0,0,1,2.478,1.667,3.915,3.915,0,0,1,1.4,1.587,1.031,1.031,0,0,1,.026.281l-.275.24a2,2,0,0,1-1.369-.424c-.489-.293-1-.557-1.476-.863-.52-.331-1.148-.4-1.66-.791a7.9,7.9,0,0,0-1.581-.735c-.573.371-1.271.161-1.906.306-.528.355-1.165.414-1.686.785a10.325,10.325,0,0,0-3.783,4.859q-.3.8-.6,1.6c-.2.535-.2,1.112-.37,1.662-.167.526-.015,1.134-.282,1.67a.626.626,0,0,0,0,.423,23.521,23.521,0,0,0,.487,2.354,32.029,32.029,0,0,0,1.074,3.072,1.871,1.871,0,0,1,.1.555,1.83,1.83,0,0,0,.759,1.326c.283-.953-.12-1.949.351-2.835a10.572,10.572,0,0,1,.456-3.059,9.215,9.215,0,0,1,2.484-2.767c1.064-.784,2.257-1.393,3.394-2.078a11.165,11.165,0,0,0,2.677-1.286c.388-.17.754-.39,1-.521.418-.05.608.041.67.521-.6.439-.873,1.275-1.488,1.879a5.867,5.867,0,0,1-1.759,1.2,10.45,10.45,0,0,0-2.592,1.731,7.822,7.822,0,0,1-1.423,1.184,1.635,1.635,0,0,0-.594.609,9.923,9.923,0,0,0-1.676,3.573,14.463,14.463,0,0,0-.287,1.667,4.06,4.06,0,0,1-.124.664l.573,2.348.35.257c.226-.62-.051-1.268.207-1.84a1.589,1.589,0,0,1,.854-.617h1.874l1.072.356c1.232,1,2.593,1.775,3.206,3.223a2.074,2.074,0,0,1-.075,1.16c-.543.691-1.466.576-2.154.989v1.342c-.124.311-.373.465-.225.781.3-.048.609-.115.923-.145.332-.032.67-.008,1-.048s.647-.134.971-.2a4.048,4.048,0,0,1,1.794.347,1.915,1.915,0,0,1,.894,1.392l-.341.812-1.5,1.347c.741.167,1.421-.1,2.086.16a1.852,1.852,0,0,1,.951,1.646,8.627,8.627,0,0,1-2.259,2.12c.708.551,1.638.73,1.97,1.63a2.679,2.679,0,0,1-.894,2.293,11.389,11.389,0,0,0,1.667,3.138,2.181,2.181,0,0,1,.38.592,15.537,15.537,0,0,0,1.412,2.609c.532,1.088,1.583,1.755,2.157,2.741,1-.2,1.937-.347,2.849-.579a9.638,9.638,0,0,1,4.776.066,5.927,5.927,0,0,0,.816.223,9.377,9.377,0,0,1,3.513,1.045c.244.129.531.324.766.287.362-.058.62.18.959.169,1.048-.035,2.1-.013,3.064-.013,1.346-.707,2.8-.829,4.09-1.446,1.323-.634,2.756-.989,4.126-1.508,1.328-.5,2.65-1.024,3.976-1.534,1.368-.525,2.767-.971,4.092-1.52a1.712,1.712,0,0,1,1.006-1.188c.614-.248,1.167-.66,1.791-.868.684-.229,1.239-.69,1.9-.93,1.211-.443,2.323-1.085,3.481-1.633a9.081,9.081,0,0,0,1.859-1.042,10.187,10.187,0,0,0,2.807-1.287,5.9,5.9,0,0,1,.9-.44,9.037,9.037,0,0,0,3.206-1.731l.56.1a5.569,5.569,0,0,1,1.737-.891,16.05,16.05,0,0,1-.237-3.153,5.4,5.4,0,0,0-.13-.984,8.157,8.157,0,0,1,.666-5.416l-.511-1.5a9.609,9.609,0,0,0-.058-1.112c-.1-.6-.2-1.191-.258-1.795-.022-.229-.2-.451-.2-.672.022-.771-.35-1.466-.374-2.234a3.207,3.207,0,0,1-.015-1.207c.155-.445-.359-.8-.148-1.244-.037-1.465-.077-2.929-.105-4.394a1.222,1.222,0,0,1,.1-.364c.255-.137.468-.21.715.057,0,1.04.433,2.08.341,3.187a2.321,2.321,0,0,0,.091.56,23.817,23.817,0,0,1,.441,3.219c.015.428-.05.862,0,1.285a10.77,10.77,0,0,0,.294,1.382c.056.228.185.441.224.671a11.671,11.671,0,0,1,.379,2.239,1.5,1.5,0,0,0,.457,1c.379.045.771-.052,1.007.1a.5.5,0,0,1,.226.59c-.147.349-.5.4-.793.556-.238.728-1.051,1.111-1.18,2.16a6.608,6.608,0,0,0,.026,1.469,2.034,2.034,0,0,1,.055,1.359,2.884,2.884,0,0,1,.182,1.4c.022.662.037,1.324.057,2.09.554-.267,1.016-.492,1.48-.711a.871.871,0,0,1,.939.033c.01.092.019.182.028.27a18.337,18.337,0,0,1-1.665,1.073A14.235,14.235,0,0,1,163,141.481c-1.38.624-2.739,1.283-4.092,1.965-1.852.934-3.723,1.84-5.633,2.655a4.6,4.6,0,0,0-.648.271c-1.371.857-2.946,1.312-4.3,2.193a.48.48,0,0,1-.129.062,21.031,21.031,0,0,0-2.842,1.278,2.657,2.657,0,0,0-.483.376q6.482,8.334,12.7,16.689A9.275,9.275,0,0,0,160,165.959c.751-.41,1.5-.826,2.248-1.236.707-.386,1.411-.78,2.128-1.147.756-.387,1.537-.726,2.286-1.125,1.466-.781,2.837-1.734,4.349-2.435a2.955,2.955,0,0,0,.337-.265c1.7-1.132,3.4-2.26,5.069-3.446a34.548,34.548,0,0,0,4.548-3.648,4.336,4.336,0,0,1,.438-.367,7.976,7.976,0,0,0,2.781-4.2,24.208,24.208,0,0,1,.824-3.441,2.881,2.881,0,0,1,.517-1.458c.383-.654.741-1.324,1.083-2a2.977,2.977,0,0,0,.4-1.055,6.809,6.809,0,0,0,.135-1.949c-.043-.206.1-.45.148-.663-.069-.24-.147-.463-.2-.692-.163-.736-.3-1.476-.475-2.21a33,33,0,0,0-1.275-3.241v-1.008a2.332,2.332,0,0,1-.609-1.164.46.46,0,0,0-.385-.456,24.628,24.628,0,0,1-5.408,3.336l-1.044.051-.779-.433a1.558,1.558,0,0,1,1.036-.905,30.585,30.585,0,0,0,4.648-2.739,2.758,2.758,0,0,0,1.063-1.308,1.629,1.629,0,0,0,.044-.438l-.517-.657-.24-.846a24.143,24.143,0,0,0,.054-5.53c-.9.6-1.621,1.511-2.776,1.6-.287-.215-.611-.344-.71-.731.187-.2.373-.417.583-.61a3.049,3.049,0,0,1,.469-.323,7.289,7.289,0,0,0,2.839-2.924v-2.209l-.835-1.41c-.073-1.131-.726-2.162-.57-3.333a2.433,2.433,0,0,0-.28-1.322l.254-.756c-.134-.389-.234-.81-.355-1.208a6.887,6.887,0,0,1-.226-1.822,2.816,2.816,0,0,1-.289-1.8c-.011-.633-.257-1.2-.292-1.822a18.946,18.946,0,0,0-.351-3.242c-.218-.926-.24-1.869-.435-2.8-.183-.874-.324-1.759-.557-2.628l.122-.363a2.766,2.766,0,0,1-.173-.572c-.087-1.219-.519-2.377-.612-3.594-.442-.873-.192-1.871-.491-2.774-.051-.153.069-.363.117-.576a1.543,1.543,0,0,1-.226-.932c0-.236.073-.521-.031-.7a2.5,2.5,0,0,1-.2-1.537c.046-.6-.293-1.1-.274-1.676a9.6,9.6,0,0,0-.884-3.554,4.424,4.424,0,0,0-1.033-1.521,20.72,20.72,0,0,0-2.666-2.135,9.524,9.524,0,0,0-2.478-1.319c-.487-.183-.955-.425-1.452-.575-1.5-.451-2.767-1.461-4.33-1.747a1.893,1.893,0,0,1-.389-.171c-.78-.343-1.552-.707-2.343-1.022a13.927,13.927,0,0,1-2.841-1.25,4.279,4.279,0,0,0-.784-.324c-1.964-.818-3.96-1.561-5.882-2.479a7.831,7.831,0,0,0-1.057-.4c-1.038-.321-2.046-.742-3.059-1.142-.215-.085-.388-.278-.6-.365-.427-.173-.87-.307-1.546-.54.224.729-.114,1.224-.169,1.786-.023.236-.026.474-.037.7a4.108,4.108,0,0,1-1.3,1.479c-.7.54-1.294,1.25-2.012,1.777-1.417,1.038-2.887,2-4.352,2.974a4.739,4.739,0,0,1-1.5.788,15.334,15.334,0,0,1-3.912.634c-.333-.015-.668,0-.953,0l-.847.383c-.382.412-.8.809-1.153,1.257a6.206,6.206,0,0,0-1.546,2.524c-.81,1.5-1.421,3.107-2.354,4.551a7.514,7.514,0,0,0-1.2,3.163,20.814,20.814,0,0,0-.373,3.678,1,1,0,0,1-.021.426,13.557,13.557,0,0,0-.446,2.932c-.221,1.154-.134,2.356-.33,3.536-.169,1.02-.126,2.07-.268,3.111-.147,1.072-.12,2.17-.3,3.255-.2,1.2-.22,2.434-.411,3.638-.062.393.164.763.012,1.1a4.855,4.855,0,0,0-.2,1.83,10.089,10.089,0,0,1-.1,1.854,12.749,12.749,0,0,0-.152,2.959,4.948,4.948,0,0,0,1.914,1.568h1.034l2.542-1.9c.421.386.421.386.468.824-.915.8-1.637,1.844-2.867,2.238a2.789,2.789,0,0,1-1.261-.065,11.429,11.429,0,0,1-2.984-2.637,3.619,3.619,0,0,1,0-.445,4.394,4.394,0,0,0,.168-1.395,6.182,6.182,0,0,1,.084-1.524,32.673,32.673,0,0,1,.252-5.123c.238-1.43.244-2.893.552-4.322a7.547,7.547,0,0,1,.277-1.9l-.216-.742a4.345,4.345,0,0,0,.241-1.4,12.577,12.577,0,0,1,.182-2.529c.214-1.019.168-2.056.386-3.078a30.639,30.639,0,0,0,.363-3.535c.009-.095-.017-.211.028-.282.367-.564.087-1.236.305-1.811a10.965,10.965,0,0,0,.289-1.927,9.524,9.524,0,0,1,1.913-3.262c-.067-.375.232-.676.267-.907a16.879,16.879,0,0,0-.312-2.761,10.529,10.529,0,0,1-.753-.94,2.365,2.365,0,0,0-.863-.872c-.935.007-1.848-.748-2.93-.415a4.145,4.145,0,0,0-1.685-.207c-.593.006-1.079-.346-1.59-.365-.517-.361-.989-.68-1.449-1.016a10.191,10.191,0,0,1-1.12-.877c-.547-.531-1.052-1.106-1.57-1.667a2.509,2.509,0,0,1-.6-1.116c-.208-.826-.474-1.634-.633-2.478A5.113,5.113,0,0,1,113,61.632c0-.027-.073-1.085-.089-1.13a6.049,6.049,0,0,1-1.325.492,15.1,15.1,0,0,0-3.264.961c-2.134.779-4.29,1.484-6.457,2.159-.993.309-1.968.7-2.981.915-1.432.306-2.836.693-4.232,1.129a21.018,21.018,0,0,0-2.269.8,6.5,6.5,0,0,1-2.348.754A25.111,25.111,0,0,0,86.3,71.106a5.415,5.415,0,0,1-.812.976c-.24.173-.152.651-.545.771-.037.011-.07.068-.087.11-.1.26-.185.532-.307.783-.583,1.194-1.166,2.388-1.77,3.572a18.644,18.644,0,0,0-1.066,2,3.785,3.785,0,0,1-.7,1.183,21.185,21.185,0,0,1-1.29,3.149,9.44,9.44,0,0,0-.643,1.556c-.043.106.035.262.068.461a9.933,9.933,0,0,1,2.45-1.4c.221,0,.364,0,.508,0a16.415,16.415,0,0,0,4.112-.236c.413.223.833-.165,1.233,0a5.352,5.352,0,0,0,2.113.222c1.193,0,2.386-.021,3.579-.031a.946.946,0,0,1,.807.226v.421a2.221,2.221,0,0,1-.76.726,4.842,4.842,0,0,0-.922.126c-.813.261-1.657.392-2.471.633a4.12,4.12,0,0,1-1.122.156,14.012,14.012,0,0,0-2.422.07c-.8.157-1.6.193-2.387.324-.077.013-.139.117-.259.225.016.285.034.613.046.839.324.8.67,1.467.942,2.18a9.753,9.753,0,0,0,1.372,2.633c.878,1.116,1.677,2.295,2.507,3.441-.016.374.173.761-.092,1.083a.9.9,0,0,1-1.137-.419c-.745-1.034-1.441-2.1-2.135-3.174a11.4,11.4,0,0,1-1.075-1.832,15.381,15.381,0,0,1-1.326-4.1c-.2-.174-.326-.337-.677-.277a5.913,5.913,0,0,0-.91,1.252m30,72.964a5,5,0,0,1-.7.431,18.685,18.685,0,0,0-3.128,1.7,6.94,6.94,0,0,0-2.475,2.663,2.861,2.861,0,0,0-.308.936,7.374,7.374,0,0,0,.1,2.269c.323.311.66.639,1,.961.027.025.093.01.2.018.223-.306.469-.641.712-.979.166-.231.307-.484.493-.7a15.786,15.786,0,0,1,4.142-2.979,6.77,6.77,0,0,1,1.482-.463l.227.378a1.146,1.146,0,0,1-.638.567,19.762,19.762,0,0,0-2.14,1.392c-.551.395-.881,1-1.417,1.385a5.5,5.5,0,0,0-1.756,2.546,3.55,3.55,0,0,0-.279,2.489c.243.292.448.621.87.7a7.083,7.083,0,0,1,.835-.517,16.611,16.611,0,0,0,4.374-2.6,17.435,17.435,0,0,1,2.51-1.589.956.956,0,0,1,.938-.071c.135.118.116.255.075.421A10.113,10.113,0,0,1,114.3,172.3a22.256,22.256,0,0,1-4,2.716,4.507,4.507,0,0,0-2.168,1.317,8.914,8.914,0,0,0-1.941,1.87,1.274,1.274,0,0,0-.082.244c.116.252.109.574.418.717a3.2,3.2,0,0,0,2.119-.4c.459-.249.875-.587,1.349-.8a27.137,27.137,0,0,0,3.132-1.674c1.748-1.07,3.567-2,5.408-2.93a12.059,12.059,0,0,0,3.653-.335,8.4,8.4,0,0,1,1.837-.286,37.049,37.049,0,0,0,5.222-2.862,10.852,10.852,0,0,1,2.776-1.427,4.474,4.474,0,0,0,.875-.508,5.336,5.336,0,0,0,1.376-.281,25.191,25.191,0,0,1,3.434-.845,17.23,17.23,0,0,0,2.087-.431,17.743,17.743,0,0,1,4.606-.786,9.953,9.953,0,0,1,2.82-.285,3.933,3.933,0,0,0,.546-.125,20.5,20.5,0,0,1,2.369-.41c.719-.047,1.392-.282,2.1-.357.347-.323.829-.162,1.265-.351a7.3,7.3,0,0,0-.475-.842c-.483-.646-1.009-1.259-1.491-1.906-.651-.875-1.284-1.764-1.911-2.657a8.783,8.783,0,0,0-.69-1.071c-1.051-1.1-1.742-2.472-2.764-3.59a4.337,4.337,0,0,1-.4-.582,4.436,4.436,0,0,0-.63-.936,7.035,7.035,0,0,1-.706-.906c-2.962,1.074-5.895,2.123-8.837,3.145s-5.874,2.093-8.9,3.176c-.484,0-1.056.006-1.629,0a7.2,7.2,0,0,1-1.824-.246A32.47,32.47,0,0,1,120,156.492l-1.195-.113-.681-.436a5.131,5.131,0,0,1-1.241-.139c-1.436-.52-2.819,0-4.2.2a8.657,8.657,0,0,0-2.787,1.031,26.008,26.008,0,0,1-4.678,2,3.788,3.788,0,0,0-2.4,2.436,16.829,16.829,0,0,0-.53,2.769,1.257,1.257,0,0,0,.131.832,4.569,4.569,0,0,1,.237.769c.281.151.352.49.676.512l1.73-2.511c.637-.448,1.2-.893,1.805-1.257a4.8,4.8,0,0,1,2.062-.92c.7-.036,1.351-.541,2.073-.245l.112.3M69.839,132.413c.6,1.059,1.213,2.02,1.687,3.046a7.539,7.539,0,0,0,1.242,2,9.235,9.235,0,0,0-.056,1.048,10.458,10.458,0,0,0,.164,1.084,6.338,6.338,0,0,1,.136.815,6.145,6.145,0,0,0,1.408,3.646c.4.52.819,1.033,1.232,1.545a9.787,9.787,0,0,1,1.3,1.67,5.074,5.074,0,0,0,1.25,1.5c.352.306.589.789.982.995a4.379,4.379,0,0,1,1.165,1.029,35.526,35.526,0,0,0,3.743,3.3c.194.159.421.413.759.324.2-.176-.031-.337-.026-.508a5.064,5.064,0,0,0-.013-.714,12.456,12.456,0,0,0,.05-1.668,9.309,9.309,0,0,1-.091-1.71,7.415,7.415,0,0,0-.046-.856,8.561,8.561,0,0,1,0-3.657,2.5,2.5,0,0,0,.031-.57,17.327,17.327,0,0,1,.728-5.045,24.719,24.719,0,0,1,1.306-4.595,5.252,5.252,0,0,1-.225-2.6c.618-1.018,1.914-.865,2.669-1.455.36-.031.6-.037.834-.075.211-.035.467.059.619-.177a13.38,13.38,0,0,0-2.962-4.022,7.217,7.217,0,0,1-2.034-1.189,10.408,10.408,0,0,1-1.8-.272,1.022,1.022,0,0,0-.7.013,9.851,9.851,0,0,1-1.534.219c-.446.2-.895.365-1.31.591a8.285,8.285,0,0,0-3.239,2.734,17.959,17.959,0,0,1-2.581,3.024,2.076,2.076,0,0,1-1.288.736c-.241-.078-.386-.184-.436-.388a4.349,4.349,0,0,1,1.041-1.346,8.181,8.181,0,0,0,1.991-2.737,17.229,17.229,0,0,1,1.178-1.918,5.556,5.556,0,0,1,1.582-1.585,8.139,8.139,0,0,1,1.644-1.087,13.327,13.327,0,0,0,1.674-.878,11.877,11.877,0,0,0,2.218-.186c.3.207.648.106.971.168s.559.4.978.188a1.848,1.848,0,0,0-.368-.826,4.278,4.278,0,0,1-.6-.8c-.649-1.44-1.782-2.576-2.475-3.986-.082-.168-.259-.29-.336-.459a5.289,5.289,0,0,0-2.027-2.487,17.334,17.334,0,0,0-2.92-2.482,8.034,8.034,0,0,0-2.547-1.2c-.27-.083-.541-.166-.812-.246a.581.581,0,0,0-.6.105,4.074,4.074,0,0,0-.334,1.575c.031.471-.265.9-.149,1.367-.269.487-.047,1.059-.234,1.538a8.312,8.312,0,0,0-.232,2.911c-.38.259-.173.855-.544,1.209l-.649.292a5.946,5.946,0,0,0-.34.62c-.089.215-.128.452-.2.676a9.378,9.378,0,0,0-.313,2.674,4.966,4.966,0,0,1-.082.987c-.08.376.218.719.038,1.1a3.9,3.9,0,0,0-.18,1.544,37.5,37.5,0,0,1-.152,3.974c-.071.459-.115.921-.184,1.48m57.812-58.205a7.584,7.584,0,0,1,1.909-2.645,11.3,11.3,0,0,1,3.311-2.626,7.108,7.108,0,0,0,3.579-4.012,5.034,5.034,0,0,1,1.986-3,.207.207,0,0,0,.085-.112c.162-.54.732-.709,1.029-1.146a11.037,11.037,0,0,1,1.182-1.232c.359-.38.7-.777,1.08-1.2,0-.945,0-1.9,0-2.847a3.986,3.986,0,0,1,.121-.979,8,8,0,0,0,.092-2.785c-.121,0-.183-.02-.213,0-.779.607-1.6,1.161-2.266,1.761-.188.5.253.789.186,1.108a.248.248,0,0,1-.373.148c-.386-.08-.314-.588-.766-.716l-.693.333c0,.248.221.44.075.733l-.286.233-.606-.4-.934.341c-.139.226-.215.53-.529.609a1.105,1.105,0,0,0-.926-.171c-.464.4.026.59-.288.869l-1.13-.518c-.45.029-.565.348-.8.475l-.371-.2c-.3.087-.638-.053-.886.2l-.156.265-.748-.484a1.194,1.194,0,0,0-.779.067l-.512.461-.278-.106v-.359a.628.628,0,0,0-.576-.024c-.2.253-.286.61-.623.741a.248.248,0,0,1-.341-.174l.136-.653-.506-.476-.594.161A4.227,4.227,0,0,0,123.918,55a2.82,2.82,0,0,0-1.615-1.106c-.551.264-.554.882-1.019,1.1a.67.67,0,0,1-.262-.069c-.063-.051-.08-.159-.137-.286l1.064-1.1c-.379-.324-.722-.625-1.075-.915a11.962,11.962,0,0,0-1-.785c-.394-.259-.423-.847-.912-1a.675.675,0,0,0-.358.6c-.017.667-.006,1.334-.039,2-.073,1.455-.175,2.909-.248,4.364a14.017,14.017,0,0,1-.292,2.91,4.216,4.216,0,0,0-.013,1.021c1.1,1.16,1.821,2.645,3.072,3.661l.375.933V67.47c.332.309.266.713.316,1.088l.886,1.355a18.369,18.369,0,0,0,2.212,1.192,2.206,2.206,0,0,1,.809.567,15.763,15.763,0,0,1,1.974,2.536M96.4,140.046a53,53,0,0,1,5.071-2.359,5.059,5.059,0,0,0,2.2-1.82l-.353-.347a4.381,4.381,0,0,0-.571-.043,12.449,12.449,0,0,0-2.254.265c-.716.193-1.508.07-2.236.329a6.392,6.392,0,0,1-2.235.342,5.109,5.109,0,0,0-.693.137,8.96,8.96,0,0,1-2.229.378.984.984,0,0,1-.265-.123l-.1-.53c-.286-.265-.9-.048-.969-.659l.34-.292a10.072,10.072,0,0,0,1.823-.144c1.324-.342,2.626-.775,3.929-1.193.162-.052.281-.239.417-.361-.018-.363-.034-.693-.047-.958A2.244,2.244,0,0,0,97,131.8a23.091,23.091,0,0,1-3.368-.228,10.368,10.368,0,0,0-3.673.286c-.451.069-.9.263-1.314.313l-.975.679a3.83,3.83,0,0,0,.782,3.35c-.32.382-.676.01-1.076.037-.341.967-.472,2-.716,3a30.951,30.951,0,0,0-.819,6.456c0,.089-.078.173-.1.264-.011.038.02.087.031.125a.947.947,0,0,0,.657.561l.5-.114,1.166.7a5.468,5.468,0,0,0,1.5.044,7.3,7.3,0,0,1,3.724.685,13.922,13.922,0,0,0,2.453.7,1.284,1.284,0,0,0,.976-.073,2.614,2.614,0,0,1,.83-.172,6.263,6.263,0,0,0,1.9-.521,33.54,33.54,0,0,0,4.732-3.093c0-.357.344-.617.174-.975a2.468,2.468,0,0,0-.964-.538,3.14,3.14,0,0,0-1.8.409c-.334.181-.694.32-1.01.528a17.9,17.9,0,0,1-3.807,1.867,10.989,10.989,0,0,0-1.692.273,2.68,2.68,0,0,1-1.65-.015l-.1-.366a2.443,2.443,0,0,1,1.5-.666,15.562,15.562,0,0,0,4.222-1.57,27.49,27.49,0,0,0,5.34-3.72c.061-.057.07-.169.1-.256a.716.716,0,0,0-.112-.244,2.332,2.332,0,0,0-.343-.228,3.438,3.438,0,0,1-.7.172,25.187,25.187,0,0,0-4.439.841c-1.569.326-3.058,1.031-4.7.993a.706.706,0,0,0-.263.1c-.891.39-1.9,0-2.788.42a.6.6,0,0,1-.283.005c-.3-.027-.548-.113-.591-.479a.781.781,0,0,1,.589-.347,8.073,8.073,0,0,0,2.372-.606c1.031.183,2.019-.312,3.136-.348m41.183-75.715c.034.092.072.141.065.18a3.623,3.623,0,0,1-.927,2.006,3.894,3.894,0,0,0-.621.777,4.989,4.989,0,0,1-2.038,1.923.289.289,0,0,0-.152.374,4.587,4.587,0,0,1,.923-.2,12.072,12.072,0,0,0,2.754-.593,1.723,1.723,0,0,0,.52-.2c.63-.407,1.288-.765,1.914-1.185,1.572-1.053,2.975-2.317,4.474-3.46a2.825,2.825,0,0,0,.985-1.22,15.647,15.647,0,0,1,.2-2.481c-.639-1.8-.967-3.7-2.276-5.173a.337.337,0,0,0-.432.145v2.522a8.812,8.812,0,0,1-.415.856,37.453,37.453,0,0,1-3.5,4.09c-.743.339-.992,1.1-1.473,1.636m-15.64,6.348a4.548,4.548,0,0,1-1.356-2.414V66.424a31.673,31.673,0,0,1-2.541-3.272.985.985,0,0,0-.249-.318c-1.3-.834-1.532-2.209-1.735-3.554a5.15,5.15,0,0,1,.612-3.016c.248-.51.521-1.008.816-1.574-.214-.169.176-.509-.242-.679a5.5,5.5,0,0,0-2.154,3.082,4.769,4.769,0,0,1-.28.651,16.163,16.163,0,0,0-.8,3.141c-.1.552-.191,1.108-.329,1.619.119.365.229.678.321.995a5.156,5.156,0,0,1,.24.961,11.092,11.092,0,0,0,.92,2.661,1.367,1.367,0,0,0,.528.654,4.263,4.263,0,0,1,1.112,1.383,7.752,7.752,0,0,0,2.406,1.3,5.157,5.157,0,0,0,2.734.224m-45.9-23.851c-.252.093-.331.306-.408.54a10.08,10.08,0,0,1-.964,2.357c-.256.4-.488.818-.739,1.221A19.641,19.641,0,0,1,71.4,54.56a7.112,7.112,0,0,0-1.166,1.6c-.451.829-.8,1.713-1.252,2.7a1.938,1.938,0,0,1-.019.846,8.975,8.975,0,0,0-.523,3.473,3.744,3.744,0,0,1,.242.784,9.712,9.712,0,0,0,1,3.384,4.895,4.895,0,0,1,.445,1.338,14.437,14.437,0,0,0,.537,1.463,5.2,5.2,0,0,0,.514,1.465c.1.155.067.431.4.486A3.391,3.391,0,0,0,71.4,70.67a8.975,8.975,0,0,1-.2-1.543,12.247,12.247,0,0,1-.437-3.372c.053-1.475,0-2.953-.022-4.43a5.788,5.788,0,0,1,.141-1.414c.195-.823.345-1.656.513-2.481a2.868,2.868,0,0,0,.435-.576,6.506,6.506,0,0,1,1.644-2.133,10.313,10.313,0,0,0,2.313-4.037,1.155,1.155,0,0,0,.071-.273,5.479,5.479,0,0,0,.133-1.664c-.143-.648.223-1.2.133-1.8-.006-.041-.051-.076-.08-.115m-.777,48.783a14.514,14.514,0,0,0-1.991-3.564,1.081,1.081,0,0,1-.205-.37,34.991,34.991,0,0,0-1.827-3.53c-.569-.534-.637-1.383-1.206-1.917A22.823,22.823,0,0,0,68.341,83.3c-.556-.984-1.129-1.967-1.775-2.906a15.064,15.064,0,0,1-2.008-3.584,1.976,1.976,0,0,0-.238-.515A37.441,37.441,0,0,1,61.9,71.476c-.135-.761-.664-1.377-.829-2.1a13.632,13.632,0,0,0-.818-2.117c-.3-.744-.536-1.515-.852-2.252-.485-1.132-1.052-2.229-1.512-3.37a24.335,24.335,0,0,1-1.01-2.476,6.052,6.052,0,0,0-.466-.871,5.777,5.777,0,0,0,.175,1.975,2.952,2.952,0,0,1,.331,1.08c.012.424.265.776.215,1.231-.035.325.3.672.371,1.028a20.683,20.683,0,0,0,1.62,4.363c.427.949.959,1.844,1.391,2.788a10.078,10.078,0,0,0,1.3,2.18,2.42,2.42,0,0,1,.625,1.972,17.69,17.69,0,0,1,1.472,2.447c.671,1.033,1.34,2.069,1.952,3.137.894,1.561,1.735,3.152,2.6,4.727.477.864.958,1.726,1.45,2.581.331.574.729,1.113,1.018,1.706a6.062,6.062,0,0,0,1.186,1.762,3.312,3.312,0,0,0,.891,1.753,5.045,5.045,0,0,1,.6.962c.424.74.841,1.484,1.292,2.283l.363-.651m7.451,6.306a6.38,6.38,0,0,0,.641,2.444A12.147,12.147,0,0,1,84,106.238a17.541,17.541,0,0,0,.945,2.6,1.214,1.214,0,0,0,.09-.346c-.174-1.408-.509-2.8-.546-4.221a1.951,1.951,0,0,0-.1-.414c-.153-.595-.34-1.183-.453-1.786a18.723,18.723,0,0,1-.665-3.045,14.806,14.806,0,0,1-.957-2.808,39.582,39.582,0,0,0-1.64-4.081,4.7,4.7,0,0,1-.519-2.19,2.4,2.4,0,0,0-.138-.672,7.742,7.742,0,0,1,.682-1.889l1.493-1a.759.759,0,0,0-.354-.853c-1.462.123-2.243,1.165-3.121,2.1a6.964,6.964,0,0,0,.139,1.871c.388,1.077.488,2.218.868,3.291.3.844.556,1.7.814,2.562a14.914,14.914,0,0,0,.548,1.895,4.1,4.1,0,0,1,.291,1.388,5.477,5.477,0,0,1,.592,1.583,3.4,3.4,0,0,0,.746,1.693m54.06-98.448a9.246,9.246,0,0,0-2.051.2,8.291,8.291,0,0,1-2.225.425c-.429-.015-.8.281-1.25.244a4.865,4.865,0,0,0-1.192.18,8.3,8.3,0,0,0-1.26.189c-1.348.455-2.807.439-4.129,1a7.723,7.723,0,0,0-2.59.717,3.71,3.71,0,0,1-.526.207C119.7,6.939,118.2,8.1,116.47,8.711a16.313,16.313,0,0,0-4,3.816,13.934,13.934,0,0,0-1.192,2.1,8.248,8.248,0,0,0-.653,1.233,21.736,21.736,0,0,0-.573,2.621,1.723,1.723,0,0,0,.08,1.222,3.6,3.6,0,0,0,.442-1.051c.155-.834.383-1.654.581-2.48.648-.938.9-2.09,1.613-2.99.5-.634,1.029-1.245,1.552-1.86A6.3,6.3,0,0,1,115.5,10.3a28.684,28.684,0,0,1,6.984-3.386,25.852,25.852,0,0,1,2.872-.8,38.979,38.979,0,0,1,4.583-.944c.455-.052.9-.231,1.353-.247a8.269,8.269,0,0,0,1.538-.279,21.258,21.258,0,0,1,3.764-.628c.081,0,.158-.091.237-.139l-.055-.405M62.5,46.91a5.345,5.345,0,0,1-.221,1.178c-.443,1-.646,2.074-1.023,3.09A22.2,22.2,0,0,0,60.4,54.9a18.511,18.511,0,0,0-.241,4.652,4.781,4.781,0,0,0,.064,1.277c.147.4.2.829.387,1.221a1.823,1.823,0,0,0,.065-.569,17.726,17.726,0,0,0,.016-2c-.066-.664.242-1.293.1-1.95.24-.231.014-.519.1-.779s.092-.555.154-.83.182-.542.217-.819a13.29,13.29,0,0,1,.764-3.012,12.287,12.287,0,0,0,.622-1.882q.484-2.433,1.171-4.813a1.564,1.564,0,0,0-.123-1.139,5.626,5.626,0,0,0-.643,1.266A5.818,5.818,0,0,1,62.5,46.91m69.638-35.391c-.438.15-.8.247-1.14.4a.456.456,0,0,0-.311.567.531.531,0,0,0,.644.123,2.232,2.232,0,0,1,1.091-.274,7.839,7.839,0,0,0,1.39-.23c1-.238,2.033-.376,3.053-.547a.787.787,0,0,1,.422.011,1.152,1.152,0,0,0,.95,0,.869.869,0,0,1,.69-.009c.411.3.825-.026,1.217.1a5.107,5.107,0,0,0,1.414.079,16.864,16.864,0,0,1,5.2.554,1.02,1.02,0,0,0,.957-.068c-.005-.09-.01-.177-.018-.305-.305-.075-.63-.13-.936-.236s-.609-.268-1.066-.475a9.994,9.994,0,0,1-1.551-.018c-.554-.081-1.085-.346-1.654-.086a13.113,13.113,0,0,0-3.253-.177,22.718,22.718,0,0,0-5.092.367,8,8,0,0,1-2.007.231m-36.4,119.047a.814.814,0,0,0,.668.336,3.569,3.569,0,0,1,1.526.3c.25.116.571.073.83.176a1.665,1.665,0,0,0,1.5-.155,1.051,1.051,0,0,0,.194-.179v-.571a24.369,24.369,0,0,1-2.081-2.313c-1.093-.437-1.093-.437-2.661.024l-.242.927c.277.427.026.945.264,1.456m-.873-23.957-2.1.98c-.192.2-.438.43-.648.688a9.04,9.04,0,0,0-1.845,3.169,7.14,7.14,0,0,1-.314,1.085.387.387,0,0,0,.191.57,8.726,8.726,0,0,1,2.129-3.015,6.437,6.437,0,0,0,1.021-1.228,12.889,12.889,0,0,1,3.116-1.593,2.143,2.143,0,0,1,2.02-.2l.043-.324c-.351-.206-.746-.059-1.112-.132s-.727-.183-1.115-.284a3.374,3.374,0,0,1-1.391.282M98.61,163.8c.556.269,1.187.579,1.825.875.067.031.173-.023.29-.042.214-.463.067-1,.278-1.495a2.185,2.185,0,0,0,.047-1.528,4.023,4.023,0,0,0-2.345-.3l-.447.771v.985l.353.736m1.047-14.633c.161.365.261.627.388.876a33.682,33.682,0,0,1,1.986,4.218c.6.738.765,1.715,1.33,2.477.277.374.533.763.8,1.142a.668.668,0,0,0,.626-.213,4.968,4.968,0,0,1-1.057-1.574,10.027,10.027,0,0,1-.9-2.068,16.269,16.269,0,0,0-1.371-3.089,5.129,5.129,0,0,1-.674-1.842.32.32,0,0,0-.292-.319l-.833.391M149.393,17.33a31.839,31.839,0,0,0-7.662-.342c-.211.134-.374.226-.421.427a.636.636,0,0,0,.463.391c.08,0,.223,0,.365,0a35.292,35.292,0,0,1,4.35.2,18.042,18.042,0,0,0,3.2.1c.237-.427-.016-.578-.3-.772m-2.051,4.532a.516.516,0,0,0-.071.572c.264.754.553,1.5.84,2.247a11.634,11.634,0,0,1,.845,3.709,3.711,3.711,0,0,0,.191,1.542c.24.507-.006,1.137.33,1.657.141.218-.056.584.307.758a.548.548,0,0,0,.523-.333,23.723,23.723,0,0,1-.8-4.622,6.3,6.3,0,0,0-.157-.828,20.071,20.071,0,0,0-1.725-4.476c-.042-.1-.184-.152-.278-.225m4.469,4.41a9.257,9.257,0,0,0-1.146-3.807,5.577,5.577,0,0,0-1.355-2.024c-.249-.018-.35.086-.346.239a1.575,1.575,0,0,0,.1.546,8.285,8.285,0,0,1,.656,1.565,14.827,14.827,0,0,0,.848,2.231,8.515,8.515,0,0,0,.663,1.273.457.457,0,0,0,.581-.023M79.445,125.36l.154.11a3.358,3.358,0,0,1,.979-.511,8.45,8.45,0,0,0,1.581-.544c.316,0,.6-.012.887,0a2.668,2.668,0,0,0,.822.068,4.335,4.335,0,0,1,2.818.659c.054.037.174-.023.322-.048-.609-.9-1.658-1.056-2.41-1.571a10.113,10.113,0,0,0-2.182.1c-.9.124-1.448.888-2.292,1.074a1.167,1.167,0,0,0-.456.334,1.8,1.8,0,0,0-.223.32M34.039,60.2a2.534,2.534,0,0,0-1.442,1.24c-.348.7-.38.719-.356,1.236,1.183-.338,2.117-1.2,3.319-1.606l.728.159.072-.3c-.265-.444-.741-.546-1.189-.732Zm79.3-20.968c.283-.725-.211-1.276-.245-1.894a.9.9,0,0,0-.767.362c.217.4.43.8.665,1.2a1.959,1.959,0,0,0,.347.331m-30.18,46.7a1.039,1.039,0,0,0,.886-.149c.372-.219.831.077,1.2-.19.014-.011,0-.058,0-.088-1.487-.149-1.89-.127-2.123.114l.038.314M108.708,154.8c-.088.391-.088.391.306.648.167-.344-.064-.5-.306-.648M88.081,121.429c.064-.421.064-.421-.3-.4,0,.209.146.308.3.4M4.678,37.722c.36.041.36.041.308-.342-.168.055-.3.141-.308.342M79.488,106.4c-.121.131-.153.251.023.365a.267.267,0,0,0-.023-.365m5.733,3.238c.022-.035.065-.073.061-.1a1.553,1.553,0,0,0-.064-.236c-.026.021-.073.041-.075.064a1.255,1.255,0,0,0,.014.243c0,.014.041.023.064.034m.258.5c-.133.115-.105.233-.01.36.163-.118.129-.236.01-.36M64.017,72.267a.266.266,0,0,0,0,.432c.182-.143.114-.287,0-.432m34.567,44.781.108.048.007-.079Zm-3.622,2.813-.057.08.095.012ZM64.315,73.126c-.03.027-.094.064-.089.083.035.139.1.144.153.012.009-.021-.045-.067-.065-.094M79.7,107.3l.074.054.011-.091Zm19.265-.336-.1.046q.074.132.177.02l-.082-.066M78.844,105.6l.073.059.012-.1Zm-37.479-2.782c.027-.027.073-.053.076-.082s-.038-.063-.06-.094c-.026.027-.07.053-.072.082s.036.063.056.094" transform="translate(0 0.003)" fill="#fff"/>
      <path id="Path_19810" data-name="Path 19810" d="M755.576,465.779l.268.2c.212.3-.193.515-.117.8-.8,1.715-1.257,3.553-1.894,5.327-.448,1.247-1,2.46-1.381,3.725s-.916,2.478-1.307,3.74a5.393,5.393,0,0,1-.249.661,17.906,17.906,0,0,0-1.221,3.466,2.8,2.8,0,0,1-.221.519c-.5,1.073-.779,2.223-1.221,3.316q-.638,1.575-1.221,3.172c-.677,1.86-1.322,3.732-2,5.591-.145.394-.225.848-.694,1.032a3.12,3.12,0,0,1-.291,1.57,8.492,8.492,0,0,0-.447,1.2c-.69,1.858-1.287,3.75-2.057,5.581-.383.912-.621,1.884-.953,2.819-.286.8-.586,1.6-.926,2.386s-.573,1.6-.84,2.406a2.049,2.049,0,0,1-.954,1.337l-.855-.286a.829.829,0,0,1-.068-.9c.671-1.82,1.288-3.664,2.047-5.447.522-1.226.92-2.489,1.4-3.723.465-1.189.913-2.384,1.367-3.578.587-1.545,1.244-3.064,1.85-4.6.9-2.285,1.784-4.578,2.558-6.908a17.189,17.189,0,0,0,.841-1.941,32.371,32.371,0,0,1,1.288-3.279,29.248,29.248,0,0,1,1.259-3.316c.318-.684.528-1.417.8-2.126.217-.574.46-1.137.708-1.7.224-.509.205-1.122.667-1.532-.02-.35.2-.628.282-.946a19.963,19.963,0,0,1,1.028-2.784c.741-1.788,1.565-3.542,2.22-5.366.057-.157.224-.275.338-.409" transform="translate(-595.323 -376.329)" fill="#fff"/>
      <path id="Path_19811" data-name="Path 19811" d="M577.311,650.941a3.625,3.625,0,0,0-1.995-.031c-.323.074-.643.128-.969.183-.984.168-1.977.207-2.965.3a30.669,30.669,0,0,0-3.323.678,11.24,11.24,0,0,1-2.331.484,3.056,3.056,0,0,1-1.767.552c-1.579.624-3.277.908-4.805,1.677a.449.449,0,0,1-.141.019.523.523,0,0,1-.567-.337c.027-.08.031-.206.085-.233a21.212,21.212,0,0,1,2.29-1.106,35.19,35.19,0,0,1,3.617-1.224c1.1-.266,2.164-.648,3.255-.941.683-.183,1.382-.318,2.08-.436a23.707,23.707,0,0,1,3.91-.615,14.736,14.736,0,0,1,2.219-.423,6.239,6.239,0,0,1,1.271-.123,8.258,8.258,0,0,0,1.563-.1c.461-.121.943.2,1.363-.132a9.982,9.982,0,0,1,3.388.175,1.987,1.987,0,0,0,.664.011l1.051.812a.659.659,0,0,1-.317.852,1.341,1.341,0,0,1-.381.19,21.864,21.864,0,0,1-2.594.725c-1.538.251-3.077.484-4.6.81-.781.167-1.593.141-2.39.317a11.372,11.372,0,0,1-2.281.088,5.345,5.345,0,0,1-.689-.078c-.019-.35.185-.443.4-.532a20.052,20.052,0,0,1,3.35-1.122c.489-.1.965-.265,1.608-.446m.362-.086a.577.577,0,0,0-.1.066c.044.11.109.117.174.018.006-.009-.048-.056-.073-.084" transform="translate(-451.202 -524.43)" fill="#fff"/>
      <path id="Path_19812" data-name="Path 19812" d="M845.554,425.406l.385.785a20.858,20.858,0,0,0-.81,3.377,6.512,6.512,0,0,1-.481,1.371c.03.1.126.253.094.363-.176.6-.085,1.244-.265,1.814-.4,1.272-.367,2.62-.772,3.883a.373.373,0,0,0-.011.142c.1,1.246-.339,2.438-.357,3.676a8.6,8.6,0,0,1-.256,1.67c-.33,1.521-.413,3.078-.743,4.6a14.424,14.424,0,0,0-.425,2.8,7.263,7.263,0,0,1-.31,1.953,6.665,6.665,0,0,0-.205,1.688,13.212,13.212,0,0,1-.216,2.834,1.437,1.437,0,0,0,.121,1.22c-.208.379-.413.7-.89.711-.091-.08-.242-.152-.293-.267a5.238,5.238,0,0,1-.363-3.2,5.908,5.908,0,0,0,.152-1.4,20.468,20.468,0,0,1,.537-4.352c.138-.791.275-1.587.374-2.38a6.991,6.991,0,0,1,.565-1.939,16.7,16.7,0,0,1,.478-4.03c.148-.886.24-1.78.4-2.667.22-1.252.44-2.5.687-3.75a24.71,24.71,0,0,1,.908-3.263c.211-.611.245-1.289.423-1.926a30.67,30.67,0,0,1,1.278-3.721" transform="translate(-678.404 -343.709)" fill="#fff"/>
      <path id="Path_19813" data-name="Path 19813" d="M875.813,503.519c-.557,1.044-.969,2.044-1.527,2.982-.531.892-.971,1.838-1.454,2.759-.814,1.554-1.583,3.135-2.46,4.653A35.483,35.483,0,0,1,868,517.933a.762.762,0,0,0-.162.233,12.555,12.555,0,0,1-1.327,2.652,7.092,7.092,0,0,0-.811,1.813,1.633,1.633,0,0,1-.67,1.044,1.3,1.3,0,0,1-1.188-.138,1.833,1.833,0,0,1,.267-1.273,19.257,19.257,0,0,1,1.321-2.67c.263-.449.527-.9.786-1.35a37.6,37.6,0,0,1,2.047-3.409c.667-.923,1.14-1.948,1.769-2.888,1.21-1.808,2.065-3.832,3.4-5.577a24.558,24.558,0,0,0,1.434-2.453.7.7,0,0,1,.955-.4" transform="translate(-697.908 -406.775)" fill="#fff"/>
      <path id="Path_19814" data-name="Path 19814" d="M723.874,408.771c-.345-.071-.248-.333-.243-.627a5.185,5.185,0,0,1,.4-.509,10.8,10.8,0,0,1,2.481-2.091c1-.529,1.974-1.106,2.982-1.619,1.143-.582,2.381-.9,3.549-1.408.215-.093.454-.139.66-.246a3.307,3.307,0,0,1,1.688-.365,7.979,7.979,0,0,1,3.164-1.081c1.36-.306,2.778-.326,4.16-.564a1.019,1.019,0,0,1,.554.06,2.373,2.373,0,0,0,1.653-.009,4.192,4.192,0,0,1,1.771,1.06c.2.664-.228,1.138-.29,1.678l-.637.549c-.241.015-.433.045-.63-.176-.194-.477.149-1.077-.145-1.609a.818.818,0,0,0-.656-.188,15.833,15.833,0,0,0-2.707.033c-1.39.238-2.847.125-4.168.74a27.161,27.161,0,0,0-4.084,1.156,4.525,4.525,0,0,0-1.056.391,4.5,4.5,0,0,1-1.051.415,16.926,16.926,0,0,0-4.453,2.085,25.72,25.72,0,0,0-2.421,1.725,1.35,1.35,0,0,0-.551.633Z" transform="translate(-584.65 -323.381)" fill="#fff"/>
      <path id="Path_19815" data-name="Path 19815" d="M885.443,713.8a2.669,2.669,0,0,1-1,1.011c-.743-.094-1.478.229-2.324-.041l-1.032-.7a6.831,6.831,0,0,0-1.073-1.332v-.785l.395-.239L882,713.372l1.016.253a1.1,1.1,0,0,0,.693-.316v-.53a5.786,5.786,0,0,0-2-1.6,9.194,9.194,0,0,0-1.8-.835c-.51-.151-.807-.7-1.392-.651a18.938,18.938,0,0,0-4.589-1.329,17.7,17.7,0,0,0-2.779-.2c-.432.3-.914-.385-1.339.067l-1.352.09c-.343-.384-.053-.546.226-.815.429-.022.947-.073,1.465-.068a2.142,2.142,0,0,0,1.1-.178,1.03,1.03,0,0,1,.964.019,2.114,2.114,0,0,0,.83.164,7.515,7.515,0,0,1,2.114.157c.614.228,1.291.226,1.927.431a5.225,5.225,0,0,1,.932.308c.874.477,1.839.73,2.742,1.134a3.005,3.005,0,0,1,1.118.587c.248.273.6.249.9.369a7.029,7.029,0,0,1,2.675,3.371" transform="translate(-701.545 -571.348)" fill="#fff"/>
      <path id="Path_19816" data-name="Path 19816" d="M834.305,778.271a2.136,2.136,0,0,1,1.03-.957,5.709,5.709,0,0,0,.922-.886l.9.262c.162.146.167.283.117.515.012-.042.014.024-.016.045a9.188,9.188,0,0,0-.993.993,3.511,3.511,0,0,1-1.2.731c-.669.251-1.228.688-1.869.977a5.12,5.12,0,0,1-.621.183,3.973,3.973,0,0,1-1.735,1.058,2.054,2.054,0,0,0-.61.34,13.87,13.87,0,0,1-2.86,1.526c-.839.313-1.614.794-2.425,1.184-.25.121-.545.153-.782.291a5.631,5.631,0,0,0-.723.608,4.862,4.862,0,0,0-1.365.527,2.972,2.972,0,0,1-1.493.4,1.957,1.957,0,0,1-.495-.141l1.02-.871a12.5,12.5,0,0,0,2.666-1.325,3.184,3.184,0,0,1,1.691-.6c.093-.115.2-.37.389-.461a45.219,45.219,0,0,0,4.728-2.508,16.462,16.462,0,0,0,2.546-1.509,4.452,4.452,0,0,1,1.174-.38" transform="translate(-662.599 -627.32)" fill="#fff"/>
      <path id="Path_19817" data-name="Path 19817" d="M865.159,648.355a1.388,1.388,0,0,1-.884-.037c0-.077-.022-.178.017-.233a1.515,1.515,0,0,1,.442-.532,24.8,24.8,0,0,0,3.234-2.519c.287-.245.588-.474.882-.707a17.425,17.425,0,0,0,1.766-1.39,6.752,6.752,0,0,1,1.88-1.478c.857-.4,1.495-1.157,2.688-1.372a.874.874,0,0,1,.881.411,1.914,1.914,0,0,1-1.322.981,3.768,3.768,0,0,0-.989.525c-1.064.7-2.125,1.4-3.22,2.054-.374.222-.576.586-.938.827a23.679,23.679,0,0,0-2.074,1.713,1.515,1.515,0,0,1-.339.257,6.159,6.159,0,0,0-2.023,1.5" transform="translate(-698.292 -517.162)" fill="#fff"/>
      <path id="Path_19818" data-name="Path 19818" d="M665.232,427.023a1.513,1.513,0,0,1,.379,1.451c-.343.229-.637.573-1.075.491-.309-.07-.423-.281-.556-.528V427.8a2.069,2.069,0,0,1,.664-.776Z" transform="translate(-536.467 -345.016)" fill="#fff"/>
      <path id="Path_19819" data-name="Path 19819" d="M647.827,557.992a1.621,1.621,0,0,1,1.2-.042,1.24,1.24,0,0,1-.148,1.5,1.261,1.261,0,0,1-1.03.1l-.358-.409.34-1.141" transform="translate(-523.141 -450.723)" fill="#fff"/>
      <path id="Path_19820" data-name="Path 19820" d="M657.14,486.8c-.544-.3-.234-.746-.4-1.058a1.816,1.816,0,0,1,.725-.643.785.785,0,0,1,.862.338,1.138,1.138,0,0,1,.027.829,1.1,1.1,0,0,1-1.21.534" transform="translate(-530.615 -391.929)" fill="#fff"/>
      <path id="Path_19821" data-name="Path 19821" d="M724.813,444.67c.074.025.182.029.215.08.049.077-.027.155-.1.108-.054-.037-.061-.143-.089-.218Z" transform="translate(-585.617 -359.25)" fill="#fff"/>
      <path id="Path_19822" data-name="Path 19822" d="M625.3,123.216a1.508,1.508,0,0,1-.968.92c-.954.11-1.893.273-2.837.317a12.39,12.39,0,0,1-4.809-.316.787.787,0,0,1-.471-.445.391.391,0,0,1,.272-.466,6.036,6.036,0,0,1,1.925-.448,9.006,9.006,0,0,0,1.267-.155,12.032,12.032,0,0,1,4.944.209,3.259,3.259,0,0,1,.677.383" transform="translate(-497.868 -98.945)" fill="#fff"/>
      <path id="Path_19823" data-name="Path 19823" d="M665.375,154.165a23.109,23.109,0,0,1,2.063,1.13c.017.1.032.192.047.282-.078.049-.153.135-.233.14-.283.017-.568.007-.823.007l-1.584-.937a5.089,5.089,0,0,0-.877-1.085,2.54,2.54,0,0,1-.01-1.46c.515-1.762.921-3.554,1.542-5.288.155-.433.177-.926.357-1.364a.731.731,0,0,1,.542-.412c.268,0,.523.175.451.4-.087.277.049.518-.045.8a29.589,29.589,0,0,0-1.029,4.109,7.411,7.411,0,0,1-.589,1.889,1.748,1.748,0,0,0,.187,1.783" transform="translate(-536.367 -117.298)" fill="#fff"/>
      <path id="Path_19824" data-name="Path 19824" d="M706.9,126.425c.178.334.42.529.377.848-.064.061-.122.167-.193.176a8.52,8.52,0,0,0-1.274.145,2.349,2.349,0,0,1-1.391.043,3.558,3.558,0,0,0-1.131-.08,8.894,8.894,0,0,1-2.388-.34,6.1,6.1,0,0,1-.653-.27,1.16,1.16,0,0,1-.548-.415c-.2-.456.013-.737.464-1.022.38,0,.854,0,1.328,0s.909.254,1.378.065c.368.312.812,0,1.221.162a9.852,9.852,0,0,0,1.376.316c.46.109.916.236,1.433.371" transform="translate(-565.269 -101.405)" fill="#fff"/>
      <path id="Path_19825" data-name="Path 19825" d="M666.111,214.734l1.117-1.015c.476.08.643.437.86.731.029.28-.16.439-.33.6a5.878,5.878,0,0,1-3.454,1.5,6.319,6.319,0,0,0-1.4.249,10.076,10.076,0,0,0-2.105-.251,7.9,7.9,0,0,1-4.157-1.646.393.393,0,0,1-.148-.5c.244-.135.409.126.627.156a1.142,1.142,0,0,1,.51.219,3.885,3.885,0,0,0,1.862.609c.558.084,1.111.214,1.672.273a6.659,6.659,0,0,0,1.425.024c.638-.071,1.274-.2,1.905-.318a9.11,9.11,0,0,0,1.618-.629" transform="translate(-530.386 -172.675)" fill="#fff"/>
      <path id="Path_19826" data-name="Path 19826" d="M713.605,150.219l.689.982q.036.679.075,1.4l-.378,1.076a1.43,1.43,0,0,1-.826.456,1.188,1.188,0,0,1-1.25-.336,3.4,3.4,0,0,1,.15-3.555l.682-.262.858.235" transform="translate(-574.85 -121.18)" fill="#fff"/>
      <path id="Path_19827" data-name="Path 19827" d="M635.084,150.278a3.643,3.643,0,0,0-.281,1.32l-.549.615a1.949,1.949,0,0,1-1.343.022,1.9,1.9,0,0,1-.67-1.483c-.025-.569.014-1.14.023-1.606a2.741,2.741,0,0,1,.95-1.065,1.471,1.471,0,0,1,1.172.3c.58.465.356,1.242.7,1.9" transform="translate(-510.817 -119.613)" fill="#fff"/>
      <path id="Path_19828" data-name="Path 19828" d="M679.651,240.684a5.006,5.006,0,0,1-3.087.58l-.789-.348a.364.364,0,0,1,.15-.479,7.281,7.281,0,0,0,2.109-.274,3.037,3.037,0,0,1,1.125.028c.193.018.346.146.491.494" transform="translate(-545.97 -194.002)" fill="#fff"/>
      <path id="Path_19829" data-name="Path 19829" d="M631.821,253.676c-.431.032-.618-.046-.578-.433l1.45-.943.166.342a3.2,3.2,0,0,1-1.038,1.034" transform="translate(-510.013 -203.847)" fill="#fff"/>
      <path id="Path_19830" data-name="Path 19830" d="M624.848,246.631a.616.616,0,0,1,.458.4c-.276.14-.55.29-.834.418s-.4.539-.779.533c-.259,0-.277-.195-.308-.4a3.157,3.157,0,0,1,1.463-.945" transform="translate(-503.668 -199.267)" fill="#fff"/>
      <path id="Path_19831" data-name="Path 19831" d="M666.207,269.16l-.435-.4a1.923,1.923,0,0,1,.964-1.3c.265.771-.333,1.115-.529,1.7" transform="translate(-537.915 -216.1)" fill="#fff"/>
      <path id="Path_19832" data-name="Path 19832" d="M737.044,247.749c-.137-.011-.307.026-.406-.04-.338-.229-.652-.494-.976-.745-.018-.16.039-.266.223-.278.783.436.77.45,1.133,1.091Z" transform="translate(-594.381 -199.31)" fill="#fff"/>
      <path id="Path_19833" data-name="Path 19833" d="M687.437,269.3a.845.845,0,0,1-.343.889h-.235c-.046-.043-.116-.087-.11-.106.1-.308.211-.612.313-.9.175-.058.3-.032.375.114" transform="translate(-554.864 -217.467)" fill="#fff"/>
      <path id="Path_19834" data-name="Path 19834" d="M725.458,253.977a.5.5,0,0,1,.5-.119,1.319,1.319,0,0,1,.689.641c-.059.039-.131.124-.174.111a1.563,1.563,0,0,1-1.014-.632" transform="translate(-586.139 -205.093)" fill="#fff"/>
      <path id="Path_19835" data-name="Path 19835" d="M656.959,253.359a1.011,1.011,0,0,1,.1,1.127l-.271.044c-.287-.434.187-.654.166-1.171" transform="translate(-530.586 -204.703)" fill="#fff"/>
      <path id="Path_19836" data-name="Path 19836" d="M696.987,265.689l-.425-.038a1.035,1.035,0,0,1-.068-.959c.357.245.224.633.492,1" transform="translate(-562.67 -213.86)" fill="#fff"/>
      <path id="Path_19837" data-name="Path 19837" d="M716.112,261.953l.219-.217c.413.115.408.425.558.645-.392.19-.558-.072-.776-.428" transform="translate(-578.588 -211.471)" fill="#fff"/>
      <path id="Path_19838" data-name="Path 19838" d="M680.287,277.081l-.143-.332c.36-.16.36-.16.5.192-.068.146-.2.144-.355.14" transform="translate(-549.527 -223.517)" fill="#fff"/>
      <path id="Path_19839" data-name="Path 19839" d="M712.057,276.738c-.073-.027-.178-.034-.211-.087a.075.075,0,0,1,.1-.108c.054.033.064.138.094.211Z" transform="translate(-575.129 -223.424)" fill="#fff"/>
    </g>
  </g>
</svg>
