<svg xmlns="http://www.w3.org/2000/svg" xmlns:xlink="http://www.w3.org/1999/xlink" width="194.403" height="201.751" viewBox="0 0 194.403 201.751">
  <defs>
    <clipPath id="clip-path">
      <rect id="Rectangle_3604" data-name="Rectangle 3604" width="194.403" height="201.751" transform="translate(0 0)" fill="#306177"/>
    </clipPath>
  </defs>
  <g id="Group_12471" data-name="Group 12471" transform="translate(0 0.002)">
    <g id="Group_12471-2" data-name="Group 12471" transform="translate(0 -0.002)" clip-path="url(#clip-path)">
      <path id="Path_19809" data-name="Path 19809" d="M65.794,82.072c-.011-.145.028-.321-.041-.429-.758-1.195-1.4-2.465-2.2-3.628a15.812,15.812,0,0,1-1.2-1.839c-.656-1.322-1.716-2.369-2.411-3.658a15.925,15.925,0,0,1-1.6-2.606,3.366,3.366,0,0,1-.756-.874c-.285-.445-.665-.83-.968-1.265a15.206,15.206,0,0,0-.931-1.319c-.444-.513-.728-1.148-1.124-1.709-1.045-1.482-2.3-2.785-3.422-4.2-.486-.612-.984-1.215-1.473-1.825a9.425,9.425,0,0,1-1.423-1.678c-.04-.083-.137-.138-.2-.209-1.545-1.625-2.86-3.447-4.378-5.1-.694-.754-1.416-1.492-2.063-2.293-.308-.381-.619-.76-.94-1.153l-1.13-.451c-.809-.169-1.46.5-1.886.342-.53-.187-.662-.322-.733-.516.048-.654.642-.637,1.045-.849a.919.919,0,0,0,.023-.845c-.367.04-.736.068-1.1.124-.333.051-.661.132-.988.2a1.332,1.332,0,0,1-.657-.55c-.05-.253.135-.349.3-.505l.827-.145c.332-.277.2-.606.161-.936-.382.066-.7.125-1.028.179s-.671.107-1.041.166c-.319-.21-.828-.083-1.124-.423.032-.144.023-.262.077-.317.273-.279.577-.529.842-.815a.483.483,0,0,0,.133-.554,3.016,3.016,0,0,0-1.081-.049,3.368,3.368,0,0,1-1.13-.039,4.106,4.106,0,0,0-1.081-.113c-.288-.187-.476-.338-.387-.648.4-.407.958-.258,1.459-.356a1.011,1.011,0,0,0,.22-1.2c-.436-.222-.694.287-1.1.228a1.239,1.239,0,0,0-1.111.263,4.972,4.972,0,0,0-.582-.211c-.238-.054-.487-.06-.726-.108a.627.627,0,0,1-.449-.365c.039-.379.353-.534.678-.75a3.437,3.437,0,0,0,1.484.077,1.151,1.151,0,0,0,.018-.9c-.316-.052-.442.282-.681.369a2.639,2.639,0,0,1-1.14-.034c-.353-.032-.754.18-1.14.105-.428-.082-.845-.222-1.258-.334-.033-.388.291-.477.548-.724l1.205-.1c.1-.372-.108-.583-.255-.819l-.633.51c-1.207.255-2.188-.485-3.3-.921l.275-.69c.551-.3,1.045.113,1.564.106.049-.374.049-.374-.411-1.111a.794.794,0,0,1,.394-.856c.123.026.238.017.305.069a3.43,3.43,0,0,1,1.082,1.185,2.424,2.424,0,0,0,.388.459l.356-.533h.452l1.213,2.452a1.009,1.009,0,0,0,.872.155l.411-.514c.2.009.221.027.892.918a5.77,5.77,0,0,0,.593,1.559,2.345,2.345,0,0,1,.785-1.234,1.5,1.5,0,0,1,.5,1.251,2.284,2.284,0,0,0,.448,1.5c.249-.3.048-.834.624-.99a4.149,4.149,0,0,1,.773,2.636c.053.071.078.14.112.145.185.027.373.039.457.046.6-.247.4-.849.782-1.17.454.1.376.6.6.875a3.575,3.575,0,0,0,.535,2.056c.527.008.305-.543.583-.768a.422.422,0,0,1,.52-.054c.039.062.129.141.134.226.033.539.049,1.079.067,1.618a.9.9,0,0,0,.291.663c.121.092.261.073.459-.008l.511-.95.325-.081c.059.07.158.135.169.212a13.166,13.166,0,0,0,.014,2.144,5.264,5.264,0,0,1,1.33,1.41,1.883,1.883,0,0,0,.388.442,15.112,15.112,0,0,1,2.468,2.67c1.014.641,1.49,1.788,2.393,2.54a8.237,8.237,0,0,1,.849,1.008c.289.334.576.671.892.979A9.873,9.873,0,0,1,50.988,58.5a10.154,10.154,0,0,0,1.372,1.688,26.718,26.718,0,0,1,3.254,4.152c.844.771,1.18,1.894,1.917,2.749.668.774,1.233,1.637,1.842,2.457.205-.059.152-.207.107-.315a24.1,24.1,0,0,1-1.123-3.005,18.5,18.5,0,0,1-.5-1.974,5.164,5.164,0,0,0-.567-1.592,8.942,8.942,0,0,0-.427-2.657,15.764,15.764,0,0,1-.254-2.727,45.251,45.251,0,0,0-2.733-5.228,1.258,1.258,0,0,1-.148-.253,10.194,10.194,0,0,0-1.138-2.376,15.075,15.075,0,0,1-1.136-2.364c-.392-.826-.648-1.73-1-2.586a9.884,9.884,0,0,0-.729-1.75,3.39,3.39,0,0,1-.267-1.01l-.613-.155c-.377-.426-.462-1.114-1.011-1.509-.149-.107-.147-.423-.214-.643l.708-.274-.037-.311-.948-.5a.579.579,0,0,1-.059-.649l.456-.317c0-.152-.028-.3-.179-.36-.364-.141-.745-.241-1.1-.4a1.556,1.556,0,0,1-.384-.347.664.664,0,0,1,.187-.592c.213-.26.562-.155.871-.311L46.7,34.73l-1.13-.505a.67.67,0,0,1-.121-.647l.459-.347a.9.9,0,0,0-.025-.729c-.1-.08-.194-.223-.319-.255a1.446,1.446,0,0,1-.888-.712c-.006-.463.421-.468.687-.593v-.382c-.7-.289-1.513-.419-1.932-1.18a.628.628,0,0,1,.311-.616c.227-.2.6.041.794-.274.056-.33-.226-.524-.353-.873a2.093,2.093,0,0,1-1.373-.906.807.807,0,0,1,.146-.758l.69-.4-1.377-1.377.229-.64c.165-.246.551-.123.562-.421,0-.1.021-.165,0-.19-.439-.462-.884-.92-1.37-1.423l.22-.662c.212-.254.555-.126.807-.224,0-.144.039-.286-.006-.32a5.34,5.34,0,0,1-1.128-1.316v-.466l.516-.295c.148-.421-.377-.81-.08-1.244.143-.2.334-.148.566-.091l.317.447c.489-.118.608-.593.868-.92.227.028.346.165.455.41a11.089,11.089,0,0,1-.56,2.058c.18.521.61.182.795.443.022.09.087.2.058.267a2.552,2.552,0,0,0-.246,1.424c-.113.017-.307-.031-.157.2l.116-.238c.321-.076.58-.395,1.038-.215.121.05.017.189,0,.324a1.257,1.257,0,0,0,.071.343,9.185,9.185,0,0,0-.9,2.583c.505-.413.595-.947,1.1-.889.052.076.144.149.149.228.018.293.007.588.007.871-.116.564-.7.977-.519,1.634.3.052.222-.265.366-.3.24-.143.459-.226.667,0,.025.1.091.2.067.277-.168.557-.356,1.107-.533,1.661-.059.186-.04.3.1.823.353-.141.392-.548.658-.779h.309l.277,1a6.726,6.726,0,0,0-.742,1.673l.3.37c.215.047.024.183.132.026.248-.361.431-.774.925-.982a5.03,5.03,0,0,1-.376,2.807l.273.566.581-.964c.164-.034.26.055.339.19.1.86-.656,1.618-.343,2.595l.593-.769.366.021a1.559,1.559,0,0,1-.021,1.4,2.216,2.216,0,0,0-.04,1.723c.746-1.074.746-1.074,1.32-1.016a7.621,7.621,0,0,1-.833,2.242c.24.467.539.046.785.143a.92.92,0,0,1-.022.973,1.219,1.219,0,0,0-.114,1.132c.341.658.406,1.395.677,2.055a82.923,82.923,0,0,0,3.975,8.949c.374.671.7,1.365,1.062,2.046.013.026.093.016.141.023.039.08-.04.315.19.143l-.218-.114c.01-.784.014-1.567.033-2.351a4.936,4.936,0,0,1,.236-2.1l-.207-.52c.561-1.1-.053-2.406.506-3.55a11.378,11.378,0,0,1,.391-2.744,25.267,25.267,0,0,1,.951-3.809c.631-2.148,1.524-4.195,2.328-6.274a20.745,20.745,0,0,1,1.339-2.427,21.416,21.416,0,0,1,2.163-3.136l-.258-.7a.777.777,0,0,1,.7-.442,1.144,1.144,0,0,0,.937-.87l-.124-.521a2.415,2.415,0,0,1,.845-1.153c.37.126.082.558.368.718H66.5c.325-.35-.238-.689-.029-.953.269-.341-.27-.662.087-.98l.413-.06c.385.326.632.883,1.329.8.414-.351-.054-.743-.073-1.147a.556.556,0,0,1,.444-.507c.457.026.315.738.817.721.4-.431-.032-.95.3-1.645l.165-.19c.393-.017.475.376.846.436L71,20.327c.227-.388-.075-.875.211-1.258.2-.152.351-.086.456.117.066.127.108.27.294.262.074-.047.2-.082.217-.147a2.083,2.083,0,0,1,.538-1.147c.348-.011.406.612.88.372l-.119-.648a.832.832,0,0,1,.375-.614c.443,0,.412.471.645.69l.4-.3L75,16.8a.474.474,0,0,1,.486-.242c.317,0,.286.365.508.479.507-.286.521-.922.907-1.3h.261c.307.391.034.877.275,1.332l.871.2a.626.626,0,0,1,.083.629c-.357.315-.939.191-1.275.587l.108.339A3.233,3.233,0,0,1,75.6,19.1c-.106.208.039.366.115.556l-.233.3c-.346.218-.579-.1-.859-.111s-.587-.009-.881-.012a.751.751,0,0,0-.45-.51c-.162.089-.339.162-.329.439a1.354,1.354,0,0,0,.82.024c-.01.322.376.26.468.483l-.038.309-1.482.485c-.011.259.279.211.35.4l-.276.375-1.715.057c-.094-.284-.252-.355-.5-.161.148.186.341.142.528.131-.08.378.375.417.448.72-.138.264-.4.128-.609.158a6.231,6.231,0,0,1-.735.037c-.24.005-.48,0-.763,0,.038.357.346.283.491.41a4.739,4.739,0,0,0,.471.324l-.024.353a4.5,4.5,0,0,1-1.435.064,2.63,2.63,0,0,1-1.285-.194c-.038.463-.038.463.652.972-.159.427-.718.3-.925.69l-.683-.15-.127.873a3.081,3.081,0,0,1-1.264.557c-.58.29-.715.866-1.061,1.274a17.582,17.582,0,0,0-1.408,1.877,25.4,25.4,0,0,0-2.7,5.5c-.11.321-.244.634-.372.95a37.757,37.757,0,0,0-1.409,5.064,37.525,37.525,0,0,1-.74,3.722,2.933,2.933,0,0,0-.073.871,16.811,16.811,0,0,1-.122,2.94,19.259,19.259,0,0,0-.187,3.5,8.537,8.537,0,0,0,.173,2.186,13.8,13.8,0,0,1,.116,2.527c.633.91.943,2.009,1.583,2.949a7,7,0,0,1,.7,1.762,3.213,3.213,0,0,0,.832,1.389c.029-.224.1-.388.058-.506a6.479,6.479,0,0,1-.252-2.619,8.442,8.442,0,0,1,.216-2.625c.222-.638.011-1.374.359-2A28.569,28.569,0,0,1,62.9,49.148c.5-1.211.939-2.45,1.4-3.679a8.173,8.173,0,0,1,.955-1.967,1.191,1.191,0,0,0,.232-.53,8,8,0,0,1,.841-2.331,9.684,9.684,0,0,0,.963-3.354,4.975,4.975,0,0,0,.284-1.875,8.013,8.013,0,0,1,.65-2.475.617.617,0,0,1,.6-.116c.482.524.45,1.267.79,1.783V36.87a4.79,4.79,0,0,0-.626,1.97,2.985,2.985,0,0,1-.274.824,40.818,40.818,0,0,0-1.44,5.5,6.549,6.549,0,0,0-.329,1.869,1.955,1.955,0,0,1-.139.561c-.491,2.033-1.212,4-1.62,6.058a1.377,1.377,0,0,1-.137.415,7.591,7.591,0,0,0-.641,2.339,44,44,0,0,0-.811,5.035c-.043.465.171.951-.138,1.393a5.109,5.109,0,0,1,.258,2.107c.218.777.405,1.483.617,2.182a2.734,2.734,0,0,0,.377.937c.542.667.6,1.54,1.037,2.242a3.748,3.748,0,0,0,.514,1.513c.734,1.857,1.5,3.7,2.173,5.581a20.609,20.609,0,0,0,1.221,3.124c.475.85.853,1.746,1.341,2.591.8,1.388,1.47,2.858,2.135,4.32a24.354,24.354,0,0,0,1.743,3.39,4.96,4.96,0,0,1,.354.644A20.26,20.26,0,0,0,76.752,94.3a7.74,7.74,0,0,1,.535,1.042c.142.3.319.579.451.861.168-.054.312-.06.332-.112q.584-1.574,1.138-3.159a7.722,7.722,0,0,0,.181-.778c-.557-.883-.665-1.978-1.146-2.948s-.8-1.993-1.238-2.969a11.873,11.873,0,0,0-.813-2.022,10,10,0,0,1-.872-2c-.268-.68-.5-1.373-.761-2.056a16.776,16.776,0,0,0-.98-2.288,7.529,7.529,0,0,1-.475-1.222c-.368-1.057-.853-2.073-1.259-3.118-.565-1.454-1.089-2.925-1.654-4.379A38.784,38.784,0,0,1,69.1,64.93a1.164,1.164,0,0,1,0-.585c.326-1.159.134-2.454.917-3.492a6.976,6.976,0,0,1,.759-2.483,10.962,10.962,0,0,0,.935-1.44,18.03,18.03,0,0,1,1.726-2.364c.333-.425.719-.807,1.1-1.225a6.892,6.892,0,0,1,1.154-2.166,12.208,12.208,0,0,0,1.678-3.869c.143-.653.324-1.3.446-1.959a13.581,13.581,0,0,0,.092-1.894c.117-.328.176-.674.5-.862.092.027.23.027.261.085a2.432,2.432,0,0,1,.352.794,25.987,25.987,0,0,1,.382,4.66c-.052.88-.009,1.766-.009,2.554-.21.6-.429,1.091-.557,1.608a11.642,11.642,0,0,1-1.254,2.958,12.9,12.9,0,0,1-1.611,2.072,6.688,6.688,0,0,0-1.3,1.768,8.812,8.812,0,0,0-.643,2.98c-.016.293,0,.588-.026.879a1.542,1.542,0,0,1-.158.4,1.6,1.6,0,0,1-.049,1.56,7.2,7.2,0,0,1,.208.836c.038.29.009.589.023.883a10.687,10.687,0,0,0,.157,2.337,11.546,11.546,0,0,0,.371,2.154c.2.415-.006.972.259,1.331l-.13.569c.009.137,0,.2.018.233a15.618,15.618,0,0,1,.9,3.08c.35,1.008.625,2.041.929,3.064.11.371.193.751.324,1.113a5.758,5.758,0,0,0,.478,1.072c.248.4.166.87.315,1.273.475,1.284.557,2.671,1.094,3.941.321.759.52,1.568.8,2.347.041.115.2.189.309.287.053-.11.138-.2.129-.281a5.45,5.45,0,0,1,.584-2.691,9.725,9.725,0,0,1,1.216-2.326,12.948,12.948,0,0,0,1.148-2.342c.36-.748.763-1.476,1.088-2.239a6.449,6.449,0,0,1,.853-1.363,8.32,8.32,0,0,1,.951-2.27c.372-.507.574-1.135.915-1.669a13.086,13.086,0,0,1,3.866-4.168c.532-.341,1-.779,1.526-1.194a6.329,6.329,0,0,0,2.456-.836,10.181,10.181,0,0,1,1.9-.728c.326-.1.648-.211.974-.309s.65-.206.982-.274c.286-.058.564-.119.847-.2,1.537-.459,3.089-.869,4.635-1.3.28-.078.564-.148.835-.25,1.871-.7,3.834-1.128,5.663-1.945.045-.02.086-.063.131-.066,1.586-.112,2.929-1.051,4.479-1.312a7.772,7.772,0,0,0,1.671-.717,13.013,13.013,0,0,0,.774-2.139,4.751,4.751,0,0,1,.872-2.139,5.548,5.548,0,0,1,2.586-2.2,12.086,12.086,0,0,0,.394-3.356c-.586-1.019-1.12-2.009-1.716-2.96a7.348,7.348,0,0,1-.713-1.433c-.3-.826-.682-1.62-.992-2.442a5.161,5.161,0,0,1-.485-2.122l-1.6-1.089c-.2-.649-.882-1.061-.823-1.747l-.962-.914a1.2,1.2,0,0,1-.1-.224c-.106-.822-.243-1.642-.3-2.468a15.422,15.422,0,0,1,.012-2.062c.041-.629.164-1.251.237-1.878a7.277,7.277,0,0,1,.272-1.878,1.049,1.049,0,0,0-.091-1.11c-.337.082-.459.331-.559.625a4.824,4.824,0,0,1-.343.661c-.125-.1-.28-.171-.342-.289a5.559,5.559,0,0,1-.729-2.949,25.461,25.461,0,0,1,.629-3.807,4.538,4.538,0,0,1-.64-1.868,3.089,3.089,0,0,0-.311-.97,8.736,8.736,0,0,1-.878-3.375c0-.134-.116-.267-.186-.415.08-.315.184-.638.24-.969a10.219,10.219,0,0,1,1.359-4.277,5.581,5.581,0,0,1,1.886-2.734c.469-.5.967-.977,1.466-1.449a7.593,7.593,0,0,1,.8-.65,15.26,15.26,0,0,0,1.32-.909,12.83,12.83,0,0,1,4.531-2.326c.778-.27,1.58-.469,2.373-.7a9.582,9.582,0,0,1,1.576-.318c.723-.081,1.445-.23,2.157-.37.584-.115,1.16-.137,1.741-.193a5.622,5.622,0,0,0,1.594-.2,1.73,1.73,0,0,1,1.285.119,2.91,2.91,0,0,1,1.73-.11,7.127,7.127,0,0,0,2.474.181c.038.085-.012.3.2.13l-.222-.1c.132-.458-.44-.794-.194-1.306a.538.538,0,0,1,.472-.209A14.086,14.086,0,0,1,141.822.6l.7-.6a13.843,13.843,0,0,1,2.667,1.049,8.284,8.284,0,0,1,2.287,1.643c.576-.1.185-.569.4-.665.187-.257.388-.225.642-.216a5.971,5.971,0,0,1,1.513,1.676.593.593,0,0,0,.384-.454L150.3,2.47l.331-.3,1.1.765c.094.155.206.317.3.49.361.694.715,1.392,1.054,2.053l.136,1.215c.1,0,.194.02.249-.017a2.237,2.237,0,0,0,.622-.808c.12-.206.225-.441.5-.507.487-.009.559.479.869.667a7.351,7.351,0,0,1-.17,3.1,9.863,9.863,0,0,0-.236,1.837,21.929,21.929,0,0,1,2.54,5.764l-.711,1.681a16.248,16.248,0,0,1,2.7,5.96A12.921,12.921,0,0,1,158.43,27.6a20.571,20.571,0,0,1-1.489,3.007c-.608.957-.905,2.056-1.455,3.132a12.486,12.486,0,0,1,.37,3.114,7.751,7.751,0,0,1-.483,3.263l-.94,1.106-1.407.639a8.871,8.871,0,0,1-1.286,2.909,1.665,1.665,0,0,0-.3.664,3.647,3.647,0,0,1-.86,1.662c-.063.224.067.385.149.554-.234.281-.721.27-.789.74.034.43.7.335.7.808a.527.527,0,0,1-.55.044c-.132-.042-.257-.105-.367-.151l-.485.262-1.624,2.225a32.938,32.938,0,0,1-.233,3.535,2.676,2.676,0,0,0,1.112,1.343,18.7,18.7,0,0,1,2.4,4.925c1.088.3,2.082.914,3.186,1.3,1.01.351,1.965.865,2.942,1.309.223.1.438.293.663.3a5.877,5.877,0,0,1,2.172.817,6.56,6.56,0,0,1,1.972.937c.778.123,1.411.638,2.205.77a8.072,8.072,0,0,1,1.614.684c1.348.554,2.709,1.076,4.047,1.652a9.339,9.339,0,0,1,1.978.906,1.4,1.4,0,0,0,.395.186,12.719,12.719,0,0,1,2.446.922,21.759,21.759,0,0,0,2.27,1.012,5.934,5.934,0,0,1,1.283.685c1.048.795,2.107,1.576,3.186,2.328a6.757,6.757,0,0,1,1.313,1.354,8.7,8.7,0,0,1,1.877,4.493,10.189,10.189,0,0,0,.284,1.278,10.212,10.212,0,0,1,.3,3.2A8.3,8.3,0,0,0,185.4,88.1a20.048,20.048,0,0,0,.513,2.724c-.117.559.234,1.043.261,1.574.025.493.173.96.242,1.435a17.739,17.739,0,0,0,.6,3.006.877.877,0,0,1-.126.7,5.946,5.946,0,0,1,.486,2.275c.444,1.008.076,2.145.515,3.165a2.971,2.971,0,0,1,.056,1.024,3.317,3.317,0,0,0,.2,1.447.375.375,0,0,1,.048.139,19.4,19.4,0,0,0,.522,4.062c.051.188-.179.445-.1.7.138.467.286.932.408,1.329-.178.747.223,1.388.13,2.07s.508,1.28.319,1.984a8.671,8.671,0,0,1,1.118,2.089c.128,2.326.079,2.575-.754,4.008.068.714.149,1.373.188,2.035a17.9,17.9,0,0,0,.274,2.165,11.491,11.491,0,0,1,.026,2.041l.551,1.208a2.838,2.838,0,0,1-.219,1.807,4.322,4.322,0,0,0,.624,1.56,8.4,8.4,0,0,1,.707,1.763c.412,1.706,1.129,3.3,1.7,4.954a12.1,12.1,0,0,1,.665,2.64,3.6,3.6,0,0,1-.077,1.59c-.216.647-.046,1.373-.385,2.007-.136.254-.186.554-.322.808-.365.684-.765,1.35-1.132,2.034a2.073,2.073,0,0,0-.348,1.106,1.857,1.857,0,0,1-.143.708,11.146,11.146,0,0,0-.5,2.126,8.26,8.26,0,0,1-1.536,3.756,9.692,9.692,0,0,1-2.345,2.4,62.973,62.973,0,0,1-6,4.713c-.836.666-1.816,1.149-2.7,1.755a25.015,25.015,0,0,1-3.678,2.128,1.462,1.462,0,0,0-.73.717,3.266,3.266,0,0,1,.186.837c-.054,1.279.305,2.521.3,3.792a.946.946,0,0,1-.111.289,5.107,5.107,0,0,1,.346,1.932c-.062.694.193,1.335.128,2.013a2.841,2.841,0,0,0,.176,1.447,2.045,2.045,0,0,1,.064.727c.019.59.034,1.179.04,1.769,0,.442-.027.885,0,1.326.021.416.4.8.134,1.246.382.878-.03,1.87.392,2.742a8.823,8.823,0,0,0,.066,2.012,10.409,10.409,0,0,0,.147,2.168,15.393,15.393,0,0,1,.14,1.74,8.015,8.015,0,0,0,.256,2.618c-.069.826.123,1.659-.015,2.436a1.123,1.123,0,0,1-.94.234l-.34-.3c-.05-.118-.088-.164-.086-.208.053-.938-.261-1.837-.291-2.765-.024-.736.017-1.478-.058-2.209a30.632,30.632,0,0,1-.3-4.091,11.835,11.835,0,0,1-.3-3.2,2.142,2.142,0,0,0-.088-.718,3.69,3.69,0,0,1-.158-1.451,7.67,7.67,0,0,0-.218-2.33,3.083,3.083,0,0,1-.074-.875,20.247,20.247,0,0,0-.239-3.215,19.58,19.58,0,0,1-.1-2.791,7.777,7.777,0,0,0-.182-1.744,6.671,6.671,0,0,1-.072-1.759,1.76,1.76,0,0,0-.135-.868.492.492,0,0,0-.656.009,10.334,10.334,0,0,1-2.222,1.118c-.539.216-1.008.6-1.533.857-1.229.6-2.409,1.3-3.652,1.873-1.2.555-2.372,1.169-3.558,1.753a3.61,3.61,0,0,1-.386.142c-2.087-.6-4.63-2.028-5.527-3.456a2.41,2.41,0,0,0-.712.01c-1.028.327-2.107.382-3.152.618-.448.1-.921.06-1.385.181a10.547,10.547,0,0,1-1.321.065c-.724.09-1.448.2-2.16.354-1.233.267-2.431.674-3.668.939-.484.1-.975.108-1.446.216a24.455,24.455,0,0,0-5.856,1.8,12.9,12.9,0,0,0-2,1.224,26.734,26.734,0,0,1-2.478,1.563c-.291.177-.627.285-.907.476a7.1,7.1,0,0,1-3.28,1.124.805.805,0,0,0-.251.133c-.008.049-.039.111-.02.144,1.61,2.691,3.629,5.094,5.409,7.667,1.247,1.8,2.638,3.5,3.98,5.24.081.1.239.155.284.425-.142.543-.669.469-1.04.541a1.7,1.7,0,0,1-.957-.8,13.446,13.446,0,0,1-.912-1.508,2.735,2.735,0,0,0-.595-.828,7.782,7.782,0,0,1-1.2-1.663c-.26-.412-.509-.826-.8-1.223-1.742-2.413-3.346-4.919-4.9-7.456a2.615,2.615,0,0,0-.284-.329,1.775,1.775,0,0,0-1.442.057c.562.933,1.055,1.765,1.561,2.588q1.116,1.814,2.249,3.617c.57.909,1.23,1.757,1.721,2.722.285.561.912.9,1.166,1.5a5.9,5.9,0,0,0,.621.969c.464.692,1.02,1.3,1.542,1.937l-.031.447a1.448,1.448,0,0,1-1.2.232,4.256,4.256,0,0,1-.709-.648c-.879-1.232-1.7-2.507-2.6-3.723a15.142,15.142,0,0,0-1.034-1.758,8.717,8.717,0,0,1-1.11-1.723c-.341-.594-.626-1.221-.962-1.818-.693-1.234-1.393-2.466-2.114-3.683a5.067,5.067,0,0,0-.611-.72.7.7,0,0,0-.731.209.675.675,0,0,0-.119.534c.943,2.112,2.291,3.983,3.26,6a.888.888,0,0,1-1.032.467,15.372,15.372,0,0,1-1.71-3.1c-.565-1.071-1.066-2.177-1.6-3.271a1.753,1.753,0,0,0-.916.374.7.7,0,0,0,.119.687,22.468,22.468,0,0,1,2.088,3.686c.961,1.931,2.289,3.636,3.246,5.561a1.817,1.817,0,0,0,.271.348c.959,1.119,1.5,2.517,2.444,3.565-.079.59-.48.783-.747,1.02a.935.935,0,0,1-.241-.038c-.082-.052-.2-.1-.226-.18-.3-.8-1.052-1.257-1.421-2.024-.484-1.007-1.139-1.931-1.708-2.9-.346-.589-.668-1.193-1-1.787a16.449,16.449,0,0,1-.937-1.66c-.72-1.712-1.76-3.258-2.524-4.946a.814.814,0,0,0-.473-.527.912.912,0,0,0-.005.973,71.656,71.656,0,0,0,3.087,6.8c.491.9.981,1.791,1.493,2.726a.716.716,0,0,1-.9.67c-1.09-.81-1.257-2.255-2.136-3.232-.256.3.013.5.048.722a.84.84,0,0,1-.889.374c-.081-.053-.2-.089-.235-.163-.327-.757-.743-1.469-1.09-2.217-.66-1.422-1.067-2.938-1.711-4.362-.12-.264-.034-.6-.292-.81l-.318.051c-.033.119-.123.264-.1.388a8.829,8.829,0,0,0,.315,1.277,31.932,31.932,0,0,1,1.155,4.071,1.743,1.743,0,0,0,.107.266c.7,1.766,1.141,3.613,1.744,5.406a48.067,48.067,0,0,0,1.911,5.247,3.938,3.938,0,0,1,.055,1.29c-.3.284-.71.226-1.052.387a7.076,7.076,0,0,1-.876-2.328c-.362-1.216-.829-2.389-1.233-3.587-.234-.693-.4-1.407-.63-2.1-.394-1.2-.638-2.446-1-3.651-.277-.929-.559-1.865-.879-2.783-.166-.476-.16-.969-.306-1.43a3.37,3.37,0,0,1-.382-1.357c.006-.068-.115-.147-.224-.277a18.037,18.037,0,0,0-1.644.828c-.58.262-1.15.546-1.745.83h-1.241c-.691-.284-1.54-.453-2-1.379a3.758,3.758,0,0,1,1.619-3.268c-.069-.5-.448-.567-.732-.8l-.61-1.208a5.978,5.978,0,0,1,.284-2.272,4.06,4.06,0,0,0-.786-.667,2.637,2.637,0,0,1-1.23-1.406c-.243-.532-.432-1.088-.569-1.441-.155-.651.379-1,.156-1.459-.136-.166-.261,0-.4,0a3.468,3.468,0,0,1-1.4-1.051c-1.33.023-2.255-.863-3.344-1.483a4.474,4.474,0,0,1-1-1.555,2.614,2.614,0,0,1,.911-2.541,7.982,7.982,0,0,1,2.323-.023l1.032.455c.117-.077.233-.111.274-.186a7.248,7.248,0,0,1,1.822-2.236c-.077-.372-.494-.469-.65-.818a6.347,6.347,0,0,0-1.052-2.171,2.465,2.465,0,0,1-.288-.657c-.4-.884-.738-1.8-1.222-2.65a5.41,5.41,0,0,1-.877-2.288l-.645-.735a34.686,34.686,0,0,1-4.232-.013L94.849,153c-.442,1.67-.872,3.352-1.338,5.025a18.478,18.478,0,0,1-.751,2.213c-.323.766-.705,1.108-1.859,1.929-.117.935-.23,1.934-.37,2.93a13.164,13.164,0,0,1-.344,1.855,4.678,4.678,0,0,0-.174,1,16.572,16.572,0,0,1-.289,2.312,8.805,8.805,0,0,1-.3,2.162,23.377,23.377,0,0,1-.476,3.745c-.067.51.153,1.039-.118,1.529.109,1.285-.477,2.506-.345,3.793-.278.791-.226,1.639-.426,2.443a1.319,1.319,0,0,0-.09.277,35.214,35.214,0,0,1-.61,4.494,26.789,26.789,0,0,0-.385,4.24.751.751,0,0,1-.1.263c-.084.045-.168.127-.251.126-.289,0-.578-.034-.886-.056a21.482,21.482,0,0,1,.349-3.186,2.453,2.453,0,0,1-.155-.866c.116-.553-.109-1.158.257-1.667.213-1.095.423-2.19.643-3.283a2.259,2.259,0,0,1,.153-.39l-.182-.707a17.339,17.339,0,0,0,.55-3.474,1.885,1.885,0,0,1,.1-.723,3.649,3.649,0,0,0,.19-1.45,1.458,1.458,0,0,1,.029-.584,6.6,6.6,0,0,0,.271-2.615,9.846,9.846,0,0,1,.366-2.3,5.29,5.29,0,0,0,.226-1.578,3.053,3.053,0,0,1,.283-1.854c.051-1.4.56-2.739.629-4.14a3.833,3.833,0,0,1,.171-.855,2.069,2.069,0,0,0,.073-1.113c-.342-.536-.938-.3-1.464-.595a5.312,5.312,0,0,0-1.318-1.593c-.556-.4-1.075-.85-1.653-1.211a4.207,4.207,0,0,1-.8-.826l-.437-.106a1.278,1.278,0,0,1-.235-.171c-.676-.772-1.618-1.3-2.1-2.246A13.512,13.512,0,0,1,80,154.312a10.473,10.473,0,0,1-1.829-2.06c-.527-.7-1.066-1.382-1.6-2.071a14.81,14.81,0,0,1-2.485-3.835c-.018-.566-.067-1.205-.053-1.842a6.084,6.084,0,0,0-.845-3.2c-.768-1.36-1.514-2.733-2.161-4.158a6.182,6.182,0,0,0-.479-.752,2.438,2.438,0,0,1,.011-.734,8.348,8.348,0,0,0,.259-2.467,3.149,3.149,0,0,1,.077-1.023A5.921,5.921,0,0,0,71.09,130c.015-1.277,0-2.555,0-3.832,0-.29.052-.58.077-.834l.272-.2c.128-.039.11-.113.117-.21.037-.524.1-1.047.168-1.647l1.365-1.719c.226-1.443.425-2.941.719-4.42a5.376,5.376,0,0,0,.223-1.13,11.857,11.857,0,0,0-.055-2.544,11.873,11.873,0,0,1-2.6.249c-.829.358-1.66.659-2.433,1.069-.612.325-1.335.259-1.917.693a15.08,15.08,0,0,1-1.755.98,2.93,2.93,0,0,1-1.192,1.338c-.887.544-1.479,1.428-2.377,1.942a1.72,1.72,0,0,1-1.035.768c-.291.616-.949.816-1.405,1.243a19.107,19.107,0,0,1-2.074,1.37,1.316,1.316,0,0,1-1.242.19c-.2-.149-.172-.346-.145-.611a5.192,5.192,0,0,1,.541-.612,17.016,17.016,0,0,0,2.1-2.22,4.051,4.051,0,0,1,.42-.39c.253-.232.522-.449.758-.7a31.862,31.862,0,0,1,5.187-4.663c.349-.267.65-.6,1.034-.957a12.523,12.523,0,0,0,2.079-1.216,4.293,4.293,0,0,1,1.737-.729,7.339,7.339,0,0,0,1.437-.51,12.376,12.376,0,0,0,1.7-.017c.6-.082,1.1.451,1.686.256.065-.109.162-.194.153-.266-.123-.949.43-1.805.367-2.743a6.867,6.867,0,0,0,.284-1.8,11.014,11.014,0,0,0-2.124-3.248c-1.123-1.3-2.068-2.721-3.131-4.058a2.434,2.434,0,0,1-.214-.452,8.485,8.485,0,0,1-1.338-1.256,36.794,36.794,0,0,0-2.663-2.745,17.388,17.388,0,0,0-1.974-1.756c-1.032-.742-1.978-1.6-2.992-2.371a13.927,13.927,0,0,0-4.176-2.395,8.747,8.747,0,0,0-3.179-.432,4.323,4.323,0,0,0-3.063,1.762,21.969,21.969,0,0,0-2.629,5.2c-.278.778-.677,1.514-.926,2.3-.47,1.483-1.114,2.9-1.475,4.428-.313,1.324-.84,2.6-1.272,3.893-.216.649-.454,1.291-.643,1.948a16.022,16.022,0,0,1-1.908,4.246,5.962,5.962,0,0,0-.3.657,1.9,1.9,0,0,1-.837.891c-.247-.083-.292-.211-.27-.362a14.827,14.827,0,0,1,.438-2.678,2.9,2.9,0,0,0,.087-.573,26.4,26.4,0,0,1,1.077-5.58,1.106,1.106,0,0,0,.1-.426,14.039,14.039,0,0,1,.279-2.613,15.6,15.6,0,0,1,.591-2.859,4.087,4.087,0,0,0,.336-1.418,1.867,1.867,0,0,1,.225-.688,6.658,6.658,0,0,0,.379-.953c.13-.6.343-1.18.456-1.794a5.976,5.976,0,0,1,.882-1.674c.315-.551.644-1.094.963-1.643.049-.084.078-.18.122-.267a8.011,8.011,0,0,1,3.265-3.474,5.654,5.654,0,0,0,.783-.648c.565-.12,1.187.017,1.709-.343a8.742,8.742,0,0,1,3.2.209,8.624,8.624,0,0,1,3.06,1.683,6.7,6.7,0,0,0,1.31.933,27.025,27.025,0,0,1,4.33,3.274c1.009.847,1.926,1.8,2.92,2.662a50.108,50.108,0,0,1,4.086,4.427c1.279,1.419,2.324,3.016,3.5,4.508a14.787,14.787,0,0,1,1.1,1.669.434.434,0,0,0,.6.009c.138-.128.1-.331.112-.563a37.462,37.462,0,0,0-2.745-4.116c-.459-.569-.727-1.261-1.2-1.843a28.986,28.986,0,0,1-1.607-2.452,3.9,3.9,0,0,0-.6-.834,20.719,20.719,0,0,1-1.684-2.04c-.9-1.027-1.747-2.109-2.634-3.151a19.022,19.022,0,0,0-3.153-3.263.772.772,0,0,1-.179-.227A18.832,18.832,0,0,0,58.53,81.76c-.988-.468-1.5-1.526-2.495-2a1.684,1.684,0,0,1-.617-.624A5.328,5.328,0,0,0,53.9,77.782c-.556-.4-1.057-.867-1.582-1.261a7.066,7.066,0,0,0-2.878.459,5.1,5.1,0,0,1-1.912.692,38.309,38.309,0,0,0-11.007,8.185c-.17.01-.313.026-.456.024-.161,0-.268-.088-.336-.3a2.39,2.39,0,0,1,.633-1.078,6.855,6.855,0,0,0,1.559-1.745c.734-.385,1-1.2,1.566-1.736.593-.563,1.095-1.221,1.672-1.8a7.4,7.4,0,0,1,1.783-1.7,18.394,18.394,0,0,1,4.272-3.249c.461-.257,1.062-.232,1.412-.7-.01-.1.016-.23-.034-.272-.339-.282-.458-.734-.842-.994a4.161,4.161,0,0,1-.956-.9,4.191,4.191,0,0,0-.711-.7c-1.475-1.212-2.922-2.459-4.389-3.681a7.8,7.8,0,0,0-.835-.54,7.45,7.45,0,0,0-5.189,1.228c-1,.609-2.009,1.2-3,1.821A9.166,9.166,0,0,0,31.495,70.6c-.39.343-.367.881-.55,1.317a17.867,17.867,0,0,1-1.022,2.565A12.254,12.254,0,0,0,29,76.6a8.489,8.489,0,0,1-1.012,2.108,5.384,5.384,0,0,0-.49.9,13.419,13.419,0,0,1-1.17,2.032c-.421.6-.751,1.261-1.121,1.895-.173.3-.327.6-.521.886A11.256,11.256,0,0,0,23.524,86.3a1.5,1.5,0,0,1-.666.748.45.45,0,0,1-.6-.3c-.007-.041-.031-.091-.019-.129.25-.742.878-1.3,1.028-2.09a9.04,9.04,0,0,1,.854-2.018c.14-.31.238-.639.356-.959A15.938,15.938,0,0,1,25.5,78.817a4.313,4.313,0,0,0,.262-1.128c.287-.967.676-1.9.951-2.861a.324.324,0,0,0-.423.019c-.869.706-1.736,1.413-2.648,2.068a12.21,12.21,0,0,1-5.831,2.508,2.872,2.872,0,0,1-1.411.188.415.415,0,0,1-.192-.481,63.147,63.147,0,0,1,4.974-4.08c1.34-1.134,2.747-2.19,4.137-3.265a1.963,1.963,0,0,0,.393-.414,1.908,1.908,0,0,1,.6-.635,5.545,5.545,0,0,0,1.348-1.175c.059-.2.12-.433.2-.661.048-.138.136-.261.185-.4a4.86,4.86,0,0,0,.409-1.248c.076-1.231.8-2.3.8-3.546l.485-.68a8.239,8.239,0,0,1,1.718-4.251,3.616,3.616,0,0,1,3.034-.894,5.382,5.382,0,0,1,2.438,1.85c.041.074.152.111.232.162a17.388,17.388,0,0,1,3.253,2.9,2.708,2.708,0,0,0,.576.246,13.925,13.925,0,0,1,4.259,1.909c.6.319,1.11.787,1.741,1.062a2.422,2.422,0,0,1,.493.319q1.92,1.48,3.835,2.967c.586.972,1.782,1.382,2.262,2.452a14.861,14.861,0,0,1,1.827,1.9c.949.923,1.67,2.06,2.7,2.913a.957.957,0,0,1,.26.352,8.441,8.441,0,0,0,1.765,2.323c2.145,2.345,4.223,4.743,6.175,7.255.692.89,1.4,1.765,2.026,2.7.7,1.054,1.358,2.134,1.964,3.252.413.763.961,1.468,1.417,2.22a24.373,24.373,0,0,0,1.938,2.755,12.513,12.513,0,0,1,.986,1.458c.555.923,1.257,1.731,1.87,2.628a.936.936,0,0,0,.21-.823c-.56-1-1.15-2.073-1.751-3.135-.265-.468-.6-.9-.821-1.387a30.6,30.6,0,0,0-1.624-2.777,25.472,25.472,0,0,1-1.745-3.042,2.708,2.708,0,0,0-.323-.485c-.226-.32-.462-.633-.68-.959a43.7,43.7,0,0,0-3.3-4.3c-1.081-1.246-2.108-2.541-3.1-3.857-.331-.439-.82-.679-1.133-1.115-.285-.4-.571-.8-.88-1.174a4.548,4.548,0,0,0-.543-.488c-.182-.16-.438-.285-.531-.486a3.6,3.6,0,0,0-.843-1.006,11.634,11.634,0,0,1-.747-.9,2.463,2.463,0,0,0-.376-.447c-1.03-.767-1.682-1.9-2.653-2.723-.519-.44-.8-1.075-1.35-1.515A51.3,51.3,0,0,1,50.3,67.027a6.3,6.3,0,0,0-1.114-.949,4.356,4.356,0,0,1-1.51-1.618,2.631,2.631,0,0,1-1.035-.764,22.636,22.636,0,0,0-3.069-2.728c-.448-.37-.736-.886-1.28-1.178A4.973,4.973,0,0,1,41.1,58.7a7.369,7.369,0,0,0-.942-.69c-1.143-.921-2.226-1.925-3.418-2.776-1.429-1.021-2.7-2.232-4.14-3.244-1.479-1.04-2.95-2.091-4.46-3.088a12.237,12.237,0,0,0-2.4-1.651,25.689,25.689,0,0,0-2.376-1.432c-.885-.522-1.76-1.063-2.662-1.553-.6-.324-1.234-.575-1.761-.815-.762-.23-1.377.59-2.083.05l.2-.773a.316.316,0,0,0-.42-.119c-.313.137-.609.317-.924.447a.5.5,0,0,1-.55-.066c-.226-.3.19-.542-.006-.961-.075-.127-.325-.1-.653-.1l-.881.549-.77.045-.331-.316c-.051-.344.32-.468.343-.757a.544.544,0,0,0-.441-.355c-.573.207-.978.778-1.612.848-.534-.458.109-.808.053-1.208.226.032.315-.076.3-.291l.226-.075-.1-.117-.088.229a.273.273,0,0,0-.3.289.982.982,0,0,0-.668.242,4.357,4.357,0,0,1-1.626.583.575.575,0,0,1-.55-.089c.23-.654.89-.847,1.35-1.246l-.038-.292c-.221-.144-.317.114-.554.164H7.965l-1.6.847a.751.751,0,0,1-.479-.425l.15-.54c-.055-.136-.2-.146-.332-.116-.618.139-1,.821-1.9.61-.23-.171.132-.6-.007-.945a.626.626,0,0,0,.513-.136c-.237-.157-.409-.139-.484.166a.653.653,0,0,0-.56.062,1.216,1.216,0,0,1-.964.22.4.4,0,0,1-.251-.324c-.014-.084-.1-.157-.155-.249a3.361,3.361,0,0,0-1.228.5.713.713,0,0,1-.654-.417c-.094-.352.332-.48.292-.756.289-.305.79-.3.872-.811l-.5-.964a.587.587,0,0,1,.343-.469.867.867,0,0,1,.278.056c.521.313.872.9,1.558.95.2-.174-.035-.5.316-.695.623.067.821.836,1.4,1.074l.626-.5c.4.41.808.825,1.212,1.242.1.105.2.208.367.172.007.176-.11.369.074.521.184.011.215-.094.181-.242a.3.3,0,0,0-.277-.258c.1-.213.246-.4.135-.676-.084-.212.1-.344.331-.426l1.337,1.118.515-.31c.609.078.99.58,1.481.823.392.048.459-.359.758-.467a5.965,5.965,0,0,1,2.077,1.683l.37-.108-.4-.588a.6.6,0,0,1,.56-.472c.641.472,1.153,1.235,1.96,1.481.371-.072.284-.434.555-.57.283-.066.485.2.783.349l.577.967c.341.036.407-.38.794-.443.594.332.875,1.034,1.4,1.594a45.955,45.955,0,0,1,5.157,2.957c1.439.921,2.881,1.836,4.28,2.815,1.478,1.035,2.96,2.064,4.367,3.2.905.734,1.887,1.383,2.8,2.114.686.549,1.363,1.107,2.039,1.668,1.167.97,2.338,1.936,3.492,2.922.93.794,1.837,1.614,2.753,2.425a13.94,13.94,0,0,0,1.987,1.743,3.87,3.87,0,0,1,.328.3c.619.477.893,1.254,1.622,1.674a9.356,9.356,0,0,1,1.625,1.478,14.5,14.5,0,0,0,1.3,1.181,7.01,7.01,0,0,1,1.546,1.537c.346.5.812.845,1.179,1.3.525.643,1.215,1.111,1.745,1.753.5.6,1.182,1.055,1.648,1.676.765,1.018,1.9,1.686,2.555,2.792a6.831,6.831,0,0,1,1.692,2c.278.469.928.579,1.1,1.149.86.807,1.511,1.8,2.319,2.648.056.059.171.063.259.093a.791.791,0,0,0,.612.86c.021.1-.016.255.173.227a.159.159,0,0,0,.014-.1,2.3,2.3,0,0,0-.226-.09.758.758,0,0,0-.564-.909m-3.858,1.21c-.055-.05.032-.267-.17-.147l.215.1a.327.327,0,0,0,.29.3c.034.1-.042.341.2.154l-.247-.11a.321.321,0,0,0-.293-.3m1.179,1.474c-.042-.087.046-.337-.2-.162l.247.118c.047.07-.034.316.192.14l-.236-.1m28.074,40.971a.71.71,0,0,0,.107.236c.069.067.132.01.073-.07-.046-.062-.145-.085-.221-.125a.72.72,0,0,0-.107-.246c-.06-.059-.132.008-.079.081s.149.083.226.123m-27.737-8.8c-.158.038-.286.106-.3.293-.215-.027-.308.077-.3.284a1.2,1.2,0,0,0-1.18.883c-.219-.021-.283.113-.3.3-1.183.626-1.286.728-1.385,1.367.33-.024.458-.311.608-.522.2-.281.671-.191.74-.554v-.328c.21.02.321-.066.307-.286.663.062.925-.4,1.174-.888.209.013.291-.1.292-.293a.361.361,0,0,0,.29-.3c.174-.021.31-.082.309-.29a.76.76,0,0,0,.661-.239.645.645,0,0,0,.208-.66c.26.032.506.037.587-.291.175-.022.309-.086.309-.292.1,0,.21.041.288,0,.57-.269,1.172-.467,1.738-.725a14.2,14.2,0,0,0,2.115-.98,4.8,4.8,0,0,1,2.227-.611c.826-.081,1.647-.179,2.462-.326.074-.013.134-.108.215-.177l-.252-.33c-.529-.175-1.068-.124-1.594-.274a3.631,3.631,0,0,0-2.575.258,19.751,19.751,0,0,0-4.292,2.73c-.141.122-.322.232-.3.467-.2,0-.276.126-.3.3-.225.042-.517-.056-.6.286a1.168,1.168,0,0,0-.877.887c-.218-.012-.271.132-.291.307m35.079,5.85c.18-.013.3-.083.3-.288A1.24,1.24,0,0,0,100,121.6c.1-.022.259.02.228-.173a.162.162,0,0,0-.1-.014,2.193,2.193,0,0,0-.089.227,1.145,1.145,0,0,0-1.18.879.263.263,0,0,0-.291.3c-.075.046-.318-.049-.16.191l.116-.235M100.89,121c.085-.037.325.056.16-.191l-.118.232c-.085.04-.195.059-.251.124-.072.083-.008.147.084.077.065-.05.084-.159.124-.241m-11.8,3.285c.014-.216-.07-.329-.3-.29a1.114,1.114,0,0,0-.074-.855c-.549-.919-1-1.893-1.493-2.839a12.435,12.435,0,0,0-1.3-1.946c-.515-.645-.585-1.547-1.261-2.085a38.905,38.905,0,0,0-2.941-4.354c-.535-.7-.909-1.51-1.474-2.176a33.366,33.366,0,0,1-2.1-2.994c-.395-.584-.662-1.315-1.347-1.667l-.323.148a9.042,9.042,0,0,0,.582,1.159,27.569,27.569,0,0,1,2.608,4.064.908.908,0,0,0,.165.242,18.353,18.353,0,0,1,2.109,2.982c.594.947,1.271,1.842,1.889,2.775.727,1.1,1.417,2.221,2.15,3.315.816,1.218,1.588,2.461,2.307,3.738.116.207.245.432.531.458.005.191.073.32.294.3-.011.253-.1.546.3.585,0,.181-.034.369.128.517.159-.238.151-.412-.167-.481.006-.248.112-.544-.289-.6m31.023,64.59a.524.524,0,0,0,.143.528c.176-.255.161-.432-.183-.491-.024-.234.094-.54-.3-.589-.007-.242.143-.558-.287-.6.021-.257.066-.526-.3-.588a2.609,2.609,0,0,0-.21-1.41c-.436-.909-.775-1.865-1.168-2.795-.043-.1-.155-.258-.318-.1-.014.045-.05.1-.037.13q.725,1.956,1.458,3.909a.3.3,0,0,0,.311.231c0,.247-.085.533.292.593,0,.248-.063.524.3.584.021.236-.064.525.3.591M65.514,73.5c.024.18-.1.412.174.526.122-.265.087-.438-.214-.489-.005-.243.1-.539-.291-.593,0-.174.008-.349,0-.523a.324.324,0,0,0-.3-.35c0-.177.012-.355.008-.532a.32.32,0,0,0-.3-.358c0-.173.012-.347,0-.52a.348.348,0,0,0-.3-.359c-.022-.235.1-.54-.291-.595-.036-.227.1-.538-.292-.59-.052-.06.049-.292-.177-.157l.217.116c.007.242-.046.515.294.591,0,.243-.081.531.292.593,0,.223-.008.447.016.667a.254.254,0,0,0,.276.219c0,.175-.017.35-.005.524a.342.342,0,0,0,.3.361c0,.173,0,.346.007.519a.324.324,0,0,0,.291.356c0,.244-.067.524.292.594m14.749,33.647c0,.2.083.322.308.286.006.241-.1.539.288.592.041.079-.052.315.187.158l-.226-.118c.009-.248.034-.5-.289-.588-.019-.177-.064-.329-.293-.3.044-.268.109-.546-.293-.592a1.1,1.1,0,0,0-.174-.69c-.595-1.041-1.181-2.088-1.76-3.115-.4.1-.4.1-.389.625a19.457,19.457,0,0,1,1.8,2.75c.12.2.252.421.545.406-.043.266-.1.539.292.59M60.791,82.054c.029.074.055.151.091.221a.149.149,0,0,0,.092-.015c.03-.19-.116-.153-.223-.167-.057-.547-.057-.547-.573-.6a7.858,7.858,0,0,0-1.485-1.96,2.907,2.907,0,0,1-.567-.664,3.921,3.921,0,0,0-1.848-1.621A2.5,2.5,0,0,0,54.39,76.8a.328.328,0,0,0,.038.457l.686.215a8.154,8.154,0,0,0,2.5,2.015c.259.335.391.651.627.782a17,17,0,0,0,1.8,1.228c.04.016.1-.008.145-.013a.742.742,0,0,0,.6.574m48.363,72.933c-.007-.194-.068-.333-.3-.294a1.546,1.546,0,0,0-.58-1.48c-.03-.073-.059-.147-.095-.217,0-.007-.083.01-.084.021-.019.178.1.16.22.153a1.658,1.658,0,0,0,.581,1.477c.025.174.087.311.3.3.013.268-.107.56.133.782.037-.033.1-.063.1-.1.023-.261.161-.577-.274-.645M77.019,112.747c.25.291.25.291.545.069l-.578-.033c-.191-.474-.627-.436-.977-.52a.276.276,0,0,0-.083.407,1.775,1.775,0,0,0,1.092.076m2.958-8.86c.054.154-.052.365.167.466.1-.236.007-.36-.214-.421a1.834,1.834,0,0,0-.074-.714c-.487-.839-.85-1.736-1.278-2.6-.036-.073-.152-.107-.231-.159-.183.129-.165.32-.155.535.281.534.567,1.093.867,1.645a3.378,3.378,0,0,0,.918,1.249m29.805,57.887a1.956,1.956,0,0,1-.87-.92c-.31-.645-.612-1.294-.918-1.941a3.716,3.716,0,0,0-.439-.887c-.276-.314-.313-.806-.751-.988a.8.8,0,0,0,0-.286,32.006,32.006,0,0,1-1.636-4.089,1.332,1.332,0,0,0-.339-.07.986.986,0,0,0-.267.109,1.127,1.127,0,0,0,.034.249,8.463,8.463,0,0,0,.712,1.575c.327.525.553,1.114.832,1.67a7.231,7.231,0,0,0,.43.75c.037.056.166.052.253.075a2.4,2.4,0,0,0,.423,1.631c.492.985.924,2,1.408,2.983a2.055,2.055,0,0,0,.329.4c.343,0,.654.085.761-.3.234-.028.518.046.6-.293a.8.8,0,0,0,.809-.167l.1-.349a3.706,3.706,0,0,1-.669-1.391l-.868-.935c-.9-1.716-1.727-3.3-2.568-4.872-.057-.106-.224-.153-.34-.227a2.212,2.212,0,0,0-.019-.579c-.119-.4-.284-.783-.421-1.148-.207-.021-.328.022-.4.234.132.363.267.774.431,1.172.071.173.186.344.429.3a1.93,1.93,0,0,0,.049.709,30.083,30.083,0,0,0,1.9,3.586l-.08.267c.27.392.566.769.8,1.179.265.457.457.956.719,1.416a2.646,2.646,0,0,1,.164.842c-.223.051-.525-.058-.6.3M26.519,79.1c.345-.033.444-.328.6-.562.521-.768.7-1.7,1.18-2.492a18.05,18.05,0,0,0,1.027-2.242,1.129,1.129,0,0,0,.056-1.114,7.741,7.741,0,0,0-1.657,1.283c-.082.28-.165.609-.275.929a16.822,16.822,0,0,1-.779,2.8,2.129,2.129,0,0,0-.115,1.438c-.075.045-.3-.007-.13.2l.091-.235M45.444,68.483c-.067-.291-.2-.5-.549-.428,0,.1.008.185.012.271a.577.577,0,0,0,.5.2,2.834,2.834,0,0,0,1.119,1.1A6.657,6.657,0,0,1,47.934,70.9c.7.887,1.643,1.514,2.472,2.417a8.032,8.032,0,0,1,1.853-.157c-.746-.784-1.791-1.021-2.272-1.936a8.1,8.1,0,0,1-2.5-1.71,5.7,5.7,0,0,0-2.044-1.031M79.66,112.766c.107.57.107.57.525.438-.116-.219-.24-.424-.524-.439.078-.436-.217-.757-.413-1.065-.835-1.312-1.722-2.592-2.6-3.877a.542.542,0,0,0-.542-.288c.144.389-.263.721-.115,1.1.187.476-.2.833-.165,1.279a4.339,4.339,0,0,1-.148,1.037.964.964,0,0,0,.649.439,16.8,16.8,0,0,1,2.524,1.121c.256.129.482.353.809.258M43.939,78.226a5.218,5.218,0,0,0,1.853-.724,15.831,15.831,0,0,1,2.479-1.233c.806-.326,1.722-.3,2.521-.68a12.191,12.191,0,0,1,3.777.215.615.615,0,0,0,.786-.16A9.955,9.955,0,0,0,53.2,74.165a14.48,14.48,0,0,0-3.4.013,6.488,6.488,0,0,1-.868.48,12.557,12.557,0,0,0-3.161,1.778,4.929,4.929,0,0,0-1.806,1.821.7.7,0,0,0-.734.293c-.119.136-.238.3-.029.466.3-.212.67-.358.734-.79M29.472,67.889a5.772,5.772,0,0,0,2.408-2.466,8.393,8.393,0,0,0,.562-1.5A4.845,4.845,0,0,1,34.39,61.2l1.223-.257a2.776,2.776,0,0,0,1.162.189c.084,0,.172-.068.257-.106a16.323,16.323,0,0,0-2.209-1.789,2.38,2.38,0,0,0-1.508-.432c-.27.279-.846.108-1.314.564a2.472,2.472,0,0,0-.36.66c-.217.909-.69,1.714-.987,2.588-.141.415-.3.825-.448,1.238.28.5-.139.911-.2,1.369a5.633,5.633,0,0,1-.349,1.41,2.734,2.734,0,0,0-.143,1.294c-.095.026-.3-.04-.16.185l.118-.228m13.573,36.3c.046-.015.129-.022.135-.047a12.763,12.763,0,0,0,.621-1.887,3.736,3.736,0,0,1,.5-1.631c.3-.522.213-1.138.566-1.653.216-.316.263-.761.463-1.137a7.064,7.064,0,0,0,.4-1.391,1.434,1.434,0,0,1,.209-.536,6.388,6.388,0,0,0,.907-1.982A17.866,17.866,0,0,1,49.31,89a8.167,8.167,0,0,1,1.182-1.476,5.324,5.324,0,0,1,3.162-1.47,6.141,6.141,0,0,0-4.179.66,22.641,22.641,0,0,0-2,2.245A17.951,17.951,0,0,0,45.808,91.7a22.462,22.462,0,0,0-1.058,2.711,14.4,14.4,0,0,0-.742,2.493c-.272,1.768-.722,3.505-.821,5.306a13.6,13.6,0,0,0-.1,2.013c-.482.218-.237.743-.5,1.055.09.033.14.07.167.058a2.807,2.807,0,0,0,.293-.186Zm44.3,12.4c.054.059-.031.3.188.142l-.228-.1v-.936a9.76,9.76,0,0,1-1.093-2.336c-.583-1.447-1.079-2.929-1.635-4.387-.225-.591-.359-1.206-.613-1.793a39.169,39.169,0,0,1-1.959-5.942c-.441-1.737-.818-3.489-1.227-5.234a4.052,4.052,0,0,0-.7-1.79c-.739,1.249-.774,2.693-1.212,3.973.368.891.705,1.753,1.079,2.6s.8,1.662,1.171,2.5c.592,1.338,1.15,2.691,1.739,4.03.745,1.692,1.437,3.407,2.212,5.088.633,1.372,1.317,2.711,2.038,4.035.039.071.156.1.237.146M18.258,78.219a4.939,4.939,0,0,0,1.455-.03,13.484,13.484,0,0,0,3.64-2.157c1.154-.9,2.392-1.688,3.569-2.558.746-.551,1.45-1.159,2.165-1.75.484-.4.982-.791,1.424-1.234.69-.691,1.678-1.016,2.21-1.876a5.073,5.073,0,0,0,2.018-1.38c.737-.375,1.443-.713,2.127-1.089a14.143,14.143,0,0,1,2.183-.884h2.012a9.909,9.909,0,0,0,2.072.777c.68.264,1.335.594,2.016.857.66.255,1.108.96,1.918.908-.013-.05-.01-.105-.035-.123a10.2,10.2,0,0,0-3.226-1.933,2.325,2.325,0,0,1-.648-.339,7.7,7.7,0,0,0-5.129-1.328,7.079,7.079,0,0,0-1.564.21c-.107.034-.259-.077-.4-.123-.423.272-.838.527-1.24.8-.725.494-1.449.99-2.159,1.506-.147.107-.2.352-.345.453-1.371.933-2.436,2.22-3.747,3.221-.583.445-1.156.9-1.709,1.385a10.937,10.937,0,0,1-1.126.935,8.328,8.328,0,0,0-.986.879,10.819,10.819,0,0,1-1.415,1.277c-.625.4-1.181.865-1.772,1.3-.627.458-1.324.817-1.982,1.233-.371.235-.725.5-1.085.749a.376.376,0,0,0-.207.354l-.542.06c.211.127.434.253.506-.1m128.68-28.295.593-.137c.539-1.162,1.534-2,2.049-3.183.485-1.111,1.1-2.167,1.65-3.249a.638.638,0,0,0,.108-.264c-.018-.766.545-1.344.648-2.085a20.27,20.27,0,0,1,.545-2.184,5.635,5.635,0,0,1-.272-2.416,15.236,15.236,0,0,0-.47-3.321,2.907,2.907,0,0,0-.254-1.134,9.808,9.808,0,0,1-.769-2.056,18.372,18.372,0,0,0-1.25-3.119c-.888-1.512-1.878-2.96-2.7-4.52a23.036,23.036,0,0,0-2.1-2.995,5.135,5.135,0,0,0-.966-.9,10.673,10.673,0,0,0-.936-.6c-.743,0-1.43-.007-2.117,0a12.776,12.776,0,0,0-2.184.2c-.764.141-1.547.128-2.322.3-.8.178-1.636.1-2.453.337-.787.228-1.649.186-2.446.388s-1.627.359-2.413.6a18.6,18.6,0,0,0-4.815,2.126,14.334,14.334,0,0,0-4.269,3.733c-.253.77-1.052,1.539-1.526,2.5-.64.335-.723.962-.9,1.578a5.4,5.4,0,0,0-.225,1.588,12.415,12.415,0,0,0,.244,3.648c-.058,1.181.419,2.31.341,3.494a1.51,1.51,0,0,0,.042.439,34.156,34.156,0,0,0,1.9,6.417c.522-.06,1.019-.4,1.578-.085l.217.4c-.306.01-.546.015-.785.027s-.479.032-.727.049c.091.573.121,1.108.639,1.418.295.068.493-.367.831-.145.016.409-.359.643-.472.994a.863.863,0,0,0,.463.827l.433-.137a.171.171,0,0,1,.235.112c.126.325-.234.528-.183.97.714.9,1.451,1.94,2.31,2.868a17.279,17.279,0,0,0,1.984,1.622l.647-.2.067.681c.413,0,.469.508.864.662l.4.037c.394-.179.574-.634,1.006-.759.159.471-.447.7-.2,1.229a3.031,3.031,0,0,0,1.261.453c.343.086.525-.516.924-.211,0,.216-.248.431.069.725a3.835,3.835,0,0,1,1.29.294l.611-.267a1.108,1.108,0,0,0,.926.285c.22-.07.361-.348.638-.246l.421.306,2.811-.429.623-.325.248-.416.55.215a7.425,7.425,0,0,0,1.61-.732l.1-.426-.017.017c.372-.04.786.16,1.144-.23l.137-.8.856.164,2.786-2.507-.092-.356a2.455,2.455,0,0,0,1.069-.88l.023-.431ZM83.563,91.437a3.218,3.218,0,0,0,.238,1.755c.375.852.614,1.751.964,2.607.44,1.08.81,2.184,1.191,3.285a12.839,12.839,0,0,1,.8,2.806,27.484,27.484,0,0,1,1.336,5.078,10.353,10.353,0,0,1,.406,2.6,8.066,8.066,0,0,0,.171,1.158c.1.922.468,1.792.5,2.729a3.108,3.108,0,0,0,.2.694c.377,1.343.677,2.705.987,4.065.094.412.229.815.417,1.473a13.6,13.6,0,0,0,.406-2.095,6.087,6.087,0,0,1,.249-1.732c.2-.6.389-1.208.556-1.818.578-2.122,2.137-3.411,3.834-4.588a1.09,1.09,0,0,1,.539-.2c.887-.038,1.688-.46,2.56-.552a1.587,1.587,0,0,0,.557.16,9.417,9.417,0,0,1,2.744.393,6.1,6.1,0,0,1,1.9.74,26.228,26.228,0,0,1,2.553,1.718,4.033,4.033,0,0,1,1.443,1.635,1.062,1.062,0,0,1,.026.29l-.284.247a2.062,2.062,0,0,1-1.41-.436c-.5-.3-1.026-.574-1.521-.889-.536-.341-1.183-.41-1.71-.815a8.139,8.139,0,0,0-1.629-.757c-.591.382-1.309.166-1.964.315-.543.365-1.2.426-1.737.809a10.636,10.636,0,0,0-3.9,5.006q-.31.821-.615,1.644c-.2.551-.2,1.145-.382,1.712-.172.542-.015,1.168-.29,1.721a.645.645,0,0,0,0,.436,24.234,24.234,0,0,0,.5,2.424,33,33,0,0,0,1.106,3.165,1.928,1.928,0,0,1,.1.572,1.886,1.886,0,0,0,.782,1.366c.292-.981-.123-2.008.362-2.92a10.891,10.891,0,0,1,.47-3.151,9.493,9.493,0,0,1,2.559-2.85c1.1-.808,2.325-1.435,3.5-2.141a11.5,11.5,0,0,0,2.758-1.324c.4-.175.776-.4,1.035-.537.431-.051.626.042.69.537-.621.452-.9,1.313-1.533,1.935a6.044,6.044,0,0,1-1.812,1.231,10.765,10.765,0,0,0-2.67,1.783,8.058,8.058,0,0,1-1.466,1.22,1.684,1.684,0,0,0-.612.627,10.222,10.222,0,0,0-1.727,3.681,14.9,14.9,0,0,0-.3,1.717,4.182,4.182,0,0,1-.128.684l.59,2.419.361.264c.233-.639-.053-1.307.214-1.9a1.636,1.636,0,0,1,.879-.636h1.931l1.1.367c1.269,1.035,2.671,1.829,3.3,3.32a2.137,2.137,0,0,1-.078,1.195c-.56.712-1.51.593-2.219,1.019v1.382c-.127.321-.385.479-.231.8.308-.05.628-.119.951-.15.342-.033.69-.008,1.03-.049s.666-.138,1-.2a4.17,4.17,0,0,1,1.848.357,1.973,1.973,0,0,1,.921,1.434l-.351.836L106.02,142.5c.763.172,1.464-.107,2.148.165a1.908,1.908,0,0,1,.979,1.7,8.887,8.887,0,0,1-2.327,2.184c.73.567,1.687.752,2.029,1.679a2.76,2.76,0,0,1-.921,2.363,11.732,11.732,0,0,0,1.717,3.233,2.247,2.247,0,0,1,.392.609,16.006,16.006,0,0,0,1.454,2.688c.548,1.121,1.631,1.808,2.222,2.824,1.033-.207,2-.357,2.935-.6a9.929,9.929,0,0,1,4.92.068,6.1,6.1,0,0,0,.841.23,9.66,9.66,0,0,1,3.619,1.076c.251.133.547.334.789.3.373-.06.638.185.988.174,1.079-.036,2.16-.013,3.157-.013,1.387-.729,2.886-.854,4.213-1.49,1.363-.653,2.84-1.019,4.25-1.553,1.368-.519,2.73-1.055,4.1-1.58,1.409-.541,2.85-1,4.215-1.566a1.764,1.764,0,0,1,1.036-1.224c.633-.255,1.2-.68,1.845-.894.7-.236,1.276-.71,1.954-.958,1.247-.457,2.393-1.117,3.586-1.682a9.355,9.355,0,0,0,1.915-1.074,10.493,10.493,0,0,0,2.891-1.326,6.08,6.08,0,0,1,.923-.453,9.309,9.309,0,0,0,3.3-1.783l.576.1a5.736,5.736,0,0,1,1.789-.918,16.533,16.533,0,0,1-.244-3.248,5.567,5.567,0,0,0-.134-1.014,8.4,8.4,0,0,1,.686-5.579l-.527-1.543a9.9,9.9,0,0,0-.06-1.146c-.1-.615-.208-1.227-.266-1.849-.022-.236-.21-.464-.2-.693.023-.794-.36-1.511-.386-2.3a3.3,3.3,0,0,1-.015-1.244c.16-.459-.37-.824-.153-1.281-.038-1.509-.079-3.018-.108-4.527a1.259,1.259,0,0,1,.105-.375c.263-.141.482-.216.736.058,0,1.071.446,2.143.352,3.283a2.392,2.392,0,0,0,.094.577,24.535,24.535,0,0,1,.455,3.316c.016.441-.051.888,0,1.324a11.1,11.1,0,0,0,.3,1.424c.058.235.19.455.23.691a12.024,12.024,0,0,1,.39,2.307,1.542,1.542,0,0,0,.471,1.035c.39.046.795-.054,1.038.1a.512.512,0,0,1,.232.608c-.151.36-.518.413-.816.573-.245.75-1.083,1.144-1.215,2.225a6.808,6.808,0,0,0,.027,1.513,2.1,2.1,0,0,1,.057,1.4,2.971,2.971,0,0,1,.188,1.444c.023.682.038,1.364.059,2.153.571-.275,1.046-.506,1.525-.732a.9.9,0,0,1,.968.034c.01.1.02.187.029.279a18.886,18.886,0,0,1-1.715,1.1,14.663,14.663,0,0,1-1.736,1.054c-1.421.643-2.822,1.322-4.215,2.024-1.908.962-3.835,1.9-5.8,2.735a4.74,4.74,0,0,0-.668.279c-1.412.883-3.035,1.351-4.433,2.259a.5.5,0,0,1-.133.064,21.666,21.666,0,0,0-2.928,1.317,2.737,2.737,0,0,0-.5.387q6.677,8.585,13.084,17.192a9.554,9.554,0,0,0,2.5-1.043c.773-.422,1.543-.851,2.316-1.273.729-.4,1.454-.8,2.192-1.182.778-.4,1.583-.748,2.355-1.159,1.51-.805,2.922-1.786,4.48-2.508a3.048,3.048,0,0,0,.347-.273c1.752-1.167,3.506-2.328,5.222-3.55a35.589,35.589,0,0,0,4.685-3.758,4.465,4.465,0,0,1,.451-.378,8.217,8.217,0,0,0,2.865-4.325,24.94,24.94,0,0,1,.849-3.545,2.967,2.967,0,0,1,.532-1.5c.394-.674.763-1.364,1.116-2.06a3.066,3.066,0,0,0,.413-1.087,7.015,7.015,0,0,0,.139-2.007c-.045-.212.1-.464.153-.683-.071-.247-.151-.477-.2-.713-.168-.758-.313-1.521-.49-2.276a34,34,0,0,0-1.313-3.339v-1.038a2.4,2.4,0,0,1-.628-1.2.474.474,0,0,0-.4-.47,25.371,25.371,0,0,1-5.571,3.436l-1.076.052-.8-.446a1.605,1.605,0,0,1,1.067-.933,31.51,31.51,0,0,0,4.788-2.822,2.842,2.842,0,0,0,1.095-1.348,1.678,1.678,0,0,0,.045-.452l-.532-.677-.247-.871a24.87,24.87,0,0,0,.055-5.7c-.931.616-1.67,1.556-2.859,1.65-.3-.221-.629-.354-.731-.753.193-.2.384-.43.6-.628a3.14,3.14,0,0,1,.483-.333,7.509,7.509,0,0,0,2.924-3.013v-2.275l-.86-1.452c-.075-1.165-.748-2.227-.587-3.433a2.506,2.506,0,0,0-.289-1.362l.262-.779c-.138-.4-.241-.834-.365-1.245a7.1,7.1,0,0,1-.233-1.877,2.9,2.9,0,0,1-.3-1.855c-.011-.652-.265-1.238-.3-1.877a19.516,19.516,0,0,0-.361-3.34c-.225-.954-.247-1.926-.448-2.88-.189-.9-.333-1.812-.574-2.707l.126-.374a2.85,2.85,0,0,1-.179-.589c-.089-1.255-.535-2.449-.63-3.7-.455-.9-.2-1.927-.506-2.858-.052-.158.071-.374.12-.593a1.59,1.59,0,0,1-.232-.96c0-.243.076-.537-.032-.721a2.58,2.58,0,0,1-.206-1.583c.047-.614-.3-1.131-.283-1.726a9.889,9.889,0,0,0-.91-3.661,4.558,4.558,0,0,0-1.064-1.567,21.344,21.344,0,0,0-2.747-2.2A9.811,9.811,0,0,0,176,72.828c-.5-.189-.984-.438-1.5-.592-1.542-.465-2.85-1.506-4.461-1.8a1.951,1.951,0,0,1-.4-.177c-.8-.353-1.6-.729-2.414-1.053a14.347,14.347,0,0,1-2.927-1.287,4.407,4.407,0,0,0-.808-.334c-2.023-.843-4.079-1.608-6.06-2.554a8.067,8.067,0,0,0-1.089-.412c-1.069-.331-2.108-.765-3.151-1.177-.222-.088-.4-.287-.621-.376-.44-.178-.9-.316-1.593-.556.23.751-.118,1.261-.174,1.84-.024.243-.027.488-.038.718a4.232,4.232,0,0,1-1.339,1.524c-.724.557-1.333,1.288-2.073,1.83-1.46,1.069-2.974,2.064-4.483,3.064a4.882,4.882,0,0,1-1.547.812,15.8,15.8,0,0,1-4.03.653c-.343-.015-.688,0-.981,0l-.872.395c-.393.425-.825.833-1.188,1.295a6.393,6.393,0,0,0-1.593,2.6c-.834,1.549-1.464,3.2-2.425,4.689A7.74,7.74,0,0,0,129,85.186a21.443,21.443,0,0,0-.384,3.789,1.027,1.027,0,0,1-.021.439,13.965,13.965,0,0,0-.46,3.02c-.228,1.189-.138,2.427-.34,3.643-.174,1.05-.13,2.133-.277,3.205-.151,1.1-.124,2.236-.306,3.353-.2,1.24-.226,2.508-.424,3.748-.064.4.169.786.012,1.136a5,5,0,0,0-.208,1.886,10.393,10.393,0,0,1-.1,1.91,13.133,13.133,0,0,0-.157,3.048,5.1,5.1,0,0,0,1.972,1.616h1.065l2.619-1.962c.434.4.434.4.482.849-.942.823-1.686,1.9-2.953,2.3a2.873,2.873,0,0,1-1.3-.066,11.773,11.773,0,0,1-3.074-2.716,3.727,3.727,0,0,1,0-.458,4.527,4.527,0,0,0,.173-1.437,6.368,6.368,0,0,1,.087-1.57,33.658,33.658,0,0,1,.259-5.277c.245-1.473.251-2.98.569-4.452a7.775,7.775,0,0,1,.286-1.962l-.222-.764a4.476,4.476,0,0,0,.249-1.446,12.957,12.957,0,0,1,.188-2.605c.221-1.05.173-2.118.4-3.171a31.561,31.561,0,0,0,.374-3.641c.009-.1-.018-.218.029-.29.378-.581.089-1.273.315-1.866a11.3,11.3,0,0,0,.3-1.985,9.812,9.812,0,0,1,1.971-3.36c-.069-.386.239-.7.275-.934a17.388,17.388,0,0,0-.322-2.845,10.849,10.849,0,0,1-.775-.969,2.436,2.436,0,0,0-.889-.9c-.963.008-1.9-.77-3.018-.428a4.27,4.27,0,0,0-1.736-.214c-.611.006-1.111-.357-1.638-.376-.532-.372-1.019-.7-1.492-1.047a10.5,10.5,0,0,1-1.154-.9c-.563-.547-1.084-1.139-1.617-1.717a2.585,2.585,0,0,1-.613-1.149c-.214-.851-.488-1.684-.652-2.553a5.267,5.267,0,0,1-.08-2.582c.005-.027-.075-1.118-.092-1.164a6.232,6.232,0,0,1-1.365.507,15.56,15.56,0,0,0-3.362.99c-2.2.8-4.419,1.528-6.652,2.224-1.023.319-2.027.72-3.07.943-1.476.316-2.922.714-4.36,1.163a21.653,21.653,0,0,0-2.337.824,6.692,6.692,0,0,1-2.418.777,25.868,25.868,0,0,0-3.855,3.5,5.578,5.578,0,0,1-.836,1.006c-.247.178-.157.671-.562.795-.038.012-.072.07-.09.113-.107.268-.191.548-.317.807-.6,1.23-1.2,2.46-1.823,3.679a19.206,19.206,0,0,0-1.1,2.064,3.9,3.9,0,0,1-.722,1.218,21.824,21.824,0,0,1-1.329,3.244,9.725,9.725,0,0,0-.663,1.6c-.045.109.036.27.07.475a10.232,10.232,0,0,1,2.524-1.442c.228,0,.375,0,.523,0a16.91,16.91,0,0,0,4.236-.243c.425.23.859-.17,1.27,0a5.513,5.513,0,0,0,2.177.228c1.229,0,2.458-.021,3.687-.031a.975.975,0,0,1,.831.232v.434a2.288,2.288,0,0,1-.783.748,4.988,4.988,0,0,0-.95.129c-.837.269-1.707.4-2.546.652a4.244,4.244,0,0,1-1.156.161,14.435,14.435,0,0,0-2.5.072c-.819.161-1.644.2-2.459.334-.079.013-.143.121-.267.232.016.293.035.631.047.864.333.82.691,1.511.97,2.246a10.047,10.047,0,0,0,1.414,2.712c.9,1.15,1.728,2.364,2.582,3.545-.016.385.178.784-.094,1.115a.931.931,0,0,1-1.171-.432c-.767-1.066-1.484-2.168-2.2-3.27a11.742,11.742,0,0,1-1.108-1.888A15.845,15.845,0,0,1,85.2,90.432c-.211-.179-.336-.347-.7-.286a6.092,6.092,0,0,0-.937,1.29m30.9,75.164a5.153,5.153,0,0,1-.726.444,19.249,19.249,0,0,0-3.222,1.746,7.149,7.149,0,0,0-2.549,2.743,2.948,2.948,0,0,0-.317.964,7.6,7.6,0,0,0,.1,2.338c.333.32.68.658,1.033.99.028.026.1.01.21.018.229-.315.483-.66.734-1.009.171-.238.316-.5.508-.718a16.262,16.262,0,0,1,4.267-3.069,6.974,6.974,0,0,1,1.527-.477l.234.389a1.181,1.181,0,0,1-.657.584,20.353,20.353,0,0,0-2.2,1.434c-.568.406-.908,1.03-1.46,1.427a5.669,5.669,0,0,0-1.809,2.623,3.657,3.657,0,0,0-.288,2.564c.25.3.462.639.9.722a7.3,7.3,0,0,1,.861-.533A17.112,17.112,0,0,0,116.1,177.1a17.963,17.963,0,0,1,2.586-1.637.985.985,0,0,1,.966-.074c.139.122.12.263.078.434a10.419,10.419,0,0,1-1.993,1.674,22.928,22.928,0,0,1-4.12,2.8,4.642,4.642,0,0,0-2.233,1.357,9.183,9.183,0,0,0-2,1.926,1.312,1.312,0,0,0-.085.251c.119.26.113.592.431.739a3.294,3.294,0,0,0,2.183-.416c.473-.257.9-.605,1.39-.822a27.95,27.95,0,0,0,3.226-1.724c1.8-1.1,3.674-2.056,5.571-3.018a12.423,12.423,0,0,0,3.764-.345,8.647,8.647,0,0,1,1.892-.295,38.166,38.166,0,0,0,5.38-2.948,11.18,11.18,0,0,1,2.859-1.47,4.61,4.61,0,0,0,.9-.523,5.5,5.5,0,0,0,1.417-.289,25.95,25.95,0,0,1,3.537-.871A17.748,17.748,0,0,0,144,171.4a18.278,18.278,0,0,1,4.745-.81,10.253,10.253,0,0,1,2.905-.294,4.05,4.05,0,0,0,.562-.129,21.116,21.116,0,0,1,2.44-.422c.741-.049,1.434-.291,2.16-.367.357-.333.854-.167,1.3-.362a7.523,7.523,0,0,0-.49-.867c-.5-.665-1.039-1.3-1.536-1.964-.671-.9-1.322-1.817-1.969-2.737a9.049,9.049,0,0,0-.711-1.1c-1.083-1.132-1.794-2.546-2.848-3.7a4.467,4.467,0,0,1-.415-.6,4.57,4.57,0,0,0-.649-.965,7.249,7.249,0,0,1-.727-.934c-3.051,1.106-6.073,2.187-9.1,3.24s-6.051,2.156-9.173,3.272c-.5,0-1.088.007-1.678,0a7.42,7.42,0,0,1-1.879-.254,33.452,33.452,0,0,1-3.324-1.2l-1.231-.117-.7-.449a5.285,5.285,0,0,1-1.278-.143c-1.479-.536-2.9,0-4.328.206a8.918,8.918,0,0,0-2.871,1.063,26.791,26.791,0,0,1-4.819,2.064,3.9,3.9,0,0,0-2.474,2.509,17.336,17.336,0,0,0-.546,2.852,1.294,1.294,0,0,0,.135.857,4.707,4.707,0,0,1,.244.793c.289.155.363.5.7.527l1.783-2.587c.656-.462,1.233-.92,1.86-1.295a4.94,4.94,0,0,1,2.124-.947c.724-.037,1.392-.558,2.135-.252l.115.309m-42.518-30.2c.613,1.091,1.249,2.08,1.738,3.138a7.766,7.766,0,0,0,1.279,2.059,9.512,9.512,0,0,0-.057,1.079,10.772,10.772,0,0,0,.169,1.116,6.529,6.529,0,0,1,.14.839,6.33,6.33,0,0,0,1.451,3.756c.417.536.843,1.064,1.269,1.592a10.083,10.083,0,0,1,1.34,1.721,5.226,5.226,0,0,0,1.287,1.543c.363.316.607.813,1.011,1.025a4.511,4.511,0,0,1,1.2,1.06,36.6,36.6,0,0,0,3.856,3.4c.2.163.433.426.782.334.207-.181-.032-.347-.027-.523a5.217,5.217,0,0,0-.013-.736,12.832,12.832,0,0,0,.051-1.719,9.589,9.589,0,0,1-.094-1.762,7.638,7.638,0,0,0-.047-.882,8.819,8.819,0,0,1,0-3.767,2.578,2.578,0,0,0,.032-.588,17.85,17.85,0,0,1,.75-5.2,25.464,25.464,0,0,1,1.346-4.733,5.411,5.411,0,0,1-.232-2.681c.637-1.048,1.972-.891,2.75-1.5.371-.032.618-.038.859-.078.218-.036.481.061.638-.183a13.784,13.784,0,0,0-3.051-4.143,7.435,7.435,0,0,1-2.1-1.224,10.722,10.722,0,0,1-1.857-.28,1.053,1.053,0,0,0-.72.014,10.149,10.149,0,0,1-1.58.226c-.46.2-.922.376-1.35.608a8.535,8.535,0,0,0-3.336,2.816,18.5,18.5,0,0,1-2.659,3.115,2.138,2.138,0,0,1-1.327.759c-.249-.08-.4-.189-.449-.4a4.48,4.48,0,0,1,1.072-1.387A8.428,8.428,0,0,0,78.121,132a17.746,17.746,0,0,1,1.213-1.976,5.723,5.723,0,0,1,1.63-1.633,8.384,8.384,0,0,1,1.693-1.12,13.73,13.73,0,0,0,1.724-.9,12.235,12.235,0,0,0,2.285-.191c.306.213.667.109,1,.173s.576.412,1.008.193a1.9,1.9,0,0,0-.379-.851,4.407,4.407,0,0,1-.617-.82c-.668-1.484-1.836-2.653-2.549-4.106-.085-.173-.267-.3-.347-.473a5.449,5.449,0,0,0-2.088-2.562,17.857,17.857,0,0,0-3.008-2.556,8.276,8.276,0,0,0-2.624-1.235c-.279-.085-.557-.171-.836-.253a.6.6,0,0,0-.621.108,4.2,4.2,0,0,0-.344,1.623c.032.485-.273.922-.154,1.409-.277.5-.049,1.091-.241,1.585a8.562,8.562,0,0,0-.239,3c-.392.267-.178.881-.56,1.245l-.669.3a6.126,6.126,0,0,0-.351.638c-.092.222-.132.465-.2.7a9.661,9.661,0,0,0-.322,2.754,5.117,5.117,0,0,1-.084,1.017c-.083.388.225.741.039,1.134a4.017,4.017,0,0,0-.186,1.591,38.629,38.629,0,0,1-.156,4.094c-.073.472-.119.949-.19,1.524M131.5,76.445a7.813,7.813,0,0,1,1.967-2.725,11.644,11.644,0,0,1,3.411-2.705,7.322,7.322,0,0,0,3.686-4.133c.441-1.176.839-2.406,2.046-3.087a.213.213,0,0,0,.088-.115c.167-.556.754-.731,1.06-1.181a11.371,11.371,0,0,1,1.217-1.269c.37-.392.72-.8,1.112-1.239,0-.974,0-1.953,0-2.933a4.107,4.107,0,0,1,.125-1.009,8.235,8.235,0,0,0,.095-2.869c-.125,0-.189-.02-.219,0-.8.625-1.649,1.2-2.335,1.814-.193.514.26.813.192,1.141a.255.255,0,0,1-.384.153c-.4-.083-.324-.606-.789-.738l-.714.343c0,.255.228.453.078.755l-.295.24-.625-.407-.962.352c-.143.233-.222.546-.545.627a1.139,1.139,0,0,0-.954-.176c-.478.416.027.607-.3.895l-1.164-.534c-.463.03-.582.358-.828.489l-.382-.206c-.309.09-.657-.055-.912.2l-.161.273-.77-.5a1.23,1.23,0,0,0-.8.069l-.527.475-.286-.109v-.369a.647.647,0,0,0-.593-.025c-.206.261-.295.628-.642.763a.256.256,0,0,1-.351-.179l.14-.672-.521-.49-.611.165a4.354,4.354,0,0,0-2.394-.879,2.9,2.9,0,0,0-1.663-1.14c-.568.272-.571.909-1.05,1.128a.69.69,0,0,1-.27-.071c-.065-.053-.082-.164-.141-.294l1.1-1.135c-.39-.333-.744-.644-1.107-.943a12.325,12.325,0,0,0-1.033-.809c-.406-.267-.436-.872-.94-1.031a.7.7,0,0,0-.369.616c-.017.687-.006,1.375-.04,2.06-.075,1.5-.18,3-.256,4.5a14.439,14.439,0,0,1-.3,3,4.343,4.343,0,0,0-.013,1.051c1.135,1.195,1.876,2.724,3.164,3.771l.386.961V69.5c.342.318.274.734.325,1.121l.913,1.4a18.922,18.922,0,0,0,2.278,1.228,2.273,2.273,0,0,1,.833.584,16.24,16.24,0,0,1,2.033,2.612M99.306,144.269a54.6,54.6,0,0,1,5.224-2.43,5.211,5.211,0,0,0,2.271-1.875l-.363-.358a4.514,4.514,0,0,0-.588-.045,12.826,12.826,0,0,0-2.322.273c-.737.2-1.554.072-2.3.339a6.584,6.584,0,0,1-2.3.353,5.26,5.26,0,0,0-.714.141,9.231,9.231,0,0,1-2.3.389,1.014,1.014,0,0,1-.273-.127l-.1-.546c-.295-.273-.924-.049-1-.679l.35-.3a10.375,10.375,0,0,0,1.878-.148c1.364-.352,2.7-.8,4.048-1.229.167-.053.289-.246.429-.372-.018-.374-.035-.714-.048-.986a2.312,2.312,0,0,0-1.264-.891,23.786,23.786,0,0,1-3.469-.234,10.681,10.681,0,0,0-3.784.294c-.465.071-.929.271-1.353.323l-1,.7a3.946,3.946,0,0,0,.805,3.451c-.329.394-.7.01-1.108.038-.351,1-.486,2.059-.738,3.09a31.884,31.884,0,0,0-.844,6.651c0,.091-.08.179-.106.272-.011.039.021.09.032.129a.975.975,0,0,0,.677.578l.51-.117,1.2.719a5.633,5.633,0,0,0,1.549.046,7.52,7.52,0,0,1,3.836.705,14.341,14.341,0,0,0,2.527.718,1.323,1.323,0,0,0,1.005-.075,2.693,2.693,0,0,1,.855-.177,6.452,6.452,0,0,0,1.959-.537,34.551,34.551,0,0,0,4.875-3.187c0-.368.355-.635.179-1a2.542,2.542,0,0,0-.993-.555,3.235,3.235,0,0,0-1.855.422c-.344.187-.715.33-1.04.543a18.44,18.44,0,0,1-3.921,1.924,11.322,11.322,0,0,0-1.743.281,2.761,2.761,0,0,1-1.7-.015l-.1-.377a2.516,2.516,0,0,1,1.55-.686,16.031,16.031,0,0,0,4.349-1.617,28.319,28.319,0,0,0,5.5-3.832c.062-.059.072-.174.106-.264a.738.738,0,0,0-.115-.252,2.4,2.4,0,0,0-.354-.235,3.541,3.541,0,0,1-.726.177,25.946,25.946,0,0,0-4.573.866c-1.616.335-3.151,1.062-4.846,1.023a.728.728,0,0,0-.271.1c-.918.4-1.957,0-2.873.433a.613.613,0,0,1-.292.006c-.3-.028-.565-.117-.609-.493a.8.8,0,0,1,.607-.358,8.317,8.317,0,0,0,2.443-.624c1.062.189,2.08-.322,3.23-.359m42.424-78c.035.095.075.145.066.186a3.732,3.732,0,0,1-.955,2.067,4.012,4.012,0,0,0-.64.8,5.139,5.139,0,0,1-2.1,1.981.3.3,0,0,0-.156.385,4.725,4.725,0,0,1,.951-.2,12.437,12.437,0,0,0,2.837-.611,1.775,1.775,0,0,0,.535-.208c.649-.419,1.327-.788,1.972-1.22,1.619-1.085,3.065-2.387,4.609-3.564a2.911,2.911,0,0,0,1.015-1.256,16.119,16.119,0,0,1,.205-2.556c-.658-1.857-1-3.815-2.345-5.329a.347.347,0,0,0-.445.15v2.6a9.075,9.075,0,0,1-.428.882,38.578,38.578,0,0,1-3.607,4.213c-.765.349-1.022,1.137-1.518,1.686M125.618,72.81a4.685,4.685,0,0,1-1.4-2.486v-1.9a32.628,32.628,0,0,1-2.618-3.371,1.014,1.014,0,0,0-.256-.328c-1.339-.859-1.578-2.276-1.788-3.662a5.306,5.306,0,0,1,.631-3.107c.255-.526.537-1.039.84-1.621-.22-.174.182-.524-.249-.7a5.663,5.663,0,0,0-2.219,3.175,4.913,4.913,0,0,1-.289.67,16.651,16.651,0,0,0-.827,3.236c-.1.569-.2,1.141-.339,1.668.122.376.236.7.331,1.025a5.311,5.311,0,0,1,.247.99,11.427,11.427,0,0,0,.948,2.741,1.408,1.408,0,0,0,.544.674,4.391,4.391,0,0,1,1.146,1.424,7.986,7.986,0,0,0,2.478,1.337,5.312,5.312,0,0,0,2.817.231M78.334,48.241c-.26.1-.341.315-.42.556a10.384,10.384,0,0,1-.993,2.428c-.264.413-.5.842-.762,1.258A20.234,20.234,0,0,1,73.554,56.2a7.326,7.326,0,0,0-1.2,1.644c-.464.854-.824,1.765-1.289,2.784a2,2,0,0,1-.019.871,9.246,9.246,0,0,0-.539,3.577,3.857,3.857,0,0,1,.249.808,10.005,10.005,0,0,0,1.032,3.486,5.042,5.042,0,0,1,.458,1.378,14.872,14.872,0,0,0,.553,1.507,5.351,5.351,0,0,0,.529,1.509c.1.159.069.444.416.5a3.493,3.493,0,0,0-.193-1.47,9.245,9.245,0,0,1-.205-1.59,12.616,12.616,0,0,1-.45-3.474c.054-1.519,0-3.042-.022-4.564a5.962,5.962,0,0,1,.145-1.457c.2-.848.355-1.706.529-2.556a2.954,2.954,0,0,0,.448-.594,6.7,6.7,0,0,1,1.693-2.2,10.623,10.623,0,0,0,2.383-4.158,1.19,1.19,0,0,0,.073-.282,5.645,5.645,0,0,0,.137-1.714c-.148-.668.23-1.234.137-1.856-.006-.042-.053-.079-.082-.119m-.8,50.254a14.952,14.952,0,0,0-2.051-3.671,1.114,1.114,0,0,1-.211-.381c-.4-1.33-1.344-2.378-1.882-3.636-.586-.55-.656-1.425-1.243-1.974A23.513,23.513,0,0,0,70.4,85.814c-.573-1.013-1.163-2.026-1.829-2.994a15.518,15.518,0,0,1-2.068-3.692,2.035,2.035,0,0,0-.245-.531,38.571,38.571,0,0,1-2.5-4.966c-.139-.784-.685-1.419-.854-2.168a14.044,14.044,0,0,0-.842-2.181c-.311-.766-.552-1.561-.878-2.32-.5-1.166-1.084-2.3-1.558-3.471a25.067,25.067,0,0,1-1.04-2.55,6.235,6.235,0,0,0-.48-.9,5.951,5.951,0,0,0,.18,2.034,3.041,3.041,0,0,1,.341,1.113c.013.437.273.8.222,1.268-.036.334.308.692.382,1.059a21.307,21.307,0,0,0,1.669,4.494c.44.977.988,1.9,1.433,2.872a10.382,10.382,0,0,0,1.336,2.246,2.493,2.493,0,0,1,.644,2.032,18.221,18.221,0,0,1,1.516,2.521c.691,1.064,1.38,2.131,2.01,3.231.921,1.608,1.787,3.247,2.682,4.87.491.89.987,1.778,1.494,2.659.341.591.751,1.146,1.049,1.758a6.245,6.245,0,0,0,1.222,1.815,3.411,3.411,0,0,0,.918,1.806,5.2,5.2,0,0,1,.618.991c.437.762.866,1.529,1.331,2.352l.374-.671m7.676,6.5a6.572,6.572,0,0,0,.66,2.517,12.512,12.512,0,0,1,.661,1.933,18.069,18.069,0,0,0,.974,2.679,1.25,1.25,0,0,0,.093-.357c-.179-1.451-.524-2.879-.563-4.349a2.009,2.009,0,0,0-.1-.426c-.158-.613-.351-1.219-.467-1.839a19.287,19.287,0,0,1-.685-3.137,15.253,15.253,0,0,1-.985-2.893,40.774,40.774,0,0,0-1.69-4.2,4.838,4.838,0,0,1-.534-2.256,2.476,2.476,0,0,0-.142-.692,7.975,7.975,0,0,1,.7-1.946l1.538-1.032a.781.781,0,0,0-.365-.878c-1.506.127-2.311,1.2-3.215,2.166a7.173,7.173,0,0,0,.144,1.928c.4,1.11.5,2.285.894,3.39.308.87.573,1.755.839,2.64a15.363,15.363,0,0,0,.564,1.952,4.229,4.229,0,0,1,.3,1.429,5.642,5.642,0,0,1,.61,1.631,3.5,3.5,0,0,0,.769,1.744M140.9,3.574a9.525,9.525,0,0,0-2.113.2,8.541,8.541,0,0,1-2.292.438c-.442-.016-.822.289-1.288.251a5.011,5.011,0,0,0-1.228.185,8.548,8.548,0,0,0-1.3.194c-1.389.469-2.892.452-4.254,1.025a7.955,7.955,0,0,0-2.668.739,3.822,3.822,0,0,1-.541.213c-1.908.325-3.456,1.52-5.237,2.15a16.805,16.805,0,0,0-4.122,3.932,14.355,14.355,0,0,0-1.228,2.165,8.5,8.5,0,0,0-.672,1.27,22.391,22.391,0,0,0-.591,2.7,1.775,1.775,0,0,0,.083,1.258,3.705,3.705,0,0,0,.456-1.083c.16-.859.394-1.7.6-2.555.668-.966.929-2.153,1.662-3.08.516-.653,1.06-1.283,1.6-1.916a6.493,6.493,0,0,1,1.217-1.058,29.549,29.549,0,0,1,7.195-3.488,26.632,26.632,0,0,1,2.958-.822,40.155,40.155,0,0,1,4.721-.973c.469-.054.927-.238,1.394-.255a8.519,8.519,0,0,0,1.585-.287,21.9,21.9,0,0,1,3.878-.647c.083,0,.163-.094.244-.144l-.057-.417M64.384,48.324a5.506,5.506,0,0,1-.228,1.213c-.457,1.03-.666,2.136-1.054,3.183a22.865,22.865,0,0,0-.885,3.839,19.07,19.07,0,0,0-.248,4.792,4.926,4.926,0,0,0,.066,1.315c.152.411.2.854.4,1.258a1.878,1.878,0,0,0,.067-.586,18.26,18.26,0,0,0,.016-2.062c-.068-.684.25-1.332.1-2.008.247-.238.014-.535.1-.8s.1-.572.158-.855.187-.558.223-.844a13.691,13.691,0,0,1,.787-3.1,12.658,12.658,0,0,0,.641-1.939q.5-2.506,1.206-4.958a1.611,1.611,0,0,0-.127-1.174,5.8,5.8,0,0,0-.662,1.3,5.994,5.994,0,0,1-.564,1.427m71.738-36.458c-.451.155-.825.255-1.174.412a.47.47,0,0,0-.32.584.547.547,0,0,0,.663.126,2.3,2.3,0,0,1,1.124-.283,8.075,8.075,0,0,0,1.432-.237c1.035-.245,2.094-.388,3.145-.564a.81.81,0,0,1,.435.011,1.186,1.186,0,0,0,.979,0,.9.9,0,0,1,.711-.009c.423.307.85-.027,1.253.1a5.261,5.261,0,0,0,1.456.082,17.372,17.372,0,0,1,5.355.57,1.051,1.051,0,0,0,.986-.07c-.005-.092-.01-.183-.018-.314-.314-.077-.649-.134-.964-.243s-.627-.276-1.1-.49a10.3,10.3,0,0,1-1.6-.018c-.571-.084-1.118-.356-1.7-.088a13.508,13.508,0,0,0-3.351-.182,23.4,23.4,0,0,0-5.246.378,8.244,8.244,0,0,1-2.068.238M98.628,134.5a.838.838,0,0,0,.688.346,3.677,3.677,0,0,1,1.572.309c.257.12.588.075.855.181a1.715,1.715,0,0,0,1.547-.16,1.083,1.083,0,0,0,.2-.184v-.588a25.1,25.1,0,0,1-2.143-2.383c-1.126-.45-1.126-.45-2.741.024l-.25.955c.286.44.027.974.272,1.5m-.9-24.679-2.159,1.009c-.2.208-.452.443-.668.709a9.312,9.312,0,0,0-1.9,3.265,7.355,7.355,0,0,1-.323,1.118.4.4,0,0,0,.2.587,8.989,8.989,0,0,1,2.193-3.105,6.631,6.631,0,0,0,1.052-1.265,13.277,13.277,0,0,1,3.21-1.641,2.207,2.207,0,0,1,2.08-.205l.045-.334c-.362-.212-.769-.06-1.145-.136s-.748-.189-1.149-.293a3.475,3.475,0,0,1-1.433.29m3.856,58.916c.573.277,1.223.6,1.88.9.069.032.178-.024.3-.044.22-.477.069-1.033.286-1.54a2.25,2.25,0,0,0,.049-1.574,4.144,4.144,0,0,0-2.416-.31l-.461.794v1.014l.363.758m1.079-15.074c.165.376.269.646.4.9a34.7,34.7,0,0,1,2.046,4.345c.623.761.789,1.767,1.37,2.551.285.385.55.786.821,1.177a.688.688,0,0,0,.645-.219,5.118,5.118,0,0,1-1.089-1.621,10.329,10.329,0,0,1-.928-2.13,16.76,16.76,0,0,0-1.412-3.183,5.284,5.284,0,0,1-.695-1.9.33.33,0,0,0-.3-.328l-.858.4M153.9,17.852A32.8,32.8,0,0,0,146,17.5c-.217.138-.385.233-.433.44a.656.656,0,0,0,.477.4c.083,0,.229,0,.376,0a36.356,36.356,0,0,1,4.481.2,18.586,18.586,0,0,0,3.3.1c.244-.44-.016-.6-.307-.8m-2.113,4.669a.531.531,0,0,0-.073.589c.272.777.569,1.546.865,2.314a11.984,11.984,0,0,1,.87,3.82,3.823,3.823,0,0,0,.2,1.588c.247.522-.006,1.172.34,1.707.145.225-.058.6.316.78a.564.564,0,0,0,.538-.343,24.439,24.439,0,0,1-.827-4.761,6.49,6.49,0,0,0-.162-.853,20.675,20.675,0,0,0-1.777-4.611c-.043-.1-.19-.157-.286-.232m4.6,4.542a9.536,9.536,0,0,0-1.18-3.922,5.745,5.745,0,0,0-1.4-2.085c-.256-.018-.36.089-.356.246a1.622,1.622,0,0,0,.1.563,8.535,8.535,0,0,1,.676,1.612,15.272,15.272,0,0,0,.874,2.3,8.771,8.771,0,0,0,.683,1.312.471.471,0,0,0,.6-.024M81.841,129.14l.158.114a3.459,3.459,0,0,1,1.009-.526,8.7,8.7,0,0,0,1.629-.56c.325,0,.62-.012.914,0a2.749,2.749,0,0,0,.847.07,4.465,4.465,0,0,1,2.9.679c.055.038.179-.024.332-.05-.627-.93-1.708-1.088-2.482-1.618a10.417,10.417,0,0,0-2.248.108c-.926.128-1.492.915-2.362,1.107a1.2,1.2,0,0,0-.469.344,1.858,1.858,0,0,0-.229.33M35.065,62.013A2.61,2.61,0,0,0,33.58,63.29c-.358.717-.392.741-.367,1.274,1.219-.348,2.181-1.232,3.419-1.654l.75.164.075-.306c-.273-.458-.763-.562-1.225-.754Zm81.693-21.6c.292-.746-.217-1.315-.252-1.951a.922.922,0,0,0-.79.373c.223.407.443.829.685,1.237a2.018,2.018,0,0,0,.357.341m-31.09,48.1a1.07,1.07,0,0,0,.913-.154c.383-.226.856.079,1.234-.2.015-.011,0-.06,0-.09-1.532-.153-1.946-.131-2.187.117l.039.323m26.316,70.952c-.09.4-.09.4.315.667.172-.354-.066-.513-.315-.667M90.736,125.09c.066-.434.066-.434-.314-.407,0,.215.15.317.314.407M4.819,38.859c.371.042.371.042.318-.353-.173.057-.311.146-.318.353m77.065,70.75c-.125.135-.158.259.024.376a.275.275,0,0,0-.024-.376m5.906,3.335c.022-.036.067-.075.063-.108a1.6,1.6,0,0,0-.065-.243c-.027.022-.076.043-.077.066a1.293,1.293,0,0,0,.014.25c0,.014.043.024.065.035m.266.514c-.137.119-.108.24-.01.37.168-.122.133-.243.01-.37M65.947,74.446a.274.274,0,0,0,0,.445c.187-.148.117-.3,0-.445m35.609,46.132.111.05.007-.081Zm-3.731,2.9-.058.082.1.012ZM66.255,75.331c-.031.028-.1.065-.091.085.036.143.1.148.158.012.009-.021-.046-.069-.066-.1m15.852,35.207.076.055.012-.094Zm19.846-.346-.1.047q.077.136.182.021l-.084-.068m-20.731-1.41.076.061.013-.1Zm-38.609-2.866c.028-.028.076-.054.078-.085s-.04-.064-.062-.1c-.027.028-.072.054-.074.084s.037.064.058.1" transform="translate(0 0.003)" fill="#306177"/>
      <path id="Path_19810" data-name="Path 19810" d="M756.141,465.779l.276.211c.219.311-.2.53-.12.822-.827,1.766-1.295,3.66-1.951,5.487-.461,1.284-1.029,2.534-1.423,3.838s-.944,2.553-1.346,3.853a5.551,5.551,0,0,1-.256.681,18.446,18.446,0,0,0-1.258,3.57,2.881,2.881,0,0,1-.227.535c-.511,1.1-.8,2.29-1.258,3.416q-.657,1.623-1.258,3.268c-.7,1.916-1.362,3.845-2.064,5.76-.149.406-.232.873-.715,1.063a3.213,3.213,0,0,1-.3,1.617,8.764,8.764,0,0,0-.461,1.231c-.71,1.914-1.326,3.863-2.119,5.749-.395.939-.64,1.941-.982,2.9-.294.828-.6,1.653-.954,2.458s-.59,1.647-.866,2.478a2.109,2.109,0,0,1-.983,1.377l-.881-.3a.854.854,0,0,1-.07-.928c.691-1.875,1.326-3.774,2.109-5.611.538-1.263.948-2.564,1.446-3.836.48-1.225.941-2.456,1.408-3.685.6-1.592,1.282-3.157,1.906-4.742.927-2.354,1.838-4.716,2.635-7.116a17.689,17.689,0,0,0,.867-2,33.323,33.323,0,0,1,1.327-3.377,30.1,30.1,0,0,1,1.3-3.416c.327-.7.544-1.46.819-2.19.224-.592.474-1.171.73-1.75.231-.524.211-1.156.687-1.578-.02-.361.208-.647.29-.974a20.579,20.579,0,0,1,1.059-2.868c.763-1.842,1.612-3.649,2.287-5.528.058-.162.231-.283.348-.421" transform="translate(-591.056 -373.632)" fill="#306177"/>
      <path id="Path_19811" data-name="Path 19811" d="M577.88,651a3.735,3.735,0,0,0-2.055-.032c-.333.076-.663.132-1,.188-1.013.173-2.037.213-3.055.313a31.612,31.612,0,0,0-3.423.7,11.574,11.574,0,0,1-2.4.5,3.148,3.148,0,0,1-1.821.569c-1.626.643-3.375.936-4.95,1.727a.463.463,0,0,1-.145.019.538.538,0,0,1-.584-.347c.028-.082.032-.212.087-.24a21.847,21.847,0,0,1,2.359-1.139,36.262,36.262,0,0,1,3.726-1.261c1.129-.274,2.23-.667,3.353-.969.7-.189,1.424-.327,2.143-.449a24.427,24.427,0,0,1,4.028-.634,15.186,15.186,0,0,1,2.286-.436,6.422,6.422,0,0,1,1.309-.127,8.5,8.5,0,0,0,1.61-.1c.475-.125.971.2,1.4-.136a10.283,10.283,0,0,1,3.491.18,2.047,2.047,0,0,0,.684.011l1.083.836a.679.679,0,0,1-.327.878,1.381,1.381,0,0,1-.393.2,22.534,22.534,0,0,1-2.672.747c-1.585.259-3.17.5-4.742.834-.8.172-1.64.146-2.462.326a11.71,11.71,0,0,1-2.349.09,5.5,5.5,0,0,1-.71-.08c-.02-.36.19-.456.417-.548a20.661,20.661,0,0,1,3.451-1.156c.5-.107.994-.273,1.657-.459m.373-.089a.6.6,0,0,0-.1.068c.045.114.112.121.179.019.006-.009-.05-.058-.075-.086" transform="translate(-447.968 -520.671)" fill="#306177"/>
      <path id="Path_19812" data-name="Path 19812" d="M845.732,425.406l.4.809a21.479,21.479,0,0,0-.834,3.479,6.715,6.715,0,0,1-.5,1.412c.03.108.13.26.1.374-.182.614-.088,1.282-.273,1.869-.413,1.31-.378,2.7-.8,4a.386.386,0,0,0-.011.146c.1,1.283-.349,2.512-.368,3.787a8.853,8.853,0,0,1-.263,1.72c-.34,1.566-.426,3.171-.765,4.742a14.857,14.857,0,0,0-.438,2.889,7.477,7.477,0,0,1-.319,2.012,6.869,6.869,0,0,0-.211,1.739,13.607,13.607,0,0,1-.222,2.92,1.48,1.48,0,0,0,.125,1.256c-.215.39-.425.719-.917.733-.094-.082-.249-.156-.3-.275a5.4,5.4,0,0,1-.374-3.293,6.085,6.085,0,0,0,.156-1.445,21.093,21.093,0,0,1,.553-4.484c.142-.815.284-1.635.386-2.451a7.2,7.2,0,0,1,.582-2,17.208,17.208,0,0,1,.493-4.152c.152-.913.247-1.834.407-2.748.227-1.289.453-2.578.707-3.863a25.433,25.433,0,0,1,.935-3.361c.217-.63.252-1.328.436-1.984a31.617,31.617,0,0,1,1.316-3.833" transform="translate(-673.542 -341.246)" fill="#306177"/>
      <path id="Path_19813" data-name="Path 19813" d="M876.175,503.521c-.574,1.075-1,2.106-1.573,3.072-.547.919-1,1.893-1.5,2.842-.839,1.6-1.63,3.23-2.534,4.793a36.567,36.567,0,0,1-2.447,4.142.786.786,0,0,0-.167.24,12.93,12.93,0,0,1-1.367,2.732,7.306,7.306,0,0,0-.835,1.867,1.682,1.682,0,0,1-.69,1.075,1.336,1.336,0,0,1-1.224-.143,1.888,1.888,0,0,1,.275-1.312,19.827,19.827,0,0,1,1.361-2.75c.271-.462.543-.924.81-1.391a38.722,38.722,0,0,1,2.109-3.512c.687-.951,1.175-2.007,1.822-2.975,1.246-1.863,2.127-3.947,3.5-5.745a25.307,25.307,0,0,0,1.477-2.526.718.718,0,0,1,.984-.41" transform="translate(-692.907 -403.86)" fill="#306177"/>
      <path id="Path_19814" data-name="Path 19814" d="M723.882,409.028c-.355-.073-.255-.343-.25-.646a5.346,5.346,0,0,1,.412-.525A11.131,11.131,0,0,1,726.6,405.7c1.028-.545,2.033-1.139,3.072-1.668,1.177-.6,2.453-.93,3.656-1.451.222-.1.467-.143.68-.254a3.407,3.407,0,0,1,1.739-.376,8.219,8.219,0,0,1,3.259-1.114c1.4-.316,2.862-.336,4.286-.581a1.05,1.05,0,0,1,.571.062,2.445,2.445,0,0,0,1.7-.009,4.318,4.318,0,0,1,1.825,1.092c.2.684-.235,1.173-.3,1.728l-.656.566c-.248.015-.446.046-.649-.181-.2-.491.154-1.109-.149-1.657a.843.843,0,0,0-.676-.194,16.312,16.312,0,0,0-2.788.034c-1.432.245-2.932.129-4.294.762a27.976,27.976,0,0,0-4.207,1.19,4.661,4.661,0,0,0-1.088.4,4.633,4.633,0,0,1-1.082.427,17.436,17.436,0,0,0-4.588,2.148,26.483,26.483,0,0,0-2.494,1.777,1.39,1.39,0,0,0-.567.652Z" transform="translate(-580.46 -321.063)" fill="#306177"/>
      <path id="Path_19815" data-name="Path 19815" d="M885.96,714a2.749,2.749,0,0,1-1.026,1.041c-.765-.1-1.523.236-2.394-.042l-1.063-.723a7.042,7.042,0,0,0-1.105-1.373V712.1l.407-.246,1.635,1.706,1.046.26a1.132,1.132,0,0,0,.714-.325v-.546a5.96,5.96,0,0,0-2.063-1.648,9.466,9.466,0,0,0-1.858-.86c-.525-.156-.832-.726-1.434-.671a19.511,19.511,0,0,0-4.728-1.369,18.237,18.237,0,0,0-2.863-.2c-.445.307-.942-.4-1.379.069l-1.393.093c-.353-.4-.054-.562.232-.839.442-.023.976-.075,1.509-.071a2.207,2.207,0,0,0,1.134-.183,1.061,1.061,0,0,1,.993.02,2.178,2.178,0,0,0,.855.169,7.742,7.742,0,0,1,2.178.162c.632.235,1.33.233,1.985.444a5.393,5.393,0,0,1,.96.318c.9.491,1.894.752,2.825,1.168a3.1,3.1,0,0,1,1.152.6c.255.281.623.256.926.38A7.241,7.241,0,0,1,885.96,714" transform="translate(-696.518 -567.253)" fill="#306177"/>
      <path id="Path_19816" data-name="Path 19816" d="M834.734,778.326a2.2,2.2,0,0,1,1.061-.986,5.88,5.88,0,0,0,.95-.912l.929.27c.167.15.172.291.121.53.012-.043.015.025-.016.047a9.466,9.466,0,0,0-1.023,1.022,3.617,3.617,0,0,1-1.234.753c-.689.258-1.265.709-1.925,1.006a5.266,5.266,0,0,1-.639.189,4.093,4.093,0,0,1-1.787,1.09,2.115,2.115,0,0,0-.628.35,14.289,14.289,0,0,1-2.946,1.572c-.864.323-1.663.818-2.5,1.22-.257.124-.562.158-.805.3a5.8,5.8,0,0,0-.745.626,5.009,5.009,0,0,0-1.406.543,3.062,3.062,0,0,1-1.538.411,2.018,2.018,0,0,1-.51-.145l1.051-.9a12.878,12.878,0,0,0,2.746-1.365,3.279,3.279,0,0,1,1.742-.619c.1-.119.207-.381.4-.475a46.589,46.589,0,0,0,4.87-2.584,16.962,16.962,0,0,0,2.622-1.555,4.588,4.588,0,0,1,1.209-.391" transform="translate(-657.85 -622.824)" fill="#306177"/>
      <path id="Path_19817" data-name="Path 19817" d="M865.185,648.6a1.429,1.429,0,0,1-.911-.038c0-.079-.023-.183.017-.24a1.561,1.561,0,0,1,.455-.548,25.548,25.548,0,0,0,3.332-2.6c.3-.253.606-.488.908-.728a17.954,17.954,0,0,0,1.819-1.432,6.956,6.956,0,0,1,1.937-1.522c.883-.407,1.54-1.192,2.769-1.414a.9.9,0,0,1,.907.423,1.972,1.972,0,0,1-1.362,1.011,3.882,3.882,0,0,0-1.018.541c-1.1.721-2.189,1.447-3.317,2.116-.385.228-.594.6-.967.852a24.383,24.383,0,0,0-2.137,1.764,1.564,1.564,0,0,1-.349.265,6.346,6.346,0,0,0-2.084,1.546" transform="translate(-693.288 -513.455)" fill="#306177"/>
      <path id="Path_19818" data-name="Path 19818" d="M665.27,427.023a1.559,1.559,0,0,1,.391,1.5c-.354.236-.656.59-1.108.506-.319-.073-.435-.289-.573-.543v-.658a2.13,2.13,0,0,1,.684-.8Z" transform="translate(-532.622 -342.543)" fill="#306177"/>
      <path id="Path_19819" data-name="Path 19819" d="M647.838,558a1.67,1.67,0,0,1,1.232-.043,1.278,1.278,0,0,1-.152,1.541,1.3,1.3,0,0,1-1.062.1l-.369-.422.351-1.176" transform="translate(-519.392 -447.493)" fill="#306177"/>
      <path id="Path_19820" data-name="Path 19820" d="M657.152,486.856c-.561-.31-.241-.769-.415-1.09a1.871,1.871,0,0,1,.747-.662.809.809,0,0,1,.888.348,1.172,1.172,0,0,1,.027.854,1.127,1.127,0,0,1-1.247.55" transform="translate(-526.812 -389.12)" fill="#306177"/>
      <path id="Path_19821" data-name="Path 19821" d="M724.813,444.671c.077.026.188.03.221.083.05.079-.028.16-.1.112-.056-.038-.063-.147-.092-.225Z" transform="translate(-581.421 -356.675)" fill="#306177"/>
      <path id="Path_19822" data-name="Path 19822" d="M625.576,123.239a1.553,1.553,0,0,1-1,.948c-.983.114-1.95.281-2.923.326a12.763,12.763,0,0,1-4.954-.325.811.811,0,0,1-.485-.458.4.4,0,0,1,.28-.48,6.219,6.219,0,0,1,1.983-.461,9.276,9.276,0,0,0,1.305-.16,12.4,12.4,0,0,1,5.093.215,3.36,3.36,0,0,1,.7.394" transform="translate(-494.3 -98.235)" fill="#306177"/>
      <path id="Path_19823" data-name="Path 19823" d="M665.421,154.436a23.783,23.783,0,0,1,2.125,1.164l.049.291c-.08.05-.158.139-.24.144-.292.018-.585.007-.847.007l-1.632-.965a5.242,5.242,0,0,0-.9-1.118,2.617,2.617,0,0,1-.011-1.5c.531-1.815.949-3.661,1.589-5.447.16-.446.182-.954.368-1.405a.754.754,0,0,1,.559-.424c.276,0,.539.18.465.415-.09.286.051.533-.046.827a30.468,30.468,0,0,0-1.06,4.233,7.632,7.632,0,0,1-.607,1.945,1.8,1.8,0,0,0,.193,1.837" transform="translate(-532.523 -116.457)" fill="#306177"/>
      <path id="Path_19824" data-name="Path 19824" d="M707.122,126.453c.184.344.433.545.389.874-.066.063-.126.172-.2.181a8.78,8.78,0,0,0-1.312.149,2.42,2.42,0,0,1-1.432.044,3.665,3.665,0,0,0-1.165-.082,9.163,9.163,0,0,1-2.46-.35,6.285,6.285,0,0,1-.673-.278,1.2,1.2,0,0,1-.565-.428c-.2-.469.013-.759.478-1.053.392,0,.88,0,1.368,0s.936.262,1.42.066c.379.321.837,0,1.258.167a10.152,10.152,0,0,0,1.418.326c.474.113.944.243,1.476.382" transform="translate(-561.218 -100.679)" fill="#306177"/>
      <path id="Path_19825" data-name="Path 19825" d="M666.4,214.764l1.151-1.045c.49.082.662.451.886.753.029.288-.165.452-.34.616a6.055,6.055,0,0,1-3.558,1.548,6.513,6.513,0,0,0-1.443.256,10.378,10.378,0,0,0-2.169-.258,8.141,8.141,0,0,1-4.282-1.7.4.4,0,0,1-.153-.519c.251-.139.421.13.646.16a1.177,1.177,0,0,1,.525.226,4,4,0,0,0,1.918.627c.575.086,1.145.22,1.722.281a6.86,6.86,0,0,0,1.468.025c.658-.073,1.313-.205,1.962-.327a9.381,9.381,0,0,0,1.667-.648" transform="translate(-526.584 -171.438)" fill="#306177"/>
      <path id="Path_19826" data-name="Path 19826" d="M713.669,150.226l.71,1.011q.037.7.077,1.446l-.39,1.109a1.473,1.473,0,0,1-.851.47,1.223,1.223,0,0,1-1.288-.346,3.507,3.507,0,0,1,.154-3.662l.7-.27.884.242" transform="translate(-570.73 -120.312)" fill="#306177"/>
      <path id="Path_19827" data-name="Path 19827" d="M635.17,150.345a3.753,3.753,0,0,0-.289,1.36l-.565.634a2.009,2.009,0,0,1-1.384.023,1.955,1.955,0,0,1-.69-1.528c-.026-.586.014-1.174.023-1.655a2.824,2.824,0,0,1,.979-1.1,1.515,1.515,0,0,1,1.208.311c.6.479.366,1.28.718,1.952" transform="translate(-507.156 -118.755)" fill="#306177"/>
      <path id="Path_19828" data-name="Path 19828" d="M679.769,240.7a5.157,5.157,0,0,1-3.18.6l-.812-.359a.375.375,0,0,1,.155-.493,7.5,7.5,0,0,0,2.173-.282,3.129,3.129,0,0,1,1.159.029c.2.019.356.151.506.509" transform="translate(-542.057 -192.612)" fill="#306177"/>
      <path id="Path_19829" data-name="Path 19829" d="M631.839,253.717c-.445.033-.636-.047-.6-.446l1.494-.971.171.353a3.3,3.3,0,0,1-1.069,1.065" transform="translate(-506.358 -202.386)" fill="#306177"/>
      <path id="Path_19830" data-name="Path 19830" d="M624.893,246.631a.635.635,0,0,1,.472.409c-.285.144-.567.3-.859.43s-.408.555-.8.549c-.267,0-.286-.2-.317-.414a3.252,3.252,0,0,1,1.508-.974" transform="translate(-500.059 -197.839)" fill="#306177"/>
      <path id="Path_19831" data-name="Path 19831" d="M666.22,269.211l-.448-.41a1.981,1.981,0,0,1,.993-1.337c.273.794-.343,1.149-.545,1.746" transform="translate(-534.06 -214.551)" fill="#306177"/>
      <path id="Path_19832" data-name="Path 19832" d="M737.085,247.781c-.141-.011-.316.027-.418-.042-.349-.235-.672-.509-1.005-.768-.018-.165.04-.274.23-.287.807.449.793.463,1.167,1.124Z" transform="translate(-590.121 -197.882)" fill="#306177"/>
      <path id="Path_19833" data-name="Path 19833" d="M687.458,269.3a.87.87,0,0,1-.353.915h-.242c-.047-.044-.12-.09-.113-.109.1-.317.218-.631.322-.924.181-.06.3-.033.386.118" transform="translate(-550.887 -215.908)" fill="#306177"/>
      <path id="Path_19834" data-name="Path 19834" d="M725.458,253.981a.517.517,0,0,1,.514-.123,1.359,1.359,0,0,1,.709.66c-.061.041-.135.127-.179.114a1.61,1.61,0,0,1-1.044-.651" transform="translate(-581.938 -203.623)" fill="#306177"/>
      <path id="Path_19835" data-name="Path 19835" d="M656.967,253.359a1.042,1.042,0,0,1,.108,1.161l-.279.046c-.3-.447.193-.674.171-1.207" transform="translate(-526.783 -203.236)" fill="#306177"/>
      <path id="Path_19836" data-name="Path 19836" d="M697,265.719l-.438-.039a1.066,1.066,0,0,1-.07-.988c.367.252.231.652.507,1.026" transform="translate(-558.638 -212.327)" fill="#306177"/>
      <path id="Path_19837" data-name="Path 19837" d="M716.112,261.959l.225-.223c.425.119.42.438.574.665-.4.2-.574-.074-.8-.441" transform="translate(-574.441 -209.955)" fill="#306177"/>
      <path id="Path_19838" data-name="Path 19838" d="M680.291,277.094l-.147-.342c.371-.165.371-.165.513.2-.07.15-.2.148-.366.144" transform="translate(-545.589 -221.915)" fill="#306177"/>
      <path id="Path_19839" data-name="Path 19839" d="M712.064,276.744c-.075-.028-.183-.035-.218-.089a.077.077,0,0,1,.1-.111c.056.034.066.142.1.218Z" transform="translate(-571.007 -221.823)" fill="#306177"/>
    </g>
  </g>
</svg>
