<svg xmlns="http://www.w3.org/2000/svg" xmlns:xlink="http://www.w3.org/1999/xlink" width="117.027" height="109.038" viewBox="0 0 117.027 109.038">
  <defs>
    <clipPath id="clip-path">
      <rect id="Rectangle_1208" data-name="Rectangle 1208" width="3.553" height="8.168" fill="#306177"/>
    </clipPath>
    <clipPath id="clip-path-2">
      <rect id="Rectangle_1210" data-name="Rectangle 1210" width="5.152" height="3.55" fill="#306177"/>
    </clipPath>
    <clipPath id="clip-path-3">
      <path id="Path_306" data-name="Path 306" d="M18.011,44.1V41.08a8.055,8.055,0,0,0,6.038-6.038H48.91a8.055,8.055,0,0,0,6.038,6.038V44.1a8.058,8.058,0,0,0-6.038,6.04H24.048a8.058,8.058,0,0,0-6.038-6.04M22.45,31.668a1.677,1.677,0,0,0-1.775,1.775,4.4,4.4,0,0,1-4.439,4.439,1.678,1.678,0,0,0-1.778,1.775V45.7a1.678,1.678,0,0,0,1.778,1.775,4.4,4.4,0,0,1,4.439,4.439,1.676,1.676,0,0,0,1.775,1.775H50.508a1.676,1.676,0,0,0,1.775-1.775,4.4,4.4,0,0,1,4.439-4.439A1.679,1.679,0,0,0,58.5,45.7v-6.04a1.679,1.679,0,0,0-1.778-1.775,4.4,4.4,0,0,1-4.439-4.439,1.677,1.677,0,0,0-1.775-1.775Z" transform="translate(-14.458 -31.668)" fill="#306177"/>
    </clipPath>
    <clipPath id="clip-path-4">
      <path id="Path_307" data-name="Path 307" d="M32.853,79.476a5.231,5.231,0,0,1,5.328-5.328H78.846a5.231,5.231,0,0,1,5.325,5.328v23.975H32.853ZM9.233,69a12.741,12.741,0,0,1,8.525-1.954,41.645,41.645,0,0,0,3.2,3.729,12.156,12.156,0,0,1-4.147.723A12.827,12.827,0,0,1,9.233,69m89.681-1.6c0-.179.176-.179.176-.355A12.979,12.979,0,0,1,107.615,69a12.624,12.624,0,0,1-11.721,1.775h0A27.318,27.318,0,0,0,98.913,67.4M27.7,71.485a19.228,19.228,0,0,1-2.664-2.133,10.955,10.955,0,0,1,.176-10.474,12.813,12.813,0,0,1,3.374,6.748,11.8,11.8,0,0,1-.71,6.035Zm60.73-5.859a12.251,12.251,0,0,1,3.376-6.748,12.043,12.043,0,0,1,.355,10.474A19.586,19.586,0,0,1,89.5,71.485l-.176.176a9.085,9.085,0,0,1-.889-6.035M4.084,45.556a9.594,9.594,0,0,1,7.637,6.75,9.128,9.128,0,0,1-7.637-6.75m104.062,2.133a10.792,10.792,0,0,1,4.8-2.133,9.593,9.593,0,0,1-7.637,6.75,9.656,9.656,0,0,1,2.84-4.618M20.6,43.071a9.324,9.324,0,0,1-5.328,8.7,9.335,9.335,0,0,1,5.328-8.7m75.651,0a9.153,9.153,0,0,1,5.325,8.7,9.438,9.438,0,0,1-5.325-8.7m-81.155-7.1a9.983,9.983,0,0,1,7.282-6.75,9.589,9.589,0,0,1-7.282,7.1ZM96.96,33.838A9.333,9.333,0,0,1,94.3,29.22a9.428,9.428,0,0,1,7.279,6.75v.353a10.709,10.709,0,0,1-4.615-2.485M5.683,27.445a9.323,9.323,0,0,1,5.683,8.525c-1.6-.713-5.507-4.975-5.683-8.525M106.9,30.819a9.318,9.318,0,0,1,4.086-3.374,9.252,9.252,0,0,1-1.6,5.152,9.36,9.36,0,0,1-4.084,3.374,10.937,10.937,0,0,1,1.6-5.152M55.405,1.34a1.614,1.614,0,0,0-1.241.531L37.826,17.321a1.928,1.928,0,0,0-.534,1.246v8.168a1.677,1.677,0,0,0,1.775,1.775H50.432V58.52H41.91A1.679,1.679,0,0,0,40.134,60.3V70.775H38.181a8.777,8.777,0,0,0-6.748,3.2c-.179-.179-.355-.179-.534-.358A15.608,15.608,0,0,0,25.75,54.97a1.914,1.914,0,0,0-2.488.355,14.772,14.772,0,0,0-3.016,9.235v-.179a30.378,30.378,0,0,1-4.263-9.057A12.19,12.19,0,0,0,22.2,50a13.487,13.487,0,0,0,1.6-9.769,1.686,1.686,0,0,0-2.13-1.244,13.546,13.546,0,0,0-7.105,4.441,24.834,24.834,0,0,1,.179-3.553A12.889,12.889,0,0,0,26.105,27.269a1.681,1.681,0,0,0-1.778-1.778h-.176a13.287,13.287,0,0,0-10.477,5.328c-.358-.71-.71-1.241-1.065-1.954a13.5,13.5,0,0,0-8.347-5.5,1.947,1.947,0,0,0-2.133,1.42,12.681,12.681,0,0,0,1.954,9.767A12.881,12.881,0,0,0,10.832,39.7c-.176,1.954-.176,3.731-.176,5.507a12.824,12.824,0,0,0-9.235-3.2A1.755,1.755,0,0,0,0,43.783,13.06,13.06,0,0,0,12.431,56.035a34.421,34.421,0,0,0,3.019,7.458A15.755,15.755,0,0,0,5.328,67.756a1.716,1.716,0,0,0,0,2.485,15.722,15.722,0,0,0,11.363,4.8,15.218,15.218,0,0,0,7.282-1.775,29.852,29.852,0,0,0,5.859,3.55,14.261,14.261,0,0,0-.531,2.664v23.975H6.217V107H99.979v-3.55H87.548V79.476a13.812,13.812,0,0,0-.355-2.664,51.954,51.954,0,0,0,5.862-3.55,15.222,15.222,0,0,0,7.279,1.775,15.437,15.437,0,0,0,11.366-4.8,1.716,1.716,0,0,0,0-2.485,15.384,15.384,0,0,0-10.124-4.263,34.169,34.169,0,0,0,3.019-7.458,13.2,13.2,0,0,0,12.433-12.252,1.931,1.931,0,0,0-1.6-1.954,12.551,12.551,0,0,0-9.233,3.2c0-1.775,0-3.55-.179-5.5a12.249,12.249,0,0,0,6.748-5.152,12.681,12.681,0,0,0,1.954-9.767,1.842,1.842,0,0,0-2.13-1.42,13.489,13.489,0,0,0-8.347,5.507,18.514,18.514,0,0,0-1.065,1.954A13.027,13.027,0,0,0,92.7,25.315h-.176a1.82,1.82,0,0,0-1.778,1.775,12.208,12.208,0,0,0,3.908,9.057,13.307,13.307,0,0,0,7.458,3.55,23.658,23.658,0,0,1,.179,3.553,12.885,12.885,0,0,0-7.1-4.439,1.823,1.823,0,0,0-2.13,1.241,12.531,12.531,0,0,0,1.6,9.767,12.932,12.932,0,0,0,6.217,5.328A26.647,26.647,0,0,1,96.6,64.206a15.535,15.535,0,0,0-3.019-9.235,1.907,1.907,0,0,0-2.485-.355,16.113,16.113,0,0,0-6.217,10.3,16.754,16.754,0,0,0,1.065,8.347c-.176.179-.355.179-.531.355A8.994,8.994,0,0,0,79.556,70.6V60.119a1.677,1.677,0,0,0-1.775-1.775H69.435V38.1h-3.55V60.119a1.674,1.674,0,0,0,1.773,1.775h8.349v8.7H43.685v-8.7H52.21a1.676,1.676,0,0,0,1.775-1.775V26.556a1.677,1.677,0,0,0-1.775-1.775H40.844V19.275L56.118,4.893h9.767V17.678h3.55V3.115A1.678,1.678,0,0,0,67.657,1.34Z" transform="translate(0 -1.34)" fill="#306177"/>
    </clipPath>
    <clipPath id="clip-path-5">
      <rect id="Rectangle_1214" data-name="Rectangle 1214" width="3.55" height="6.217" fill="#306177"/>
    </clipPath>
    <clipPath id="clip-path-7">
      <rect id="Rectangle_1218" data-name="Rectangle 1218" width="6.217" height="3.55" fill="#306177"/>
    </clipPath>
    <clipPath id="clip-path-9">
      <rect id="Rectangle_1222" data-name="Rectangle 1222" width="3.553" height="6.217" fill="#306177"/>
    </clipPath>
    <clipPath id="clip-path-11">
      <rect id="Rectangle_1226" data-name="Rectangle 1226" width="6.217" height="3.553" fill="#306177"/>
    </clipPath>
  </defs>
  <g id="Group_413" data-name="Group 413" transform="translate(0 0.001)">
    <g id="Group_390" data-name="Group 390" transform="translate(65.882 25.928)">
      <g id="Group_389" data-name="Group 389" clip-path="url(#clip-path)">
        <rect id="Rectangle_1207" data-name="Rectangle 1207" width="3.553" height="8.168" fill="#306177"/>
      </g>
    </g>
    <g id="Group_392" data-name="Group 392" transform="translate(105.306 105.486)">
      <g id="Group_391" data-name="Group 391" clip-path="url(#clip-path-2)">
        <rect id="Rectangle_1209" data-name="Rectangle 1209" width="5.152" height="3.55" fill="#306177"/>
      </g>
    </g>
    <g id="Group_394" data-name="Group 394" transform="translate(36.403 79.737)">
      <g id="Group_393" data-name="Group 393" clip-path="url(#clip-path-3)">
        <rect id="Rectangle_1211" data-name="Rectangle 1211" width="44.042" height="22.019" transform="translate(0 0)" fill="#306177"/>
      </g>
    </g>
    <g id="Group_396" data-name="Group 396" transform="translate(0 3.376)">
      <g id="Group_395" data-name="Group 395" clip-path="url(#clip-path-4)">
        <rect id="Rectangle_1212" data-name="Rectangle 1212" width="117.027" height="105.661" transform="translate(0 0)" fill="#306177"/>
      </g>
    </g>
    <g id="Group_398" data-name="Group 398" transform="translate(17.048 11.367)">
      <g id="Group_397" data-name="Group 397" clip-path="url(#clip-path-5)">
        <rect id="Rectangle_1213" data-name="Rectangle 1213" width="3.55" height="6.217" fill="#306177"/>
      </g>
    </g>
    <g id="Group_400" data-name="Group 400" transform="translate(17.048 -0.001)">
      <g id="Group_399" data-name="Group 399" clip-path="url(#clip-path-5)">
        <rect id="Rectangle_1215" data-name="Rectangle 1215" width="3.55" height="6.217" fill="#306177"/>
      </g>
    </g>
    <g id="Group_402" data-name="Group 402" transform="translate(21.311 7.104)">
      <g id="Group_401" data-name="Group 401" clip-path="url(#clip-path-7)">
        <rect id="Rectangle_1217" data-name="Rectangle 1217" width="6.217" height="3.55" fill="#306177"/>
      </g>
    </g>
    <g id="Group_404" data-name="Group 404" transform="translate(9.943 7.104)">
      <g id="Group_403" data-name="Group 403" clip-path="url(#clip-path-7)">
        <rect id="Rectangle_1219" data-name="Rectangle 1219" width="6.217" height="3.55" transform="translate(0)" fill="#306177"/>
      </g>
    </g>
    <g id="Group_406" data-name="Group 406" transform="translate(94.827 14.386)">
      <g id="Group_405" data-name="Group 405" clip-path="url(#clip-path-9)">
        <rect id="Rectangle_1221" data-name="Rectangle 1221" width="3.553" height="6.217" fill="#306177"/>
      </g>
    </g>
    <g id="Group_408" data-name="Group 408" transform="translate(94.827 3.197)">
      <g id="Group_407" data-name="Group 407" clip-path="url(#clip-path-9)">
        <rect id="Rectangle_1223" data-name="Rectangle 1223" width="3.553" height="6.217" fill="#306177"/>
      </g>
    </g>
    <g id="Group_410" data-name="Group 410" transform="translate(99.09 10.123)">
      <g id="Group_409" data-name="Group 409" clip-path="url(#clip-path-11)">
        <rect id="Rectangle_1225" data-name="Rectangle 1225" width="6.217" height="3.553" transform="translate(0 0)" fill="#306177"/>
      </g>
    </g>
    <g id="Group_412" data-name="Group 412" transform="translate(87.903 10.123)">
      <g id="Group_411" data-name="Group 411" clip-path="url(#clip-path-11)">
        <rect id="Rectangle_1227" data-name="Rectangle 1227" width="6.217" height="3.553" transform="translate(0 0)" fill="#306177"/>
      </g>
    </g>
  </g>
</svg>
