<svg xmlns="http://www.w3.org/2000/svg" width="75.06" height="75.06" viewBox="0 0 75.06 75.06">
  <g id="Layer_32" transform="translate(0)">
    <g id="Group_12593" data-name="Group 12593" transform="translate(0 0)">
      <g id="Group_12525" data-name="Group 12525" transform="translate(0.733 28.734)">
        <path id="Path_19929" data-name="Path 19929" d="M74.287,98H4.307A1.807,1.807,0,0,0,2.5,99.807v13.978a1.807,1.807,0,0,0,1.807,1.807h69.98a1.807,1.807,0,0,0,1.807-1.807V99.807A1.807,1.807,0,0,0,74.287,98Z" transform="translate(-2.5 -98)" fill="#fcdd86"/>
      </g>
      <g id="Group_12526" data-name="Group 12526" transform="translate(9.822 0.733)">
        <path id="Path_19930" data-name="Path 19930" d="M88.915,30.5v-.293a27.708,27.708,0,1,0-55.415,0V30.5Z" transform="translate(-33.5 -2.5)" fill="#fff2d9"/>
      </g>
      <g id="Group_12527" data-name="Group 12527" transform="translate(9.822 46.326)">
        <path id="Path_19931" data-name="Path 19931" d="M33.5,158v.293a27.708,27.708,0,1,0,55.415,0V158Z" transform="translate(-33.5 -158)" fill="#306177"/>
      </g>
      <g id="Group_12528" data-name="Group 12528" transform="translate(14.22 5.131)">
        <path id="Path_19932" data-name="Path 19932" d="M95.119,41.1V40.81a23.31,23.31,0,1,0-46.619,0V41.1Z" transform="translate(-48.5 -17.5)" fill="#edf4fc"/>
      </g>
      <g id="Group_12529" data-name="Group 12529" transform="translate(39.491 21.032)">
        <path id="Path_19933" data-name="Path 19933" d="M148.88,72c-1.084-.272-4.777-.931-7.466,1.849a3.433,3.433,0,0,1-1.866,1.007,6.066,6.066,0,0,0-4.569,4.01,4.376,4.376,0,0,1-.29.567h14.579a14.745,14.745,0,0,0,0-7.044.533.533,0,0,0-.388-.39Z" transform="translate(-134.689 -71.732)" fill="#57af12"/>
      </g>
      <g id="Group_12530" data-name="Group 12530" transform="translate(20.563 21.032)">
        <path id="Path_19934" data-name="Path 19934" d="M80.279,74.856a3.433,3.433,0,0,1-1.866-1.007c-2.689-2.78-6.382-2.122-7.466-1.849a.533.533,0,0,0-.388.39,14.749,14.749,0,0,0,0,7.044H85.138a4.45,4.45,0,0,1-.29-.567,6.065,6.065,0,0,0-4.569-4.01Z" transform="translate(-70.133 -71.732)" fill="#57af12"/>
      </g>
      <g id="Group_12532" data-name="Group 12532" transform="translate(28.808 7.963)">
        <g id="Group_12531" data-name="Group 12531">
          <path id="Path_19935" data-name="Path 19935" d="M100.768,32.039a2.454,2.454,0,0,0,1.333.72,4.335,4.335,0,0,1,3.265,2.866,3.24,3.24,0,0,0,.881,1.211,9.742,9.742,0,0,1,.728.7h0a9.747,9.747,0,0,1,.729-.7,3.239,3.239,0,0,0,.881-1.211,4.336,4.336,0,0,1,3.265-2.866,2.452,2.452,0,0,0,1.333-.72,4.8,4.8,0,0,1,2.057-1.263c-2.053-3.153-4.16-2.285-6.977-3.309-3.045-1.107-3.322,1.107-6.367,1.107a4.327,4.327,0,0,0-3.642,2.083A4.838,4.838,0,0,1,100.768,32.039Z" transform="translate(-98.254 -27.157)" fill="#d9f993"/>
        </g>
      </g>
      <g id="Group_12533" data-name="Group 12533" transform="translate(35.53 15.904)">
        <path id="Path_19936" data-name="Path 19936" d="M125.431,66.506A6.065,6.065,0,0,1,130,62.5a3.433,3.433,0,0,0,1.866-1.007,7.319,7.319,0,0,1,6.01-2.086,12.855,12.855,0,0,0-.279-4.585.465.465,0,0,0-.339-.34,6.8,6.8,0,0,0-6.508,1.612,2.994,2.994,0,0,1-1.626.878,5.287,5.287,0,0,0-3.982,3.5,3.953,3.953,0,0,1-1.074,1.477c-1.073.924-2.895,2.826-2.888,5.074.012.021.026.04.038.06h3.923a4.375,4.375,0,0,0,.29-.567Z" transform="translate(-121.18 -54.244)" fill="#87d147"/>
      </g>
      <g id="Group_12534" data-name="Group 12534" transform="translate(22.744 15.904)">
        <path id="Path_19937" data-name="Path 19937" d="M83.67,61.488A3.433,3.433,0,0,0,85.536,62.5a6.066,6.066,0,0,1,4.569,4.01,4.417,4.417,0,0,0,.251.506,6.461,6.461,0,0,1,2-4.223,11.85,11.85,0,0,0-.888-.85,3.95,3.95,0,0,1-1.074-1.477,5.288,5.288,0,0,0-3.982-3.5,2.994,2.994,0,0,1-1.626-.878,6.8,6.8,0,0,0-6.508-1.612.465.465,0,0,0-.338.34,12.856,12.856,0,0,0-.279,4.585,7.32,7.32,0,0,1,6.009,2.086Z" transform="translate(-77.57 -54.243)" fill="#87d147"/>
      </g>
      <g id="Group_12536" data-name="Group 12536" transform="translate(35.89 11.332)">
        <g id="Group_12535" data-name="Group 12535">
          <path id="Path_19938" data-name="Path 19938" d="M123.158,50.917a11.794,11.794,0,0,1,.888.85,11.852,11.852,0,0,1,.888-.85,3.95,3.95,0,0,0,1.074-1.477,5.287,5.287,0,0,1,3.982-3.5,2.994,2.994,0,0,0,1.626-.878,6.164,6.164,0,0,1,4.434-1.844,10.542,10.542,0,0,0-.184-4.1.381.381,0,0,0-.278-.279,5.574,5.574,0,0,0-5.336,1.321,2.454,2.454,0,0,1-1.333.72,4.335,4.335,0,0,0-3.265,2.866,3.24,3.24,0,0,1-.881,1.211c-1.077.928-3.075,3.057-2.115,5.435A4,4,0,0,0,123.158,50.917Z" transform="translate(-122.406 -38.647)" fill="#b2e26d"/>
        </g>
      </g>
      <g id="Group_12538" data-name="Group 12538" transform="translate(25.405 11.332)">
        <g id="Group_12537" data-name="Group 12537">
          <path id="Path_19939" data-name="Path 19939" d="M91.2,45.066a2.994,2.994,0,0,0,1.626.878,5.287,5.287,0,0,1,3.982,3.5,3.9,3.9,0,0,0,.576.954h0c-.689-1.709.119-3.39,1.387-4.738a9.744,9.744,0,0,0-.728-.7,3.239,3.239,0,0,1-.881-1.211A4.336,4.336,0,0,0,93.9,40.882a2.452,2.452,0,0,1-1.333-.72,5.574,5.574,0,0,0-5.336-1.321.382.382,0,0,0-.278.279,10.542,10.542,0,0,0-.184,4.1A6.163,6.163,0,0,1,91.2,45.066Z" transform="translate(-86.646 -38.648)" fill="#b2e26d"/>
        </g>
      </g>
      <g id="Group_12539" data-name="Group 12539" transform="translate(14.22 46.326)">
        <path id="Path_19940" data-name="Path 19940" d="M48.5,158v.293a23.31,23.31,0,1,0,46.619,0V158Z" transform="translate(-48.5 -158)" fill="#edf4fc"/>
      </g>
      <g id="Group_12540" data-name="Group 12540" transform="translate(57.09 31.91)">
        <path id="Path_19941" data-name="Path 19941" d="M198.829,120.073h-1.5a2.615,2.615,0,0,1-2.612-2.612v-6.014a2.615,2.615,0,0,1,2.612-2.612h1.5a2.615,2.615,0,0,1,2.612,2.612.733.733,0,1,1-1.466,0,1.148,1.148,0,0,0-1.146-1.146h-1.5a1.148,1.148,0,0,0-1.146,1.146v6.014a1.148,1.148,0,0,0,1.146,1.146h1.5a1.148,1.148,0,0,0,1.146-1.146.733.733,0,1,1,1.466,0A2.616,2.616,0,0,1,198.829,120.073Z" transform="translate(-194.713 -108.834)"/>
      </g>
      <g id="Group_12541" data-name="Group 12541" transform="translate(35.726 31.911)">
        <path id="Path_19942" data-name="Path 19942" d="M122.581,120.074a.733.733,0,0,1-.708-.924l2.631-9.772a.733.733,0,0,1,1.416,0l2.631,9.772a.733.733,0,1,1-1.416.381l-1.923-7.144-1.923,7.144A.734.734,0,0,1,122.581,120.074Z" transform="translate(-121.847 -108.836)"/>
      </g>
      <g id="Group_12542" data-name="Group 12542" transform="translate(36.854 37.925)">
        <path id="Path_19943" data-name="Path 19943" d="M129.433,130.812h-3.007a.733.733,0,1,1,0-1.466h3.007a.733.733,0,0,1,0,1.466Z" transform="translate(-125.693 -129.346)"/>
      </g>
      <g id="Group_12543" data-name="Group 12543" transform="translate(27.742 31.91)">
        <path id="Path_19944" data-name="Path 19944" d="M98.734,120.073h-1.5a2.615,2.615,0,0,1-2.612-2.612v-6.014a2.615,2.615,0,0,1,2.612-2.612h1.5a2.615,2.615,0,0,1,2.612,2.612.733.733,0,1,1-1.466,0,1.148,1.148,0,0,0-1.146-1.146h-1.5a1.148,1.148,0,0,0-1.146,1.146v6.014a1.148,1.148,0,0,0,1.146,1.146h1.5a1.148,1.148,0,0,0,1.146-1.146v-1.146H98.734a.733.733,0,0,1,0-1.466h1.879a.733.733,0,0,1,.733.733v1.879A2.615,2.615,0,0,1,98.734,120.073Z" transform="translate(-94.618 -108.834)"/>
      </g>
      <g id="Group_12544" data-name="Group 12544" transform="translate(52.933 31.911)">
        <path id="Path_19945" data-name="Path 19945" d="M181.267,120.073a.733.733,0,0,1-.733-.733v-9.772a.733.733,0,1,1,1.466,0v9.772A.733.733,0,0,1,181.267,120.073Z" transform="translate(-180.534 -108.835)"/>
      </g>
      <g id="Group_12545" data-name="Group 12545" transform="translate(51.806 31.911)">
        <path id="Path_19946" data-name="Path 19946" d="M179.676,110.3h-2.255a.733.733,0,0,1,0-1.466h2.255a.733.733,0,1,1,0,1.466Z" transform="translate(-176.688 -108.835)"/>
      </g>
      <g id="Group_12546" data-name="Group 12546" transform="translate(51.806 41.683)">
        <path id="Path_19947" data-name="Path 19947" d="M179.676,143.631h-2.255a.733.733,0,0,1,0-1.466h2.255a.733.733,0,1,1,0,1.466Z" transform="translate(-176.688 -142.165)"/>
      </g>
      <g id="Group_12547" data-name="Group 12547" transform="translate(43.536 31.911)">
        <path id="Path_19948" data-name="Path 19948" d="M154.48,120.073a.733.733,0,0,1-.645-.386l-3.884-7.213v6.865a.733.733,0,0,1-1.466,0v-9.772a.733.733,0,0,1,1.379-.347l3.884,7.213v-6.865a.733.733,0,0,1,1.466,0v9.772a.733.733,0,0,1-.554.711A.725.725,0,0,1,154.48,120.073Z" transform="translate(-148.485 -108.835)"/>
      </g>
      <g id="Group_12548" data-name="Group 12548" transform="translate(11.241 31.91)">
        <path id="Path_19949" data-name="Path 19949" d="M42.456,120.073h-1.5a2.615,2.615,0,0,1-2.612-2.612v-6.014a2.615,2.615,0,0,1,2.612-2.612h1.5a2.615,2.615,0,0,1,2.612,2.612v6.014A2.615,2.615,0,0,1,42.456,120.073Zm-1.5-9.772a1.148,1.148,0,0,0-1.146,1.146v6.014a1.148,1.148,0,0,0,1.146,1.146h1.5a1.148,1.148,0,0,0,1.146-1.146v-6.014a1.148,1.148,0,0,0-1.146-1.146Z" transform="translate(-38.34 -108.834)"/>
      </g>
      <g id="Group_12549" data-name="Group 12549" transform="translate(19.638 31.911)">
        <path id="Path_19950" data-name="Path 19950" d="M67.712,120.073a.733.733,0,0,1-.733-.733v-9.772a.733.733,0,0,1,.733-.733h3.383a2.612,2.612,0,0,1,0,5.225h-2.65v5.281a.733.733,0,0,1-.733.733Zm.733-7.48h2.65a1.146,1.146,0,0,0,0-2.293h-2.65Z" transform="translate(-66.979 -108.835)"/>
      </g>
      <g id="Group_12550" data-name="Group 12550" transform="translate(22.269 35.669)">
        <path id="Path_19951" data-name="Path 19951" d="M79.317,129.134a.733.733,0,0,1-.672-.439l-2.631-6.014a.733.733,0,1,1,1.343-.587l2.631,6.014a.733.733,0,0,1-.671,1.027Z" transform="translate(-75.952 -121.653)"/>
      </g>
      <g id="Group_12551" data-name="Group 12551" transform="translate(0 28.001)">
        <path id="Path_19952" data-name="Path 19952" d="M72.52,114.558H2.54A2.543,2.543,0,0,1,0,112.018V98.04A2.543,2.543,0,0,1,2.54,95.5H72.52a2.543,2.543,0,0,1,2.54,2.54v13.978A2.543,2.543,0,0,1,72.52,114.558ZM2.54,96.966A1.075,1.075,0,0,0,1.466,98.04v13.978a1.075,1.075,0,0,0,1.074,1.074H72.52a1.075,1.075,0,0,0,1.074-1.074V98.04a1.075,1.075,0,0,0-1.074-1.074Z" transform="translate(0 -95.5)"/>
      </g>
      <g id="Group_12552" data-name="Group 12552" transform="translate(22.739 49.561)">
        <path id="Path_19953" data-name="Path 19953" d="M80.254,180.735a.733.733,0,0,1-.733-.733v-8.467l-.717.717a.733.733,0,0,1-1.036-1.036l1.969-1.969a.733.733,0,0,1,1.251.518V180A.733.733,0,0,1,80.254,180.735Z" transform="translate(-77.552 -169.032)"/>
      </g>
      <g id="Group_12554" data-name="Group 12554" transform="translate(27.54 49.561)">
        <g id="Group_12553" data-name="Group 12553">
          <path id="Path_19954" data-name="Path 19954" d="M98.2,180.735H96.63a2.7,2.7,0,0,1-2.7-2.7v-6.3a2.7,2.7,0,0,1,2.7-2.7H98.2a2.7,2.7,0,0,1,2.7,2.7v6.3A2.7,2.7,0,0,1,98.2,180.735ZM96.63,170.5a1.237,1.237,0,0,0-1.236,1.236v6.3a1.237,1.237,0,0,0,1.236,1.236H98.2a1.237,1.237,0,0,0,1.236-1.236v-6.3A1.237,1.237,0,0,0,98.2,170.5Z" transform="translate(-93.928 -169.032)"/>
        </g>
      </g>
      <g id="Group_12556" data-name="Group 12556" transform="translate(35.724 49.561)">
        <g id="Group_12555" data-name="Group 12555">
          <path id="Path_19955" data-name="Path 19955" d="M126.119,180.735h-1.575a2.7,2.7,0,0,1-2.7-2.7v-6.3a2.7,2.7,0,0,1,2.7-2.7h1.575a2.7,2.7,0,0,1,2.7,2.7v6.3A2.7,2.7,0,0,1,126.119,180.735ZM124.544,170.5a1.237,1.237,0,0,0-1.236,1.236v6.3a1.237,1.237,0,0,0,1.236,1.236h1.575a1.237,1.237,0,0,0,1.236-1.236v-6.3a1.237,1.237,0,0,0-1.236-1.236Z" transform="translate(-121.842 -169.032)"/>
        </g>
      </g>
      <g id="Group_12557" data-name="Group 12557" transform="translate(44.798 49.199)">
        <path id="Path_19956" data-name="Path 19956" d="M153.519,179.5a.733.733,0,0,1-.645-1.08l5.512-10.237a.733.733,0,0,1,1.291.695l-5.512,10.237A.733.733,0,0,1,153.519,179.5Z" transform="translate(-152.786 -167.8)"/>
      </g>
      <g id="Group_12558" data-name="Group 12558" transform="translate(43.959 49.2)">
        <path id="Path_19957" data-name="Path 19957" d="M152.282,173.6a2.36,2.36,0,0,1-2.357-2.357v-1.083a2.357,2.357,0,0,1,4.715,0v1.083A2.36,2.36,0,0,1,152.282,173.6Zm0-4.331a.892.892,0,0,0-.891.891v1.083a.891.891,0,0,0,1.783,0v-1.083A.892.892,0,0,0,152.282,169.266Z" transform="translate(-149.925 -167.8)"/>
      </g>
      <g id="Group_12559" data-name="Group 12559" transform="translate(47.9 55.106)">
        <path id="Path_19958" data-name="Path 19958" d="M165.726,193.74a2.36,2.36,0,0,1-2.357-2.357V190.3a2.357,2.357,0,1,1,4.714,0v1.083A2.36,2.36,0,0,1,165.726,193.74Zm0-4.331a.892.892,0,0,0-.891.891v1.083a.891.891,0,0,0,1.782,0V190.3A.892.892,0,0,0,165.726,189.409Z" transform="translate(-163.369 -187.943)"/>
      </g>
      <g id="Group_12560" data-name="Group 12560" transform="translate(9.089 0)">
        <path id="Path_19959" data-name="Path 19959" d="M87.148,29.174a.733.733,0,0,1-.733-.733,26.975,26.975,0,0,0-53.949,0,.733.733,0,1,1-1.466,0,28.441,28.441,0,1,1,56.881,0A.733.733,0,0,1,87.148,29.174Z" transform="translate(-31)" fill="#306177"/>
      </g>
      <g id="Group_12561" data-name="Group 12561" transform="translate(9.089 45.886)">
        <path id="Path_19960" data-name="Path 19960" d="M59.441,185.674A28.473,28.473,0,0,1,31,157.233a.733.733,0,0,1,1.466,0,26.975,26.975,0,0,0,53.949,0,.733.733,0,0,1,1.466,0A28.473,28.473,0,0,1,59.441,185.674Z" transform="translate(-31 -156.5)"/>
      </g>
      <g id="Group_12562" data-name="Group 12562" transform="translate(38.871 20.301)">
        <path id="Path_19961" data-name="Path 19961" d="M133.307,78.206a.733.733,0,0,1-.644-1.083,3.2,3.2,0,0,0,.145-.3,6.8,6.8,0,0,1,5.118-4.451,2.691,2.691,0,0,0,1.467-.8c2.962-3.063,7-2.344,8.171-2.051a1.264,1.264,0,0,1,.922.927,15.4,15.4,0,0,1,.057,7.149.733.733,0,1,1-1.429-.327,13.939,13.939,0,0,0-.024-6.355,7.039,7.039,0,0,0-6.644,1.676,4.146,4.146,0,0,1-2.265,1.22,5.332,5.332,0,0,0-4.02,3.569,4.644,4.644,0,0,1-.21.438A.733.733,0,0,1,133.307,78.206Z" transform="translate(-132.574 -69.237)"/>
      </g>
      <g id="Group_12563" data-name="Group 12563" transform="translate(19.828 20.301)">
        <path id="Path_19962" data-name="Path 19962" d="M83.254,78.206a.733.733,0,0,1-.645-.384,4.525,4.525,0,0,1-.21-.437,5.332,5.332,0,0,0-4.019-3.569,4.149,4.149,0,0,1-2.265-1.22,7.037,7.037,0,0,0-6.644-1.676,13.941,13.941,0,0,0-.037,6.3.733.733,0,0,1-1.431.32,15.4,15.4,0,0,1,.072-7.086A1.262,1.262,0,0,1,69,69.527c1.168-.293,5.21-1.012,8.172,2.051a2.691,2.691,0,0,0,1.467.8,6.8,6.8,0,0,1,5.118,4.451,3.213,3.213,0,0,0,.144.3.733.733,0,0,1-.644,1.083Z" transform="translate(-67.625 -69.239)"/>
      </g>
      <g id="Group_12565" data-name="Group 12565" transform="translate(28.195 7.228)">
        <g id="Group_12564" data-name="Group 12564">
          <path id="Path_19963" data-name="Path 19963" d="M113.645,29.563a.732.732,0,0,1-.605-.319c-1.214-1.772-2.374-1.972-3.979-2.248a14.029,14.029,0,0,1-2.526-.611,2.948,2.948,0,0,0-2.923.269,6.316,6.316,0,0,1-3.194.883,3.562,3.562,0,0,0-2.928,1.6.733.733,0,0,1-1.192-.854,4.975,4.975,0,0,1,4.119-2.217,4.863,4.863,0,0,0,2.515-.716,4.341,4.341,0,0,1,4.1-.347,12.653,12.653,0,0,0,2.273.544,6.3,6.3,0,0,1,4.94,2.864.732.732,0,0,1-.6,1.146Z" transform="translate(-96.161 -24.652)"/>
        </g>
      </g>
      <g id="Group_12566" data-name="Group 12566" transform="translate(34.803 15.174)">
        <path id="Path_19964" data-name="Path 19964" d="M119.433,65.751h-.039a.733.733,0,0,1-.693-.771c.128-2.421,2.02-4.4,3.136-5.357a3.224,3.224,0,0,0,.875-1.2,6.021,6.021,0,0,1,4.532-3.937,2.252,2.252,0,0,0,1.227-.666A7.537,7.537,0,0,1,135.684,52a1.2,1.2,0,0,1,.872.877,13.582,13.582,0,0,1,.318,4.636.733.733,0,0,1-1.458-.151,12.12,12.12,0,0,0-.246-3.978,6.02,6.02,0,0,0-5.645,1.448,3.708,3.708,0,0,1-2.025,1.09,4.558,4.558,0,0,0-3.433,3.054,4.7,4.7,0,0,1-1.273,1.752c-.939.809-2.529,2.446-2.629,4.324a.733.733,0,0,1-.732.694Z" transform="translate(-118.699 -51.751)"/>
      </g>
      <g id="Group_12567" data-name="Group 12567" transform="translate(22.01 15.173)">
        <path id="Path_19965" data-name="Path 19965" d="M90.438,61.6a.731.731,0,0,1-.524-.22c-.22-.226-.454-.444-.692-.65a4.7,4.7,0,0,1-1.273-1.752,4.557,4.557,0,0,0-3.433-3.054,3.71,3.71,0,0,1-2.025-1.091,6.019,6.019,0,0,0-5.645-1.448,12.113,12.113,0,0,0-.252,3.923.733.733,0,1,1-1.459.144,13.58,13.58,0,0,1,.325-4.575A1.194,1.194,0,0,1,76.332,52a7.536,7.536,0,0,1,7.213,1.813,2.252,2.252,0,0,0,1.227.666A6.021,6.021,0,0,1,89.3,58.419a3.231,3.231,0,0,0,.876,1.2c.27.233.534.481.784.736a.733.733,0,0,1-.525,1.245Z" transform="translate(-75.069 -51.749)"/>
      </g>
      <g id="Group_12569" data-name="Group 12569" transform="translate(35.162 10.6)">
        <g id="Group_12568" data-name="Group 12568">
          <path id="Path_19966" data-name="Path 19966" d="M120.83,49.162a.734.734,0,0,1-.695-.5c-.655-1.946.221-4.141,2.405-6.023a2.519,2.519,0,0,0,.682-.936,5.064,5.064,0,0,1,3.814-3.307,1.717,1.717,0,0,0,.934-.508,6.312,6.312,0,0,1,6.041-1.523,1.112,1.112,0,0,1,.811.815,11.257,11.257,0,0,1,.233,4.132.733.733,0,0,1-1.454-.188,9.786,9.786,0,0,0-.153-3.385,4.774,4.774,0,0,0-4.423,1.168,3.17,3.17,0,0,1-1.733.932,3.611,3.611,0,0,0-2.716,2.425,3.987,3.987,0,0,1-1.08,1.486c-1,.866-2.6,2.594-1.973,4.445a.733.733,0,0,1-.695.967Z" transform="translate(-119.923 -36.153)"/>
        </g>
      </g>
      <g id="Group_12571" data-name="Group 12571" transform="translate(24.672 10.601)">
        <g id="Group_12570" data-name="Group 12570">
          <path id="Path_19967" data-name="Path 19967" d="M96.855,44.47a.73.73,0,0,1-.522-.218c-.172-.174-.352-.342-.535-.5a3.991,3.991,0,0,1-1.08-1.486A3.612,3.612,0,0,0,92,39.84a3.172,3.172,0,0,1-1.732-.932,4.774,4.774,0,0,0-4.424-1.168,9.791,9.791,0,0,0-.157,3.355.733.733,0,1,1-1.454.183,11.265,11.265,0,0,1,.237-4.1,1.111,1.111,0,0,1,.81-.815,6.313,6.313,0,0,1,6.042,1.523,1.714,1.714,0,0,0,.934.508A5.065,5.065,0,0,1,96.072,41.7a2.517,2.517,0,0,0,.682.936c.214.184.423.38.622.582a.733.733,0,0,1-.522,1.248Z" transform="translate(-84.146 -36.154)"/>
        </g>
      </g>
      <g id="Group_12572" data-name="Group 12572" transform="translate(23.275 24.564)">
        <path id="Path_19968" data-name="Path 19968" d="M81.339,88.62a.733.733,0,0,1-.629-.356A10.35,10.35,0,0,1,79.388,84.6a.733.733,0,0,1,1.455-.183,9.008,9.008,0,0,0,1.124,3.091.734.734,0,0,1-.628,1.111Z" transform="translate(-79.382 -83.777)"/>
      </g>
      <g id="Group_12573" data-name="Group 12573" transform="translate(47.982 24.565)">
        <path id="Path_19969" data-name="Path 19969" d="M164.382,88.568a.733.733,0,0,1-.631-1.106,9.013,9.013,0,0,0,1.094-3.041.733.733,0,0,1,1.454.183,10.354,10.354,0,0,1-1.286,3.6A.732.732,0,0,1,164.382,88.568Z" transform="translate(-163.649 -83.78)"/>
      </g>
      <g id="Group_12574" data-name="Group 12574" transform="translate(66.557 36.797)">
        <path id="Path_19970" data-name="Path 19970" d="M229.785,126.966h-2.052a.733.733,0,0,1,0-1.466h2.052a.733.733,0,0,1,0,1.466Z" transform="translate(-227 -125.5)"/>
      </g>
      <g id="Group_12575" data-name="Group 12575" transform="translate(4.984 36.797)">
        <path id="Path_19971" data-name="Path 19971" d="M19.785,126.966H17.733a.733.733,0,0,1,0-1.466h2.052a.733.733,0,1,1,0,1.466Z" transform="translate(-17 -125.5)"/>
      </g>
      <g id="Group_12576" data-name="Group 12576" transform="translate(13.487 4.398)">
        <path id="Path_19972" data-name="Path 19972" d="M93.352,39.776a.733.733,0,0,1-.733-.733,22.577,22.577,0,1,0-45.153,0,.733.733,0,0,1-1.466,0,24.043,24.043,0,0,1,48.085,0A.733.733,0,0,1,93.352,39.776Z" transform="translate(-46 -15)" fill="#306177"/>
      </g>
      <g id="Group_12577" data-name="Group 12577" transform="translate(13.487 45.886)">
        <path id="Path_19973" data-name="Path 19973" d="M70.043,181.276A24.07,24.07,0,0,1,46,157.233a.733.733,0,0,1,1.466,0,22.577,22.577,0,1,0,45.153,0,.733.733,0,0,1,1.466,0A24.07,24.07,0,0,1,70.043,181.276Z" transform="translate(-46 -156.5)"/>
      </g>
      <g id="Group_12580" data-name="Group 12580" transform="translate(65.091 12.315)">
        <g id="Group_12579" data-name="Group 12579">
          <g id="Group_12578" data-name="Group 12578">
            <path id="Path_19974" data-name="Path 19974" d="M225.775,43.821a2.283,2.283,0,0,1-1.831-1.79c0-.041-.082-.041-.082,0a2.282,2.282,0,0,1-1.831,1.79c-.041,0-.041.062,0,.082a2.283,2.283,0,0,1,1.831,1.79c0,.041.082.041.082,0a2.283,2.283,0,0,1,1.831-1.79C225.816,43.883,225.816,43.821,225.775,43.821Z" transform="translate(-222 -42.001)" fill="#70d6f9"/>
          </g>
        </g>
      </g>
      <g id="Group_12583" data-name="Group 12583" transform="translate(57.077 69.958)">
        <g id="Group_12582" data-name="Group 12582">
          <g id="Group_12581" data-name="Group 12581">
            <path id="Path_19975" data-name="Path 19975" d="M195.605,242.089h.674v.674a.945.945,0,0,0,.938.938.926.926,0,0,0,.938-.938v-.674h.674a.945.945,0,0,0,.938-.938.926.926,0,0,0-.938-.938h-.674v-.674a.945.945,0,0,0-.938-.938.926.926,0,0,0-.938.938v.674h-.674a.945.945,0,0,0-.938.938A.926.926,0,0,0,195.605,242.089Z" transform="translate(-194.667 -238.6)" fill="#fc657e"/>
          </g>
        </g>
      </g>
      <g id="Group_12586" data-name="Group 12586" transform="translate(18.433 0)">
        <g id="Group_12585" data-name="Group 12585">
          <g id="Group_12584" data-name="Group 12584">
            <circle id="Ellipse_17" data-name="Ellipse 17" cx="0.997" cy="0.997" r="0.997" fill="#87d147"/>
          </g>
        </g>
      </g>
      <g id="Group_12589" data-name="Group 12589" transform="translate(64.173 64.212)">
        <g id="Group_12588" data-name="Group 12588">
          <g id="Group_12587" data-name="Group 12587">
            <circle id="Ellipse_18" data-name="Ellipse 18" cx="0.997" cy="0.997" r="0.997" fill="#f5c84c"/>
          </g>
        </g>
      </g>
      <g id="Group_12592" data-name="Group 12592" transform="translate(7.78 4.202)">
        <g id="Group_12591" data-name="Group 12591">
          <g id="Group_12590" data-name="Group 12590">
            <path id="Path_19976" data-name="Path 19976" d="M26.578,16.926a3.254,3.254,0,0,0,2.61-2.551c0-.059.117-.059.117,0a3.254,3.254,0,0,0,2.61,2.551c.059,0,.059.088,0,.117a3.254,3.254,0,0,0-2.61,2.551c0,.059-.117.059-.117,0a3.254,3.254,0,0,0-2.61-2.551C26.519,17.014,26.519,16.926,26.578,16.926Z" transform="translate(-26.534 -14.331)" fill="#f5c84c"/>
          </g>
        </g>
      </g>
    </g>
  </g>
</svg>
