<svg id="wheat" xmlns="http://www.w3.org/2000/svg" width="88.339" height="88.339" viewBox="0 0 88.339 88.339">
  <g id="Group_12512" data-name="Group 12512" transform="translate(0 10.743)">
    <g id="Group_12499" data-name="Group 12499" transform="translate(0 65.333)">
      <path id="Path_19909" data-name="Path 19909" d="M87.4,415.3H.944A.944.944,0,0,1,0,414.352V403.977a.944.944,0,0,1,.944-.944H87.4a.944.944,0,0,1,.944.944v10.375A.944.944,0,0,1,87.4,415.3ZM1.888,413.409H86.452v-8.488H1.888Z" transform="translate(0 -403.033)" fill="#306177"/>
    </g>
    <g id="Group_12504" data-name="Group 12504" transform="translate(48.411)">
      <g id="Group_12500" data-name="Group 12500" transform="translate(0 24.168)">
        <path id="Path_19910" data-name="Path 19910" d="M257.416,219.4h-.036a.944.944,0,0,1-.908-.979c.424-11.294,1.448-22.263,5.693-32.879a.944.944,0,1,1,1.753.7c-4.163,10.413-5.144,21.174-5.56,32.249A.944.944,0,0,1,257.416,219.4Z" transform="translate(-256.471 -184.951)" fill="#306177"/>
      </g>
      <g id="Group_12501" data-name="Group 12501" transform="translate(4.028)">
        <path id="Path_19911" data-name="Path 19911" d="M278.754,115.536a.953.953,0,0,1-.862-1.326c4.047-9.137,11.062-16.871,20.942-19.571a14.548,14.548,0,0,0-1.554-.043c-4.416.113-9.135,2.182-13.649,5.985a.951.951,0,0,1-1.55-.782c.962-14.937,7.687-32.328,21.024-40.308-8.042,2.068-14.206,8.406-18.261,15.4a.944.944,0,1,1-1.632-.947C288.125,65.47,297.774,55.907,308.573,57a.949.949,0,0,1,.236,1.822c-15.558,5.868-22.663,23.6-24.615,38.905,5.427-4.016,10.1-4.97,13.176-5.023a13.31,13.31,0,0,1,6.163,1.208.95.95,0,0,1-.325,1.765c-10.613,1.423-18.55,7.915-23.59,19.3A.944.944,0,0,1,278.754,115.536Z" transform="translate(-277.813 -56.916)" fill="#306177"/>
      </g>
      <g id="Group_12502" data-name="Group 12502" transform="translate(6.95 20.028)">
        <circle id="Ellipse_15" data-name="Ellipse 15" cx="1.227" cy="1.227" r="1.227" fill="#306177"/>
      </g>
      <g id="Group_12503" data-name="Group 12503" transform="translate(5.348 61.557)">
        <circle id="Ellipse_16" data-name="Ellipse 16" cx="1.227" cy="1.227" r="1.227" transform="translate(0 0)" fill="#306177"/>
      </g>
    </g>
    <g id="Group_12505" data-name="Group 12505" transform="translate(57.056 50.406)">
      <path id="Path_19912" data-name="Path 19912" d="M309.627,336.99a.949.949,0,0,1-.652-1.627,57.488,57.488,0,0,1,12.247-9.264c-5.639.831-11.476,3.656-17.417,8.438-.92.74-2.145-.7-1.184-1.47,8.118-6.535,16.121-9.583,23.787-9.057a.948.948,0,0,1,.211,1.844c-4.825,1.474-10.323,5.133-16.341,10.874A.94.94,0,0,1,309.627,336.99Z" transform="translate(-302.271 -323.953)" fill="#306177"/>
    </g>
    <g id="Group_12511" data-name="Group 12511" transform="translate(11.326 70.52)">
      <g id="Group_12506" data-name="Group 12506" transform="translate(60.403 0)">
        <path id="Path_19913" data-name="Path 19913" d="M384.341,432.4h-3.4a.944.944,0,1,1,0-1.888h3.4a.944.944,0,0,1,0,1.888Z" transform="translate(-380 -430.516)" fill="#306177"/>
      </g>
      <g id="Group_12507" data-name="Group 12507" transform="translate(45.302 0)">
        <path id="Path_19914" data-name="Path 19914" d="M304.341,432.4h-3.4a.944.944,0,1,1,0-1.888h3.4a.944.944,0,1,1,0,1.888Z" transform="translate(-300 -430.516)" fill="#306177"/>
      </g>
      <g id="Group_12508" data-name="Group 12508" transform="translate(30.201 0)">
        <path id="Path_19915" data-name="Path 19915" d="M224.341,432.4h-3.4a.944.944,0,1,1,0-1.888h3.4a.944.944,0,1,1,0,1.888Z" transform="translate(-220 -430.516)" fill="#306177"/>
      </g>
      <g id="Group_12509" data-name="Group 12509" transform="translate(15.101 0)">
        <path id="Path_19916" data-name="Path 19916" d="M144.341,432.4h-3.4a.944.944,0,1,1,0-1.888h3.4a.944.944,0,1,1,0,1.888Z" transform="translate(-140 -430.516)" fill="#306177"/>
      </g>
      <g id="Group_12510" data-name="Group 12510" transform="translate(0 0)">
        <path id="Path_19917" data-name="Path 19917" d="M64.341,432.4h-3.4a.944.944,0,1,1,0-1.888h3.4a.944.944,0,1,1,0,1.888Z" transform="translate(-60 -430.516)" fill="#306177"/>
      </g>
    </g>
    <path id="Path_19918" data-name="Path 19918" d="M50.143,277.6q-2.488-2.492-5.2-4.744c1.735-2.842,2.22-5.494,1.433-7.886-1.293-3.932-5.542-5.6-5.722-5.668a.944.944,0,0,0-1.132.373c-1.853,2.894-2.487,5.548-1.9,7.9q-1.254-.768-2.5-1.437a9.354,9.354,0,0,0-1.241-8.384c-2.561-3.253-7.123-3.367-7.316-3.37a.94.94,0,0,0-.937.738c-.674,3.008-.493,5.5.532,7.433a32.479,32.479,0,0,0-4.277-.818c-.465-3.435-1.814-5.868-4.013-7.231-3.518-2.181-7.845-.728-8.028-.665a.944.944,0,0,0-.628,1.013c.439,3.386,1.647,5.816,3.589,7.244a19.412,19.412,0,0,0-6.864,2.739.944.944,0,1,0,1.107,1.529,16.253,16.253,0,0,1,4.365-1.959,11.172,11.172,0,0,0-2.075,6.622.944.944,0,0,0,.714.955,9.769,9.769,0,0,0,7.94-1.362c1.969-1.472,3.089-3.841,3.336-7.045a30.882,30.882,0,0,1,4.633.894c-2.229.885-4.012,2.915-5.305,6.054a.944.944,0,0,0,.344,1.142,9.755,9.755,0,0,0,7.926,1.435c2.283-.689,4.1-2.446,5.423-5.221,1.111.6,2.251,1.269,3.421,2.023-3.585.095-6.1,2.885-7.64,5.862a.944.944,0,0,0,.244,1.167,9.765,9.765,0,0,0,7.771,2.12c2.3-.479,4.235-2.026,5.779-4.6q2.544,2.125,4.889,4.474a.944.944,0,1,0,1.335-1.334ZM11.208,255.435a7.943,7.943,0,0,1,5.674.687c1.552.967,2.566,2.71,3.019,5.189a7.484,7.484,0,0,1-5.546-.435C12.746,259.931,11.689,258.1,11.208,255.435Zm5.657,13.675a7.942,7.942,0,0,1-5.592,1.179c.247-2.7,1.14-4.613,2.66-5.7a7.487,7.487,0,0,1,5.488-.916C19.184,266.186,18.326,268.012,16.865,269.11ZM28.386,271.3a7.941,7.941,0,0,1-5.658-.8c1.156-2.452,2.65-3.945,4.449-4.442a7.489,7.489,0,0,1,5.469,1.015C31.567,269.342,30.136,270.765,28.386,271.3Zm5.076-6.451a7.486,7.486,0,0,1-5.064-2.3c-1.188-1.439-1.555-3.519-1.094-6.192a7.9,7.9,0,0,1,5.089,2.579C33.526,260.368,33.885,262.356,33.462,264.846Zm4.3,12.362a7.943,7.943,0,0,1-5.566-1.294c1.365-2.342,2.984-3.7,4.82-4.038a7.485,7.485,0,0,1,5.36,1.488C41.1,275.539,39.554,276.831,37.765,277.208Zm5.795-5.714a7.334,7.334,0,0,1-3.964-3.888c-.63-1.761-.264-3.845,1.086-6.2a7.9,7.9,0,0,1,3.9,4.162C45.153,267.306,44.809,269.3,43.559,271.494Z" transform="translate(-4.498 -216.242)" fill="#306177"/>
    <path id="Path_19919" data-name="Path 19919" d="M105.546,111.042c.846-4.051-2-7.617-2.121-7.767a.944.944,0,0,0-1.167-.244c-3.055,1.582-4.932,3.565-5.6,5.9q-.7-1.295-1.454-2.5a.918.918,0,0,0,.095-.083c2.383-2.589,3.4-5.213,3.03-7.8-.591-4.1-4.485-6.475-4.65-6.574a.944.944,0,0,0-1.18.17c-2.088,2.268-3.178,4.516-3.257,6.7A32.52,32.52,0,0,0,85.95,96c1.315-3.207,1.364-5.988.141-8.267-1.956-3.648-6.43-4.552-6.62-4.589a.943.943,0,0,0-1.05.563c-1.314,3.152-1.483,5.861-.515,8.069a19.426,19.426,0,0,0-7.315-1.059.944.944,0,0,0,.194,1.878,16.25,16.25,0,0,1,4.77.487,11.147,11.147,0,0,0-5.12,4.695.944.944,0,0,0,.141,1.184,9.761,9.761,0,0,0,7.556,2.789c2.442-.291,4.6-1.782,6.414-4.434a30.855,30.855,0,0,1,3.568,3.092c-2.373-.349-4.934.515-7.626,2.588a.944.944,0,0,0-.273,1.161c.084.173,2.115,4.258,6.145,5.2a9.313,9.313,0,0,0,7.311-1.809c.662,1.073,1.314,2.223,1.95,3.461-3.144-1.706-6.731-.545-9.549,1.258a.944.944,0,0,0-.373,1.133c.069.18,1.736,4.426,5.668,5.719a9.236,9.236,0,0,0,7.305-1.09,73.957,73.957,0,0,1,2.675,9.07,1,1,0,0,0,1.129.712.944.944,0,0,0,.712-1.129,75.316,75.316,0,0,0-2.833-9.528C103.284,115.564,105.031,113.508,105.546,111.042ZM79.863,85.206a7.939,7.939,0,0,1,4.57,3.431c.86,1.613.866,3.629.019,6a7.484,7.484,0,0,1-4.586-3.148C78.946,89.869,78.946,87.757,79.863,85.206Zm-1.942,14.67A7.949,7.949,0,0,1,72.49,98.1c1.564-2.214,3.3-3.425,5.154-3.6a7.487,7.487,0,0,1,5.21,1.949C81.393,98.5,79.737,99.656,77.921,99.876Zm8.884,7.652a7.938,7.938,0,0,1-4.5-3.523c2.228-1.546,4.269-2.093,6.077-1.624a7.486,7.486,0,0,1,4.227,3.612C90.537,107.426,88.586,107.942,86.8,107.528ZM91.2,99.965c-.314-1.843.407-3.832,2.146-5.92a7.935,7.935,0,0,1,3.12,4.785c.257,1.811-.428,3.709-2.038,5.651A7.446,7.446,0,0,1,91.2,99.965Zm.771,17.37a7.938,7.938,0,0,1-4.171-3.9c3.995-2.285,8.1-1.41,10.091,2.879C95.7,117.558,93.708,117.9,91.969,117.335Zm7.878-2.052a7.445,7.445,0,0,1-1.489-5.347c.335-1.84,1.695-3.463,4.045-4.831a7.9,7.9,0,0,1,1.295,5.552C103.324,112.451,102.029,114,99.847,115.283Z" transform="translate(-56.579 -78.18)" fill="#306177"/>
  </g>
  <g id="Group_12523" data-name="Group 12523" transform="translate(36.76 0)">
    <g id="Group_12513" data-name="Group 12513" transform="translate(5.537 5.475)">
      <path id="Path_19920" data-name="Path 19920" d="M229.966,40.658a5.826,5.826,0,1,1,5.882-5.826A5.861,5.861,0,0,1,229.966,40.658Zm0-9.765a3.939,3.939,0,1,0,3.994,3.939A3.971,3.971,0,0,0,229.966,30.894Z" transform="translate(-224.084 -29.006)" fill="#306177"/>
    </g>
    <g id="Group_12522" data-name="Group 12522">
      <g id="Group_12514" data-name="Group 12514" transform="translate(10.475)">
        <path id="Path_19921" data-name="Path 19921" d="M251.187,3.184a.944.944,0,0,1-.944-.944V.944a.944.944,0,1,1,1.888,0v1.3A.944.944,0,0,1,251.187,3.184Z" transform="translate(-250.243 0)" fill="#306177"/>
      </g>
      <g id="Group_12515" data-name="Group 12515" transform="translate(3.068 3.034)">
        <path id="Path_19922" data-name="Path 19922" d="M212.873,18.877a.941.941,0,0,1-.664-.273l-.927-.917a.944.944,0,0,1,1.327-1.342l.927.917A.967.967,0,0,1,212.873,18.877Z" transform="translate(-211.002 -16.072)" fill="#306177"/>
      </g>
      <g id="Group_12516" data-name="Group 12516" transform="translate(0 10.358)">
        <path id="Path_19923" data-name="Path 19923" d="M197,56.76h-1.311a.944.944,0,0,1,0-1.888H197a.944.944,0,1,1,0,1.888Z" transform="translate(-194.748 -54.872)" fill="#306177"/>
      </g>
      <g id="Group_12517" data-name="Group 12517" transform="translate(3.092 16.765)">
        <path id="Path_19924" data-name="Path 19924" d="M212.047,91.619A.967.967,0,0,1,211.383,90l.927-.917a.944.944,0,0,1,1.327,1.342l-.927.917A.941.941,0,0,1,212.047,91.619Z" transform="translate(-211.126 -88.815)" fill="#306177"/>
      </g>
      <g id="Group_12518" data-name="Group 12518" transform="translate(10.475 19.418)">
        <path id="Path_19925" data-name="Path 19925" d="M251.187,106.058a.944.944,0,0,1-.944-.944v-1.3a.944.944,0,0,1,1.888,0v1.3A.944.944,0,0,1,251.187,106.058Z" transform="translate(-250.243 -102.874)" fill="#306177"/>
      </g>
      <g id="Group_12519" data-name="Group 12519" transform="translate(16.955 16.765)">
        <path id="Path_19926" data-name="Path 19926" d="M286.442,91.62a.941.941,0,0,1-.664-.273l-.927-.917a.944.944,0,0,1,1.327-1.342l.928.917A.967.967,0,0,1,286.442,91.62Z" transform="translate(-284.571 -88.815)" fill="#306177"/>
      </g>
      <g id="Group_12520" data-name="Group 12520" transform="translate(19.639 10.358)">
        <path id="Path_19927" data-name="Path 19927" d="M301.046,56.76h-1.311a.944.944,0,0,1,0-1.888h1.311a.944.944,0,1,1,0,1.888Z" transform="translate(-298.791 -54.872)" fill="#306177"/>
      </g>
      <g id="Group_12521" data-name="Group 12521" transform="translate(16.978 3.034)">
        <path id="Path_19928" data-name="Path 19928" d="M285.616,18.876a.967.967,0,0,1-.664-1.615l.927-.917a.944.944,0,0,1,1.327,1.342l-.927.917A.94.94,0,0,1,285.616,18.876Z" transform="translate(-284.695 -16.072)" fill="#306177"/>
      </g>
    </g>
  </g>
</svg>
