<svg xmlns="http://www.w3.org/2000/svg" width="111.342" height="108.753" viewBox="0 0 111.342 108.753">
  <g id="premium_2_" data-name="premium (2)" transform="translate(-6 -11.83)">
    <g id="Group_444" data-name="Group 444" transform="translate(7.5 13.3)">
      <g id="Group_441" data-name="Group 441" transform="translate(7.939 46.961)">
        <g id="Group_434" data-name="Group 434" transform="translate(38.651 0)">
          <path id="Path_317" data-name="Path 317" d="M221.227,240.524l2.09-11.58a.269.269,0,0,1,.518-.035l3.4,11.524a.269.269,0,0,0,.51,0l3.284-11.52a.269.269,0,0,1,.519.029l2.214,11.583" transform="translate(-221.227 -228.726)" fill="none" stroke="#306177" stroke-linecap="round" stroke-linejoin="round" stroke-miterlimit="10" stroke-width="3"/>
        </g>
        <g id="Group_435" data-name="Group 435" transform="translate(79.928 0)">
          <path id="Path_318" data-name="Path 318" d="M410.577,240.524l2.09-11.58a.269.269,0,0,1,.518-.035l3.4,11.524a.269.269,0,0,0,.51,0l3.284-11.52a.269.269,0,0,1,.519.029l2.214,11.583" transform="translate(-410.577 -228.726)" fill="none" stroke="#306177" stroke-linecap="round" stroke-linejoin="round" stroke-miterlimit="10" stroke-width="3"/>
        </g>
        <g id="Group_436" data-name="Group 436" transform="translate(58.012 0)">
          <line id="Line_30" data-name="Line 30" y2="11.891" fill="none" stroke="#306177" stroke-linecap="round" stroke-linejoin="round" stroke-miterlimit="10" stroke-width="3"/>
        </g>
        <g id="Group_437" data-name="Group 437" transform="translate(26.814 0)">
          <path id="Path_319" data-name="Path 319" d="M171.938,228.725h-5.011v11.891h5.011" transform="translate(-166.927 -228.725)" fill="none" stroke="#306177" stroke-linecap="round" stroke-linejoin="round" stroke-miterlimit="10" stroke-width="3"/>
          <line id="Line_31" data-name="Line 31" x1="4.641" transform="translate(0 5.945)" fill="none" stroke="#306177" stroke-linecap="round" stroke-linejoin="round" stroke-miterlimit="10" stroke-width="3"/>
        </g>
        <g id="Group_438" data-name="Group 438" transform="translate(64.839 0)">
          <path id="Path_320" data-name="Path 320" d="M341.359,228.725v8.183a3.485,3.485,0,0,0,1.866,3.082,4,4,0,0,0,2.192.627,4.3,4.3,0,0,0,1.964-.45,3.56,3.56,0,0,0,2.241-3.268v-8.174" transform="translate(-341.359 -228.725)" fill="none" stroke="#306177" stroke-linecap="round" stroke-linejoin="round" stroke-miterlimit="10" stroke-width="3"/>
        </g>
        <g id="Group_439" data-name="Group 439" transform="translate(13.559)">
          <line id="Line_32" data-name="Line 32" x2="4.995" y2="5.675" transform="translate(1.434 6.216)" fill="none" stroke="#306177" stroke-linecap="round" stroke-linejoin="round" stroke-miterlimit="10" stroke-width="3"/>
          <line id="Line_33" data-name="Line 33" y2="5.697" transform="translate(0 6.194)" fill="none" stroke="#306177" stroke-linecap="round" stroke-linejoin="round" stroke-miterlimit="10" stroke-width="3"/>
          <path id="Path_321" data-name="Path 321" d="M112.549,231.815a3.2,3.2,0,0,1-3.265,3.09c-.877,0-3.164.014-3.164.014l0-6.194h3.16A3.2,3.2,0,0,1,112.549,231.815Z" transform="translate(-106.12 -228.725)" fill="none" stroke="#306177" stroke-linecap="round" stroke-linejoin="round" stroke-miterlimit="10" stroke-width="3"/>
        </g>
        <g id="Group_440" data-name="Group 440">
          <line id="Line_34" data-name="Line 34" y2="5.165" transform="translate(0 6.726)" fill="none" stroke="#306177" stroke-linecap="round" stroke-linejoin="round" stroke-miterlimit="10" stroke-width="3"/>
          <path id="Path_322" data-name="Path 322" d="M50.653,232.081a3.412,3.412,0,0,1-3.421,3.356c-.919,0-3.311.015-3.311.015v-6.726h3.311A3.412,3.412,0,0,1,50.653,232.081Z" transform="translate(-43.921 -228.725)" fill="none" stroke="#306177" stroke-linecap="round" stroke-linejoin="round" stroke-miterlimit="10" stroke-width="3"/>
        </g>
      </g>
      <g id="Group_442" data-name="Group 442" transform="translate(19.56 15.545)">
        <path id="Path_323" data-name="Path 323" d="M112.189,90.192a37.376,37.376,0,0,1,54.262,17.686H97.23a37.421,37.421,0,0,1,8.9-13.016" transform="translate(-97.23 -84.609)" fill="none" stroke="#306177" stroke-linecap="round" stroke-linejoin="round" stroke-miterlimit="10" stroke-width="3"/>
        <path id="Path_324" data-name="Path 324" d="M154.043,336.6a37.473,37.473,0,0,0,12.408-15.955H97.23A37.39,37.39,0,0,0,147.46,340.5" transform="translate(-97.23 -269.194)" fill="none" stroke="#306177" stroke-linecap="round" stroke-linejoin="round" stroke-miterlimit="10" stroke-width="3"/>
      </g>
      <line id="Line_35" data-name="Line 35" x2="108.342" transform="translate(0 38.813)" fill="none" stroke="#306177" stroke-linecap="round" stroke-linejoin="round" stroke-miterlimit="10" stroke-width="3"/>
      <line id="Line_36" data-name="Line 36" x1="108.342" transform="translate(0 66.999)" fill="none" stroke="#306177" stroke-linecap="round" stroke-linejoin="round" stroke-miterlimit="10" stroke-width="3"/>
      <g id="Group_443" data-name="Group 443" transform="translate(4.994 0)">
        <path id="Path_325" data-name="Path 325" d="M32.564,320.649c-.9,3.269-2.987,6.94-1.792,9.417,1.67,3.461,8.955,3.409,11.329,6.382s.723,10.076,3.71,12.461,9.512-.815,12.972.855c3.4,1.643,4.977,8.758,8.75,9.616,3.655.831,8.148-4.88,12.054-4.88s8.4,5.71,12.054,4.88c3.774-.858,5.346-7.973,8.75-9.616,3.461-1.67,10,1.519,12.972-.855s1.325-9.474,3.71-12.461,9.659-2.921,11.329-6.382c1.2-2.477-.895-6.148-1.792-9.417H32.564Z" transform="translate(-30.412 -253.65)" fill="none" stroke="#306177" stroke-linecap="round" stroke-linejoin="round" stroke-miterlimit="10" stroke-width="3"/>
        <path id="Path_326" data-name="Path 326" d="M109.581,22.944a5.674,5.674,0,0,1,3.784.909c2.986,2.385,1.325,9.474,3.71,12.463,2.374,2.971,9.659,2.921,11.329,6.381,1.195,2.479-.9,6.147-1.792,9.417H32.562c-.9-3.27-2.986-6.939-1.792-9.417,1.67-3.462,8.955-3.409,11.329-6.381,2.385-2.989.724-10.078,3.71-12.463s9.513.815,12.973-.855c3.405-1.644,4.977-8.759,8.75-9.616,3.656-.831,8.149,4.879,12.055,4.879s8.4-5.709,12.055-4.879c3.773.857,5.345,7.972,8.75,9.616a5.063,5.063,0,0,0,1.565.436" transform="translate(-30.411 -13.3)" fill="none" stroke="#306177" stroke-linecap="round" stroke-linejoin="round" stroke-miterlimit="10" stroke-width="3"/>
      </g>
    </g>
  </g>
</svg>
