<svg id="Group_422" data-name="Group 422" xmlns="http://www.w3.org/2000/svg" xmlns:xlink="http://www.w3.org/1999/xlink" width="96.023" height="109.039" viewBox="0 0 96.023 109.039">
  <defs>
    <clipPath id="clip-path">
      <path id="Path_308" data-name="Path 308" d="M57.072,81.9a38.845,38.845,0,0,0,10.866-1.573v2.25a3.523,3.523,0,0,1-3.52,3.52H31.605a3.522,3.522,0,0,1-3.52-3.52v-2.25A38.845,38.845,0,0,0,38.951,81.9Zm1.8-43.749c16.46,0,30.571.005,30.589,0a.2.2,0,0,0,.122,0h2.545v4.8A35.094,35.094,0,0,1,57.072,78H38.951C17.393,78,1.934,59.228,3.9,38.149c.018.005.7,0,1.514,0,1.221,0,2.737-.005,2.766.008.013-.013,27.655-.01,50.7-.008M36.45,21.083a12.148,12.148,0,0,1,10.578-5.218A13.2,13.2,0,0,1,56.105,19.2a2.367,2.367,0,0,0,.9.451,9.962,9.962,0,0,0,2.574-.34,9.474,9.474,0,0,1,2.906-.324C68.4,19,73.078,22.27,74.045,26.695a1.96,1.96,0,0,0,1.789,1.073c5.342-.06,10.026,2.735,11.333,6.485H13.284a14.048,14.048,0,0,1,6.68-1.654,1.934,1.934,0,0,0,2-1.866v-.073c-.114-5.153,6.312-9.21,12.74-8.619h.054a1.985,1.985,0,0,0,1.7-.959m-2.67-2.965C26.019,17.959,19.352,22.69,18.253,28.8A16.119,16.119,0,0,0,7.247,34.253h-5.3A1.95,1.95,0,0,0,0,36.2v6.745A39,39,0,0,0,24.189,78.972v3.6a7.426,7.426,0,0,0,7.416,7.416h32.81a7.428,7.428,0,0,0,7.419-7.416v-3.6A39,39,0,0,0,96.023,42.947V36.2a1.952,1.952,0,0,0-1.949-1.949H91.2c-1.19-5.627-6.869-9.884-13.989-10.329-1.949-5.2-7.862-8.836-14.728-8.836a18.981,18.981,0,0,0-4.518.588,17.379,17.379,0,0,0-10.941-3.707c-.143,0-.285-.005-.425-.005A16.435,16.435,0,0,0,33.78,18.118" transform="translate(0 -11.964)" fill="#306177"/>
    </clipPath>
    <clipPath id="clip-path-2">
      <path id="Path_309" data-name="Path 309" d="M14.263.521A9.932,9.932,0,0,0,13.807,14.4a6.059,6.059,0,0,1,.264,7.841,1.948,1.948,0,0,0,3.056,2.416,9.952,9.952,0,0,0-.443-12.888,6.047,6.047,0,0,1,.285-8.45,1.948,1.948,0,0,0-2.706-2.8" transform="translate(-11.199)" fill="#306177"/>
    </clipPath>
    <clipPath id="clip-path-3">
      <path id="Path_310" data-name="Path 310" d="M20.04.521A9.932,9.932,0,0,0,19.578,14.4a6.049,6.049,0,0,1,.262,7.841A1.949,1.949,0,0,0,22.9,24.661a9.952,9.952,0,0,0-.443-12.888,6.049,6.049,0,0,1,.285-8.45,1.946,1.946,0,0,0-2.7-2.8" transform="translate(-16.973)" fill="#306177"/>
    </clipPath>
    <clipPath id="clip-path-4">
      <path id="Path_311" data-name="Path 311" d="M25.81.521A9.935,9.935,0,0,0,25.351,14.4a6.052,6.052,0,0,1,.264,7.841,1.948,1.948,0,0,0,3.056,2.416,9.949,9.949,0,0,0-.443-12.888,6.049,6.049,0,0,1,.285-8.45,1.947,1.947,0,0,0-2.7-2.8" transform="translate(-22.746)" fill="#306177"/>
    </clipPath>
  </defs>
  <g id="Group_415" data-name="Group 415" transform="translate(0 31.012)">
    <g id="Group_414" data-name="Group 414" clip-path="url(#clip-path)">
      <rect id="Rectangle_1229" data-name="Rectangle 1229" width="96.023" height="78.068" transform="translate(0 -0.042)" fill="#306177"/>
    </g>
  </g>
  <g id="Group_417" data-name="Group 417" transform="translate(29.028)">
    <g id="Group_416" data-name="Group 416" clip-path="url(#clip-path-2)">
      <rect id="Rectangle_1230" data-name="Rectangle 1230" width="10" height="25.607" transform="translate(-1.039 -0.001)" fill="#306177"/>
    </g>
  </g>
  <g id="Group_419" data-name="Group 419" transform="translate(43.995)">
    <g id="Group_418" data-name="Group 418" clip-path="url(#clip-path-3)">
      <rect id="Rectangle_1231" data-name="Rectangle 1231" width="9.998" height="25.607" transform="translate(-1.039 -0.001)" fill="#306177"/>
    </g>
  </g>
  <g id="Group_421" data-name="Group 421" transform="translate(58.959)">
    <g id="Group_420" data-name="Group 420" clip-path="url(#clip-path-4)">
      <rect id="Rectangle_1232" data-name="Rectangle 1232" width="10" height="25.607" transform="translate(-1.041 -0.001)" fill="#306177"/>
    </g>
  </g>
</svg>
