<svg xmlns="http://www.w3.org/2000/svg" xmlns:xlink="http://www.w3.org/1999/xlink" width="101.599" height="109.038" viewBox="0 0 101.599 109.038">
  <defs>
    <clipPath id="clip-path">
      <path id="Path_312" data-name="Path 312" d="M37.256,33.094A11.287,11.287,0,1,1,48.542,44.383,11.3,11.3,0,0,1,37.256,33.094m-3.764,0a15.034,15.034,0,0,0,6.725,12.523A27.989,27.989,0,0,0,20.7,68.176,43.333,43.333,0,0,1,5.881,27.761a1.881,1.881,0,0,0-3.71-.625A46.98,46.98,0,0,0,40.746,81.348a1.881,1.881,0,0,0,.615-3.712A43.143,43.143,0,0,1,24.2,70.789a24.411,24.411,0,0,1,48.694,0,43.143,43.143,0,0,1-17.164,6.847,1.881,1.881,0,0,0,.3,3.737,1.9,1.9,0,0,0,.312-.025A46.806,46.806,0,0,0,95.58,34.975a47.4,47.4,0,0,0-.664-7.839,1.882,1.882,0,0,0-3.712.625A43.306,43.306,0,0,1,76.382,68.176,27.989,27.989,0,0,0,56.87,45.617,15.047,15.047,0,1,0,33.492,33.094" transform="translate(-1.507 -18.041)" fill="#306177"/>
    </clipPath>
    <clipPath id="clip-path-2">
      <path id="Path_313" data-name="Path 313" d="M25.192,24.95a1.875,1.875,0,0,0-.54-1.669l-6.677-6.5L27.2,15.435a1.876,1.876,0,0,0,1.416-1.027l4.127-8.363,4.129,8.363a1.876,1.876,0,0,0,1.416,1.027l9.225,1.344-6.677,6.5a1.888,1.888,0,0,0-.54,1.669l1.576,9.19L33.623,29.8a1.877,1.877,0,0,0-1.754,0L23.619,34.14ZM32.746,0A1.842,1.842,0,0,0,31.06.957l-5.376,10.9L13.661,13.6a1.884,1.884,0,0,0-1.042,3.212l8.7,8.478L19.264,37.263a1.885,1.885,0,0,0,.747,1.841,1.864,1.864,0,0,0,1.983.142l10.751-5.655L43.5,39.246a1.85,1.85,0,0,0,.874.217,1.883,1.883,0,0,0,1.856-2.2L44.175,25.29l8.7-8.478A1.884,1.884,0,0,0,51.834,13.6L39.811,11.856,34.432.957A1.837,1.837,0,0,0,32.746,0Z" transform="translate(-12.052)" fill="#306177"/>
    </clipPath>
    <clipPath id="clip-path-3">
      <path id="Path_314" data-name="Path 314" d="M11.261,26.41a1.886,1.886,0,0,0-.54-1.669l-4.8-4.671,6.63-.962a1.89,1.89,0,0,0,1.416-1.032l2.963-6.005L19.9,18.076a1.886,1.886,0,0,0,1.416,1.032l6.627.962-4.794,4.671A1.881,1.881,0,0,0,22.6,26.41l1.132,6.6L17.81,29.892a1.9,1.9,0,0,0-1.754,0l-5.928,3.115ZM15.247,6.983l-4.214,8.541L1.611,16.89A1.885,1.885,0,0,0,.567,20.1l6.817,6.645-1.609,9.38a1.883,1.883,0,0,0,2.733,1.986l8.426-4.434,8.426,4.434a1.86,1.86,0,0,0,.877.217,1.881,1.881,0,0,0,1.854-2.2l-1.609-9.38L33.3,20.1a1.883,1.883,0,0,0-1.044-3.212l-9.422-1.366L18.62,6.983a1.964,1.964,0,0,0-3.372,0" transform="translate(0 -6.026)" fill="#306177"/>
    </clipPath>
    <clipPath id="clip-path-4">
      <path id="Path_315" data-name="Path 315" d="M38.376,26.41a1.872,1.872,0,0,0-.54-1.669L33.042,20.07l6.627-.962a1.89,1.89,0,0,0,1.416-1.032l2.963-6.005,2.963,6.005a1.89,1.89,0,0,0,1.416,1.032l6.627.962-4.794,4.671a1.872,1.872,0,0,0-.54,1.669l1.129,6.6-5.925-3.115a1.9,1.9,0,0,0-1.754,0l-5.925,3.115ZM42.362,6.983l-4.214,8.541L28.726,16.89A1.885,1.885,0,0,0,27.682,20.1l6.82,6.645-1.611,9.38a1.883,1.883,0,0,0,2.733,1.986l8.426-4.434,8.426,4.434a1.867,1.867,0,0,0,.877.217,1.881,1.881,0,0,0,1.854-2.2l-1.611-9.38,6.82-6.645a1.883,1.883,0,0,0-1.044-3.212l-9.42-1.366L45.735,6.983a1.964,1.964,0,0,0-3.372,0" transform="translate(-27.115 -6.026)" fill="#306177"/>
    </clipPath>
    <clipPath id="clip-path-5">
      <path id="Path_316" data-name="Path 316" d="M19.583,44.026a1.882,1.882,0,1,0,1.881-1.883,1.882,1.882,0,0,0-1.881,1.883" transform="translate(-19.583 -42.143)" fill="#306177"/>
    </clipPath>
  </defs>
  <g id="Group_433" data-name="Group 433" transform="translate(0)">
    <g id="Group_424" data-name="Group 424" transform="translate(3.764 45.067)">
      <g id="Group_423" data-name="Group 423" clip-path="url(#clip-path)">
        <rect id="Rectangle_1233" data-name="Rectangle 1233" width="94.073" height="63.332" transform="translate(0 0.001)" fill="#306177"/>
      </g>
    </g>
    <g id="Group_426" data-name="Group 426" transform="translate(30.104)">
      <g id="Group_425" data-name="Group 425" clip-path="url(#clip-path-2)">
        <rect id="Rectangle_1234" data-name="Rectangle 1234" width="41.649" height="39.588" transform="translate(-0.129 0.001)" fill="#306177"/>
      </g>
    </g>
    <g id="Group_428" data-name="Group 428" transform="translate(0 15.053)">
      <g id="Group_427" data-name="Group 427" clip-path="url(#clip-path-3)">
        <rect id="Rectangle_1235" data-name="Rectangle 1235" width="34.123" height="32.424" transform="translate(-0.128 0.001)" fill="#306177"/>
      </g>
    </g>
    <g id="Group_430" data-name="Group 430" transform="translate(67.734 15.053)">
      <g id="Group_429" data-name="Group 429" clip-path="url(#clip-path-4)">
        <rect id="Rectangle_1236" data-name="Rectangle 1236" width="34.123" height="32.424" transform="translate(-0.128 0.001)" fill="#306177"/>
      </g>
    </g>
    <g id="Group_432" data-name="Group 432" transform="translate(48.918 105.274)">
      <g id="Group_431" data-name="Group 431" clip-path="url(#clip-path-5)">
        <rect id="Rectangle_1237" data-name="Rectangle 1237" width="3.764" height="3.764" transform="translate(0 0.001)" fill="#306177"/>
      </g>
    </g>
  </g>
</svg>
