<svg id="target_3_" data-name="target (3)" xmlns="http://www.w3.org/2000/svg" width="63.293" height="63.293" viewBox="0 0 63.293 63.293">
  <path id="Path_335" data-name="Path 335" d="M124.927,148.947a9.289,9.289,0,1,1-4.164-7.736l5.38-5.38c-.121-.089-.243-.177-.368-.264a19.022,19.022,0,0,0-10.879-3.838q-.491,0-.98.032A17.194,17.194,0,0,0,97.97,148.947a17.68,17.68,0,0,0,35.359,0,15.606,15.606,0,0,0-4.4-10.655l-5.542,5.542A9.22,9.22,0,0,1,124.927,148.947Z" transform="translate(-85.859 -115.445)" fill="#306177"/>
  <path id="Path_336" data-name="Path 336" d="M200.2,230.222l3.713-3.713a5.571,5.571,0,1,0,2.622,2.622l-3.712,3.712Z" transform="translate(-171.72 -198.031)" fill="#306177"/>
  <path id="Path_337" data-name="Path 337" d="M48,44.229l-2.307,2.307a19.285,19.285,0,0,1,5.487,13.279,21.388,21.388,0,0,1-42.777,0A20.9,20.9,0,0,1,27.809,38.93c4.753-.314,9.54,1.187,14.232,4.466.3.213.6.432.892.655l2.444-2.444.392-6.946a29.765,29.765,0,1,0,9.177,9.177Z" transform="translate(0 -26.313)" fill="#306177"/>
  <path id="Path_338" data-name="Path 338" d="M397.646,14.136l7.578-.427,6.559-6.559L404.632,0l-6.559,6.559Z" transform="translate(-348.489)" fill="#306177"/>
</svg>
